ISO-10303-21;
HEADER;
/* Generated by software containing ST-Developer
 * from STEP Tools, Inc. (www.steptools.com) 
 */
/* OPTION: using custom renumber hook */

FILE_DESCRIPTION(
/* description */ ('STEP AP242',
'CAx-IF Rec.Pracs.---Representation and Presentation of Product Manufa
cturing Information (PMI)---4.0---2014-10-13',
'CAx-IF Rec.Pracs.---3D Tessellated Geometry---0.4---2014-09-14','2;1'),

/* implementation_level */ '2;1');

FILE_NAME(
/* name */ '686b71817a9bce062bccd9e0',
/* time_stamp */ '2025-07-07T07:04:34Z',
/* author */ (''),
/* organization */ (''),
/* preprocessor_version */ 'ST-DEVELOPER v20',
/* originating_system */ 'ONSHAPE BY PTC INC, 1.200',
/* authorisation */ '  ');

FILE_SCHEMA (('AP242_MANAGED_MODEL_BASED_3D_ENGINEERING_MIM_LF { 1 0 10303 442 1 1 4 }'));
ENDSEC;

DATA;
#10=SHAPE_REPRESENTATION_RELATIONSHIP('','',#809,#11);
#11=ADVANCED_BREP_SHAPE_REPRESENTATION('',(#807),#1343);
#12=CONICAL_SURFACE('',#874,0.0021,0.785398163397448);
#13=CONICAL_SURFACE('',#875,0.0021,0.785398163397448);
#14=CONICAL_SURFACE('',#876,0.0021,0.785398163397448);
#15=CONICAL_SURFACE('',#877,0.0021,0.785398163397448);
#16=CYLINDRICAL_SURFACE('',#840,0.0096);
#17=CYLINDRICAL_SURFACE('',#843,0.0096);
#18=CYLINDRICAL_SURFACE('',#846,0.0096);
#19=CYLINDRICAL_SURFACE('',#849,0.0096);
#20=CYLINDRICAL_SURFACE('',#861,0.01);
#21=CYLINDRICAL_SURFACE('',#863,0.01);
#22=CYLINDRICAL_SURFACE('',#865,0.01);
#23=CYLINDRICAL_SURFACE('',#867,0.01);
#24=CYLINDRICAL_SURFACE('',#872,0.00135);
#25=CYLINDRICAL_SURFACE('',#873,0.00135);
#26=CYLINDRICAL_SURFACE('',#884,0.002);
#27=CYLINDRICAL_SURFACE('',#885,0.002);
#28=CYLINDRICAL_SURFACE('',#886,0.002);
#29=CYLINDRICAL_SURFACE('',#887,0.002);
#30=CIRCLE('',#814,0.00135);
#31=CIRCLE('',#815,0.00135);
#32=CIRCLE('',#816,0.0096);
#33=CIRCLE('',#817,0.0096);
#34=CIRCLE('',#818,0.0096);
#35=CIRCLE('',#819,0.0096);
#36=CIRCLE('',#820,0.002);
#37=CIRCLE('',#821,0.002);
#38=CIRCLE('',#822,0.002);
#39=CIRCLE('',#823,0.002);
#40=CIRCLE('',#825,0.002);
#41=CIRCLE('',#826,0.002);
#42=CIRCLE('',#827,0.002);
#43=CIRCLE('',#828,0.002);
#44=CIRCLE('',#829,0.0041);
#45=CIRCLE('',#830,0.0041);
#46=CIRCLE('',#831,0.0041);
#47=CIRCLE('',#832,0.0041);
#48=CIRCLE('',#833,0.00135);
#49=CIRCLE('',#834,0.00135);
#50=CIRCLE('',#835,0.01);
#51=CIRCLE('',#836,0.01);
#52=CIRCLE('',#837,0.01);
#53=CIRCLE('',#838,0.01);
#54=CIRCLE('',#841,0.0096);
#55=CIRCLE('',#844,0.0096);
#56=CIRCLE('',#847,0.0096);
#57=CIRCLE('',#850,0.0096);
#58=CIRCLE('',#852,0.0021);
#59=CIRCLE('',#853,0.0021);
#60=CIRCLE('',#854,0.0021);
#61=CIRCLE('',#855,0.0021);
#62=CIRCLE('',#856,0.01);
#63=CIRCLE('',#857,0.01);
#64=CIRCLE('',#858,0.01);
#65=CIRCLE('',#859,0.01);
#66=ORIENTED_EDGE('',*,*,#282,.F.);
#67=ORIENTED_EDGE('',*,*,#283,.F.);
#68=ORIENTED_EDGE('',*,*,#284,.T.);
#69=ORIENTED_EDGE('',*,*,#285,.T.);
#70=ORIENTED_EDGE('',*,*,#286,.T.);
#71=ORIENTED_EDGE('',*,*,#287,.T.);
#72=ORIENTED_EDGE('',*,*,#288,.F.);
#73=ORIENTED_EDGE('',*,*,#289,.F.);
#74=ORIENTED_EDGE('',*,*,#290,.T.);
#75=ORIENTED_EDGE('',*,*,#291,.T.);
#76=ORIENTED_EDGE('',*,*,#292,.T.);
#77=ORIENTED_EDGE('',*,*,#293,.F.);
#78=ORIENTED_EDGE('',*,*,#294,.T.);
#79=ORIENTED_EDGE('',*,*,#295,.F.);
#80=ORIENTED_EDGE('',*,*,#296,.F.);
#81=ORIENTED_EDGE('',*,*,#297,.F.);
#82=ORIENTED_EDGE('',*,*,#298,.F.);
#83=ORIENTED_EDGE('',*,*,#299,.F.);
#84=ORIENTED_EDGE('',*,*,#300,.F.);
#85=ORIENTED_EDGE('',*,*,#301,.T.);
#86=ORIENTED_EDGE('',*,*,#302,.T.);
#87=ORIENTED_EDGE('',*,*,#303,.T.);
#88=ORIENTED_EDGE('',*,*,#304,.T.);
#89=ORIENTED_EDGE('',*,*,#305,.F.);
#90=ORIENTED_EDGE('',*,*,#306,.T.);
#91=ORIENTED_EDGE('',*,*,#307,.T.);
#92=ORIENTED_EDGE('',*,*,#308,.T.);
#93=ORIENTED_EDGE('',*,*,#309,.T.);
#94=ORIENTED_EDGE('',*,*,#310,.F.);
#95=ORIENTED_EDGE('',*,*,#286,.F.);
#96=ORIENTED_EDGE('',*,*,#311,.F.);
#97=ORIENTED_EDGE('',*,*,#283,.T.);
#98=ORIENTED_EDGE('',*,*,#312,.F.);
#99=ORIENTED_EDGE('',*,*,#313,.T.);
#100=ORIENTED_EDGE('',*,*,#314,.F.);
#101=ORIENTED_EDGE('',*,*,#315,.T.);
#102=ORIENTED_EDGE('',*,*,#316,.F.);
#103=ORIENTED_EDGE('',*,*,#317,.F.);
#104=ORIENTED_EDGE('',*,*,#318,.F.);
#105=ORIENTED_EDGE('',*,*,#319,.T.);
#106=ORIENTED_EDGE('',*,*,#320,.T.);
#107=ORIENTED_EDGE('',*,*,#321,.T.);
#108=ORIENTED_EDGE('',*,*,#322,.T.);
#109=ORIENTED_EDGE('',*,*,#285,.F.);
#110=ORIENTED_EDGE('',*,*,#323,.T.);
#111=ORIENTED_EDGE('',*,*,#288,.T.);
#112=ORIENTED_EDGE('',*,*,#324,.T.);
#113=ORIENTED_EDGE('',*,*,#325,.T.);
#114=ORIENTED_EDGE('',*,*,#326,.F.);
#115=ORIENTED_EDGE('',*,*,#327,.T.);
#116=ORIENTED_EDGE('',*,*,#328,.T.);
#117=ORIENTED_EDGE('',*,*,#329,.T.);
#118=ORIENTED_EDGE('',*,*,#330,.T.);
#119=ORIENTED_EDGE('',*,*,#331,.T.);
#120=ORIENTED_EDGE('',*,*,#332,.F.);
#121=ORIENTED_EDGE('',*,*,#333,.F.);
#122=ORIENTED_EDGE('',*,*,#334,.T.);
#123=ORIENTED_EDGE('',*,*,#335,.T.);
#124=ORIENTED_EDGE('',*,*,#336,.F.);
#125=ORIENTED_EDGE('',*,*,#337,.T.);
#126=ORIENTED_EDGE('',*,*,#338,.F.);
#127=ORIENTED_EDGE('',*,*,#339,.T.);
#128=ORIENTED_EDGE('',*,*,#340,.T.);
#129=ORIENTED_EDGE('',*,*,#341,.T.);
#130=ORIENTED_EDGE('',*,*,#342,.T.);
#131=ORIENTED_EDGE('',*,*,#343,.F.);
#132=ORIENTED_EDGE('',*,*,#292,.F.);
#133=ORIENTED_EDGE('',*,*,#344,.T.);
#134=ORIENTED_EDGE('',*,*,#345,.F.);
#135=ORIENTED_EDGE('',*,*,#344,.F.);
#136=ORIENTED_EDGE('',*,*,#299,.T.);
#137=ORIENTED_EDGE('',*,*,#346,.T.);
#138=ORIENTED_EDGE('',*,*,#347,.F.);
#139=ORIENTED_EDGE('',*,*,#346,.F.);
#140=ORIENTED_EDGE('',*,*,#298,.T.);
#141=ORIENTED_EDGE('',*,*,#348,.T.);
#142=ORIENTED_EDGE('',*,*,#349,.F.);
#143=ORIENTED_EDGE('',*,*,#348,.F.);
#144=ORIENTED_EDGE('',*,*,#297,.T.);
#145=ORIENTED_EDGE('',*,*,#350,.T.);
#146=ORIENTED_EDGE('',*,*,#351,.F.);
#147=ORIENTED_EDGE('',*,*,#350,.F.);
#148=ORIENTED_EDGE('',*,*,#296,.T.);
#149=ORIENTED_EDGE('',*,*,#352,.T.);
#150=ORIENTED_EDGE('',*,*,#353,.F.);
#151=ORIENTED_EDGE('',*,*,#352,.F.);
#152=ORIENTED_EDGE('',*,*,#295,.T.);
#153=ORIENTED_EDGE('',*,*,#354,.T.);
#154=ORIENTED_EDGE('',*,*,#355,.T.);
#155=ORIENTED_EDGE('',*,*,#354,.F.);
#156=ORIENTED_EDGE('',*,*,#294,.F.);
#157=ORIENTED_EDGE('',*,*,#356,.T.);
#158=ORIENTED_EDGE('',*,*,#357,.F.);
#159=ORIENTED_EDGE('',*,*,#356,.F.);
#160=ORIENTED_EDGE('',*,*,#293,.T.);
#161=ORIENTED_EDGE('',*,*,#343,.T.);
#162=ORIENTED_EDGE('',*,*,#358,.T.);
#163=ORIENTED_EDGE('',*,*,#359,.T.);
#164=ORIENTED_EDGE('',*,*,#360,.T.);
#165=ORIENTED_EDGE('',*,*,#361,.T.);
#166=ORIENTED_EDGE('',*,*,#362,.F.);
#167=ORIENTED_EDGE('',*,*,#363,.F.);
#168=ORIENTED_EDGE('',*,*,#364,.F.);
#169=ORIENTED_EDGE('',*,*,#365,.F.);
#170=ORIENTED_EDGE('',*,*,#366,.T.);
#171=ORIENTED_EDGE('',*,*,#367,.F.);
#172=ORIENTED_EDGE('',*,*,#368,.T.);
#173=ORIENTED_EDGE('',*,*,#369,.F.);
#174=ORIENTED_EDGE('',*,*,#342,.F.);
#175=ORIENTED_EDGE('',*,*,#345,.T.);
#176=ORIENTED_EDGE('',*,*,#347,.T.);
#177=ORIENTED_EDGE('',*,*,#349,.T.);
#178=ORIENTED_EDGE('',*,*,#351,.T.);
#179=ORIENTED_EDGE('',*,*,#353,.T.);
#180=ORIENTED_EDGE('',*,*,#355,.F.);
#181=ORIENTED_EDGE('',*,*,#357,.T.);
#182=ORIENTED_EDGE('',*,*,#362,.T.);
#183=ORIENTED_EDGE('',*,*,#370,.F.);
#184=ORIENTED_EDGE('',*,*,#334,.F.);
#185=ORIENTED_EDGE('',*,*,#371,.T.);
#186=ORIENTED_EDGE('',*,*,#369,.T.);
#187=ORIENTED_EDGE('',*,*,#372,.F.);
#188=ORIENTED_EDGE('',*,*,#335,.F.);
#189=ORIENTED_EDGE('',*,*,#370,.T.);
#190=ORIENTED_EDGE('',*,*,#368,.F.);
#191=ORIENTED_EDGE('',*,*,#373,.F.);
#192=ORIENTED_EDGE('',*,*,#336,.T.);
#193=ORIENTED_EDGE('',*,*,#372,.T.);
#194=ORIENTED_EDGE('',*,*,#367,.T.);
#195=ORIENTED_EDGE('',*,*,#374,.F.);
#196=ORIENTED_EDGE('',*,*,#337,.F.);
#197=ORIENTED_EDGE('',*,*,#373,.T.);
#198=ORIENTED_EDGE('',*,*,#366,.F.);
#199=ORIENTED_EDGE('',*,*,#375,.F.);
#200=ORIENTED_EDGE('',*,*,#338,.T.);
#201=ORIENTED_EDGE('',*,*,#374,.T.);
#202=ORIENTED_EDGE('',*,*,#365,.T.);
#203=ORIENTED_EDGE('',*,*,#376,.F.);
#204=ORIENTED_EDGE('',*,*,#339,.F.);
#205=ORIENTED_EDGE('',*,*,#375,.T.);
#206=ORIENTED_EDGE('',*,*,#364,.T.);
#207=ORIENTED_EDGE('',*,*,#377,.F.);
#208=ORIENTED_EDGE('',*,*,#340,.F.);
#209=ORIENTED_EDGE('',*,*,#376,.T.);
#210=ORIENTED_EDGE('',*,*,#363,.T.);
#211=ORIENTED_EDGE('',*,*,#371,.F.);
#212=ORIENTED_EDGE('',*,*,#341,.F.);
#213=ORIENTED_EDGE('',*,*,#377,.T.);
#214=ORIENTED_EDGE('',*,*,#311,.T.);
#215=ORIENTED_EDGE('',*,*,#289,.T.);
#216=ORIENTED_EDGE('',*,*,#323,.F.);
#217=ORIENTED_EDGE('',*,*,#284,.F.);
#218=ORIENTED_EDGE('',*,*,#303,.F.);
#219=ORIENTED_EDGE('',*,*,#378,.T.);
#220=ORIENTED_EDGE('',*,*,#317,.T.);
#221=ORIENTED_EDGE('',*,*,#379,.F.);
#222=ORIENTED_EDGE('',*,*,#379,.T.);
#223=ORIENTED_EDGE('',*,*,#316,.T.);
#224=ORIENTED_EDGE('',*,*,#380,.F.);
#225=ORIENTED_EDGE('',*,*,#304,.F.);
#226=ORIENTED_EDGE('',*,*,#381,.F.);
#227=ORIENTED_EDGE('',*,*,#305,.T.);
#228=ORIENTED_EDGE('',*,*,#380,.T.);
#229=ORIENTED_EDGE('',*,*,#315,.F.);
#230=ORIENTED_EDGE('',*,*,#333,.T.);
#231=ORIENTED_EDGE('',*,*,#291,.F.);
#232=ORIENTED_EDGE('',*,*,#332,.T.);
#233=ORIENTED_EDGE('',*,*,#290,.F.);
#234=ORIENTED_EDGE('',*,*,#328,.F.);
#235=ORIENTED_EDGE('',*,*,#360,.F.);
#236=ORIENTED_EDGE('',*,*,#329,.F.);
#237=ORIENTED_EDGE('',*,*,#359,.F.);
#238=ORIENTED_EDGE('',*,*,#330,.F.);
#239=ORIENTED_EDGE('',*,*,#358,.F.);
#240=ORIENTED_EDGE('',*,*,#331,.F.);
#241=ORIENTED_EDGE('',*,*,#361,.F.);
#242=ORIENTED_EDGE('',*,*,#310,.T.);
#243=ORIENTED_EDGE('',*,*,#382,.T.);
#244=ORIENTED_EDGE('',*,*,#324,.F.);
#245=ORIENTED_EDGE('',*,*,#287,.F.);
#246=ORIENTED_EDGE('',*,*,#314,.T.);
#247=ORIENTED_EDGE('',*,*,#383,.T.);
#248=ORIENTED_EDGE('',*,*,#306,.F.);
#249=ORIENTED_EDGE('',*,*,#381,.T.);
#250=ORIENTED_EDGE('',*,*,#326,.T.);
#251=ORIENTED_EDGE('',*,*,#384,.T.);
#252=ORIENTED_EDGE('',*,*,#308,.F.);
#253=ORIENTED_EDGE('',*,*,#385,.T.);
#254=ORIENTED_EDGE('',*,*,#320,.F.);
#255=ORIENTED_EDGE('',*,*,#386,.T.);
#256=ORIENTED_EDGE('',*,*,#300,.T.);
#257=ORIENTED_EDGE('',*,*,#387,.T.);
#258=ORIENTED_EDGE('',*,*,#302,.F.);
#259=ORIENTED_EDGE('',*,*,#388,.T.);
#260=ORIENTED_EDGE('',*,*,#318,.T.);
#261=ORIENTED_EDGE('',*,*,#378,.F.);
#262=ORIENTED_EDGE('',*,*,#322,.F.);
#263=ORIENTED_EDGE('',*,*,#389,.T.);
#264=ORIENTED_EDGE('',*,*,#312,.T.);
#265=ORIENTED_EDGE('',*,*,#282,.T.);
#266=ORIENTED_EDGE('',*,*,#301,.F.);
#267=ORIENTED_EDGE('',*,*,#386,.F.);
#268=ORIENTED_EDGE('',*,*,#319,.F.);
#269=ORIENTED_EDGE('',*,*,#388,.F.);
#270=ORIENTED_EDGE('',*,*,#313,.F.);
#271=ORIENTED_EDGE('',*,*,#389,.F.);
#272=ORIENTED_EDGE('',*,*,#321,.F.);
#273=ORIENTED_EDGE('',*,*,#387,.F.);
#274=ORIENTED_EDGE('',*,*,#309,.F.);
#275=ORIENTED_EDGE('',*,*,#384,.F.);
#276=ORIENTED_EDGE('',*,*,#325,.F.);
#277=ORIENTED_EDGE('',*,*,#382,.F.);
#278=ORIENTED_EDGE('',*,*,#307,.F.);
#279=ORIENTED_EDGE('',*,*,#383,.F.);
#280=ORIENTED_EDGE('',*,*,#327,.F.);
#281=ORIENTED_EDGE('',*,*,#385,.F.);
#282=EDGE_CURVE('',#390,#391,#466,.T.);
#283=EDGE_CURVE('',#392,#390,#467,.T.);
#284=EDGE_CURVE('',#392,#393,#468,.T.);
#285=EDGE_CURVE('',#393,#391,#469,.T.);
#286=EDGE_CURVE('',#394,#395,#470,.T.);
#287=EDGE_CURVE('',#395,#396,#471,.T.);
#288=EDGE_CURVE('',#397,#396,#472,.T.);
#289=EDGE_CURVE('',#394,#397,#473,.T.);
#290=EDGE_CURVE('',#398,#398,#30,.T.);
#291=EDGE_CURVE('',#399,#399,#31,.T.);
#292=EDGE_CURVE('',#400,#401,#474,.T.);
#293=EDGE_CURVE('',#402,#401,#32,.T.);
#294=EDGE_CURVE('',#402,#403,#475,.T.);
#295=EDGE_CURVE('',#404,#403,#33,.T.);
#296=EDGE_CURVE('',#405,#404,#476,.T.);
#297=EDGE_CURVE('',#406,#405,#34,.T.);
#298=EDGE_CURVE('',#407,#406,#477,.T.);
#299=EDGE_CURVE('',#400,#407,#35,.T.);
#300=EDGE_CURVE('',#408,#409,#478,.T.);
#301=EDGE_CURVE('',#408,#410,#36,.T.);
#302=EDGE_CURVE('',#410,#411,#479,.T.);
#303=EDGE_CURVE('',#411,#412,#480,.T.);
#304=EDGE_CURVE('',#412,#413,#481,.T.);
#305=EDGE_CURVE('',#414,#413,#482,.T.);
#306=EDGE_CURVE('',#414,#415,#483,.T.);
#307=EDGE_CURVE('',#415,#416,#37,.T.);
#308=EDGE_CURVE('',#416,#417,#484,.T.);
#309=EDGE_CURVE('',#417,#418,#38,.T.);
#310=EDGE_CURVE('',#395,#418,#485,.T.);
#311=EDGE_CURVE('',#392,#394,#486,.T.);
#312=EDGE_CURVE('',#419,#390,#487,.T.);
#313=EDGE_CURVE('',#419,#409,#39,.T.);
#314=EDGE_CURVE('',#420,#421,#488,.T.);
#315=EDGE_CURVE('',#420,#422,#489,.T.);
#316=EDGE_CURVE('',#423,#422,#490,.T.);
#317=EDGE_CURVE('',#424,#423,#491,.T.);
#318=EDGE_CURVE('',#425,#424,#492,.T.);
#319=EDGE_CURVE('',#425,#426,#40,.F.);
#320=EDGE_CURVE('',#426,#427,#493,.T.);
#321=EDGE_CURVE('',#427,#428,#41,.F.);
#322=EDGE_CURVE('',#428,#391,#494,.T.);
#323=EDGE_CURVE('',#393,#397,#495,.T.);
#324=EDGE_CURVE('',#396,#429,#496,.T.);
#325=EDGE_CURVE('',#429,#430,#42,.F.);
#326=EDGE_CURVE('',#431,#430,#497,.T.);
#327=EDGE_CURVE('',#431,#421,#43,.F.);
#328=EDGE_CURVE('',#432,#432,#44,.F.);
#329=EDGE_CURVE('',#433,#433,#45,.F.);
#330=EDGE_CURVE('',#434,#434,#46,.F.);
#331=EDGE_CURVE('',#435,#435,#47,.F.);
#332=EDGE_CURVE('',#436,#436,#48,.T.);
#333=EDGE_CURVE('',#437,#437,#49,.T.);
#334=EDGE_CURVE('',#438,#439,#498,.T.);
#335=EDGE_CURVE('',#439,#440,#50,.T.);
#336=EDGE_CURVE('',#441,#440,#499,.T.);
#337=EDGE_CURVE('',#441,#442,#51,.T.);
#338=EDGE_CURVE('',#443,#442,#500,.T.);
#339=EDGE_CURVE('',#443,#444,#52,.T.);
#340=EDGE_CURVE('',#444,#445,#501,.T.);
#341=EDGE_CURVE('',#445,#438,#53,.T.);
#342=EDGE_CURVE('',#446,#447,#502,.T.);
#343=EDGE_CURVE('',#401,#447,#503,.T.);
#344=EDGE_CURVE('',#400,#446,#504,.T.);
#345=EDGE_CURVE('',#446,#448,#54,.T.);
#346=EDGE_CURVE('',#407,#448,#505,.T.);
#347=EDGE_CURVE('',#448,#449,#506,.T.);
#348=EDGE_CURVE('',#406,#449,#507,.T.);
#349=EDGE_CURVE('',#449,#450,#55,.T.);
#350=EDGE_CURVE('',#405,#450,#508,.T.);
#351=EDGE_CURVE('',#450,#451,#509,.T.);
#352=EDGE_CURVE('',#404,#451,#510,.T.);
#353=EDGE_CURVE('',#451,#452,#56,.T.);
#354=EDGE_CURVE('',#403,#452,#511,.T.);
#355=EDGE_CURVE('',#453,#452,#512,.T.);
#356=EDGE_CURVE('',#402,#453,#513,.T.);
#357=EDGE_CURVE('',#453,#447,#57,.T.);
#358=EDGE_CURVE('',#454,#454,#58,.T.);
#359=EDGE_CURVE('',#455,#455,#59,.T.);
#360=EDGE_CURVE('',#456,#456,#60,.T.);
#361=EDGE_CURVE('',#457,#457,#61,.T.);
#362=EDGE_CURVE('',#458,#459,#514,.T.);
#363=EDGE_CURVE('',#460,#458,#62,.T.);
#364=EDGE_CURVE('',#461,#460,#515,.T.);
#365=EDGE_CURVE('',#462,#461,#63,.T.);
#366=EDGE_CURVE('',#462,#463,#516,.T.);
#367=EDGE_CURVE('',#464,#463,#64,.T.);
#368=EDGE_CURVE('',#464,#465,#517,.T.);
#369=EDGE_CURVE('',#459,#465,#65,.T.);
#370=EDGE_CURVE('',#439,#459,#518,.T.);
#371=EDGE_CURVE('',#438,#458,#519,.T.);
#372=EDGE_CURVE('',#440,#465,#520,.T.);
#373=EDGE_CURVE('',#441,#464,#521,.T.);
#374=EDGE_CURVE('',#442,#463,#522,.T.);
#375=EDGE_CURVE('',#443,#462,#523,.T.);
#376=EDGE_CURVE('',#444,#461,#524,.T.);
#377=EDGE_CURVE('',#445,#460,#525,.T.);
#378=EDGE_CURVE('',#411,#424,#526,.T.);
#379=EDGE_CURVE('',#412,#423,#527,.T.);
#380=EDGE_CURVE('',#413,#422,#528,.T.);
#381=EDGE_CURVE('',#414,#420,#529,.T.);
#382=EDGE_CURVE('',#418,#429,#530,.T.);
#383=EDGE_CURVE('',#421,#415,#531,.F.);
#384=EDGE_CURVE('',#430,#417,#532,.F.);
#385=EDGE_CURVE('',#416,#431,#533,.T.);
#386=EDGE_CURVE('',#426,#408,#534,.F.);
#387=EDGE_CURVE('',#409,#427,#535,.T.);
#388=EDGE_CURVE('',#410,#425,#536,.T.);
#389=EDGE_CURVE('',#428,#419,#537,.F.);
#390=VERTEX_POINT('',#1119);
#391=VERTEX_POINT('',#1120);
#392=VERTEX_POINT('',#1122);
#393=VERTEX_POINT('',#1124);
#394=VERTEX_POINT('',#1128);
#395=VERTEX_POINT('',#1129);
#396=VERTEX_POINT('',#1131);
#397=VERTEX_POINT('',#1133);
#398=VERTEX_POINT('',#1137);
#399=VERTEX_POINT('',#1139);
#400=VERTEX_POINT('',#1141);
#401=VERTEX_POINT('',#1142);
#402=VERTEX_POINT('',#1144);
#403=VERTEX_POINT('',#1146);
#404=VERTEX_POINT('',#1148);
#405=VERTEX_POINT('',#1150);
#406=VERTEX_POINT('',#1152);
#407=VERTEX_POINT('',#1154);
#408=VERTEX_POINT('',#1157);
#409=VERTEX_POINT('',#1158);
#410=VERTEX_POINT('',#1160);
#411=VERTEX_POINT('',#1162);
#412=VERTEX_POINT('',#1164);
#413=VERTEX_POINT('',#1166);
#414=VERTEX_POINT('',#1168);
#415=VERTEX_POINT('',#1170);
#416=VERTEX_POINT('',#1172);
#417=VERTEX_POINT('',#1174);
#418=VERTEX_POINT('',#1176);
#419=VERTEX_POINT('',#1180);
#420=VERTEX_POINT('',#1184);
#421=VERTEX_POINT('',#1185);
#422=VERTEX_POINT('',#1187);
#423=VERTEX_POINT('',#1189);
#424=VERTEX_POINT('',#1191);
#425=VERTEX_POINT('',#1193);
#426=VERTEX_POINT('',#1195);
#427=VERTEX_POINT('',#1197);
#428=VERTEX_POINT('',#1199);
#429=VERTEX_POINT('',#1203);
#430=VERTEX_POINT('',#1205);
#431=VERTEX_POINT('',#1207);
#432=VERTEX_POINT('',#1210);
#433=VERTEX_POINT('',#1212);
#434=VERTEX_POINT('',#1214);
#435=VERTEX_POINT('',#1216);
#436=VERTEX_POINT('',#1218);
#437=VERTEX_POINT('',#1220);
#438=VERTEX_POINT('',#1222);
#439=VERTEX_POINT('',#1223);
#440=VERTEX_POINT('',#1225);
#441=VERTEX_POINT('',#1227);
#442=VERTEX_POINT('',#1229);
#443=VERTEX_POINT('',#1231);
#444=VERTEX_POINT('',#1233);
#445=VERTEX_POINT('',#1235);
#446=VERTEX_POINT('',#1239);
#447=VERTEX_POINT('',#1240);
#448=VERTEX_POINT('',#1245);
#449=VERTEX_POINT('',#1249);
#450=VERTEX_POINT('',#1253);
#451=VERTEX_POINT('',#1257);
#452=VERTEX_POINT('',#1261);
#453=VERTEX_POINT('',#1265);
#454=VERTEX_POINT('',#1271);
#455=VERTEX_POINT('',#1273);
#456=VERTEX_POINT('',#1275);
#457=VERTEX_POINT('',#1277);
#458=VERTEX_POINT('',#1279);
#459=VERTEX_POINT('',#1280);
#460=VERTEX_POINT('',#1282);
#461=VERTEX_POINT('',#1284);
#462=VERTEX_POINT('',#1286);
#463=VERTEX_POINT('',#1288);
#464=VERTEX_POINT('',#1290);
#465=VERTEX_POINT('',#1292);
#466=LINE('',#1118,#538);
#467=LINE('',#1121,#539);
#468=LINE('',#1123,#540);
#469=LINE('',#1125,#541);
#470=LINE('',#1127,#542);
#471=LINE('',#1130,#543);
#472=LINE('',#1132,#544);
#473=LINE('',#1134,#545);
#474=LINE('',#1140,#546);
#475=LINE('',#1145,#547);
#476=LINE('',#1149,#548);
#477=LINE('',#1153,#549);
#478=LINE('',#1156,#550);
#479=LINE('',#1161,#551);
#480=LINE('',#1163,#552);
#481=LINE('',#1165,#553);
#482=LINE('',#1167,#554);
#483=LINE('',#1169,#555);
#484=LINE('',#1173,#556);
#485=LINE('',#1177,#557);
#486=LINE('',#1178,#558);
#487=LINE('',#1179,#559);
#488=LINE('',#1183,#560);
#489=LINE('',#1186,#561);
#490=LINE('',#1188,#562);
#491=LINE('',#1190,#563);
#492=LINE('',#1192,#564);
#493=LINE('',#1196,#565);
#494=LINE('',#1200,#566);
#495=LINE('',#1201,#567);
#496=LINE('',#1202,#568);
#497=LINE('',#1206,#569);
#498=LINE('',#1221,#570);
#499=LINE('',#1226,#571);
#500=LINE('',#1230,#572);
#501=LINE('',#1234,#573);
#502=LINE('',#1238,#574);
#503=LINE('',#1241,#575);
#504=LINE('',#1242,#576);
#505=LINE('',#1246,#577);
#506=LINE('',#1248,#578);
#507=LINE('',#1250,#579);
#508=LINE('',#1254,#580);
#509=LINE('',#1256,#581);
#510=LINE('',#1258,#582);
#511=LINE('',#1262,#583);
#512=LINE('',#1264,#584);
#513=LINE('',#1266,#585);
#514=LINE('',#1278,#586);
#515=LINE('',#1283,#587);
#516=LINE('',#1287,#588);
#517=LINE('',#1291,#589);
#518=LINE('',#1295,#590);
#519=LINE('',#1296,#591);
#520=LINE('',#1298,#592);
#521=LINE('',#1300,#593);
#522=LINE('',#1302,#594);
#523=LINE('',#1304,#595);
#524=LINE('',#1306,#596);
#525=LINE('',#1308,#597);
#526=LINE('',#1312,#598);
#527=LINE('',#1313,#599);
#528=LINE('',#1315,#600);
#529=LINE('',#1317,#601);
#530=LINE('',#1325,#602);
#531=LINE('',#1327,#603);
#532=LINE('',#1329,#604);
#533=LINE('',#1330,#605);
#534=LINE('',#1332,#606);
#535=LINE('',#1333,#607);
#536=LINE('',#1335,#608);
#537=LINE('',#1337,#609);
#538=VECTOR('',#892,1.);
#539=VECTOR('',#893,1.);
#540=VECTOR('',#894,1.);
#541=VECTOR('',#895,1.);
#542=VECTOR('',#898,1.);
#543=VECTOR('',#899,1.);
#544=VECTOR('',#900,1.);
#545=VECTOR('',#901,1.);
#546=VECTOR('',#908,1.);
#547=VECTOR('',#911,1.);
#548=VECTOR('',#914,1.);
#549=VECTOR('',#917,1.);
#550=VECTOR('',#920,1.);
#551=VECTOR('',#923,1.);
#552=VECTOR('',#924,1.);
#553=VECTOR('',#925,1.);
#554=VECTOR('',#926,1.);
#555=VECTOR('',#927,1.);
#556=VECTOR('',#930,1.);
#557=VECTOR('',#933,1.);
#558=VECTOR('',#934,1.);
#559=VECTOR('',#935,1.);
#560=VECTOR('',#940,1.);
#561=VECTOR('',#941,1.);
#562=VECTOR('',#942,1.);
#563=VECTOR('',#943,1.);
#564=VECTOR('',#944,1.);
#565=VECTOR('',#947,1.);
#566=VECTOR('',#950,1.);
#567=VECTOR('',#951,1.);
#568=VECTOR('',#952,1.);
#569=VECTOR('',#955,1.);
#570=VECTOR('',#970,1.);
#571=VECTOR('',#973,1.);
#572=VECTOR('',#976,1.);
#573=VECTOR('',#979,1.);
#574=VECTOR('',#984,1.);
#575=VECTOR('',#985,1.);
#576=VECTOR('',#986,1.);
#577=VECTOR('',#991,1.);
#578=VECTOR('',#994,1.);
#579=VECTOR('',#995,1.);
#580=VECTOR('',#1000,1.);
#581=VECTOR('',#1003,1.);
#582=VECTOR('',#1004,1.);
#583=VECTOR('',#1009,1.);
#584=VECTOR('',#1012,1.);
#585=VECTOR('',#1013,1.);
#586=VECTOR('',#1028,1.);
#587=VECTOR('',#1031,1.);
#588=VECTOR('',#1034,1.);
#589=VECTOR('',#1037,1.);
#590=VECTOR('',#1042,1.);
#591=VECTOR('',#1043,1.);
#592=VECTOR('',#1046,1.);
#593=VECTOR('',#1049,1.);
#594=VECTOR('',#1052,1.);
#595=VECTOR('',#1055,1.);
#596=VECTOR('',#1058,1.);
#597=VECTOR('',#1061,1.);
#598=VECTOR('',#1068,1.);
#599=VECTOR('',#1069,1.);
#600=VECTOR('',#1072,1.);
#601=VECTOR('',#1075,1.);
#602=VECTOR('',#1090,1.);
#603=VECTOR('',#1093,1.);
#604=VECTOR('',#1096,1.);
#605=VECTOR('',#1097,1.);
#606=VECTOR('',#1100,1.);
#607=VECTOR('',#1101,1.);
#608=VECTOR('',#1104,1.);
#609=VECTOR('',#1107,1.);
#610=EDGE_LOOP('',(#66,#67,#68,#69));
#611=EDGE_LOOP('',(#70,#71,#72,#73));
#612=EDGE_LOOP('',(#74));
#613=EDGE_LOOP('',(#75));
#614=EDGE_LOOP('',(#76,#77,#78,#79,#80,#81,#82,#83));
#615=EDGE_LOOP('',(#84,#85,#86,#87,#88,#89,#90,#91,#92,#93,#94,#95,#96,
#97,#98,#99));
#616=EDGE_LOOP('',(#100,#101,#102,#103,#104,#105,#106,#107,#108,#109,#110,
#111,#112,#113,#114,#115));
#617=EDGE_LOOP('',(#116));
#618=EDGE_LOOP('',(#117));
#619=EDGE_LOOP('',(#118));
#620=EDGE_LOOP('',(#119));
#621=EDGE_LOOP('',(#120));
#622=EDGE_LOOP('',(#121));
#623=EDGE_LOOP('',(#122,#123,#124,#125,#126,#127,#128,#129));
#624=EDGE_LOOP('',(#130,#131,#132,#133));
#625=EDGE_LOOP('',(#134,#135,#136,#137));
#626=EDGE_LOOP('',(#138,#139,#140,#141));
#627=EDGE_LOOP('',(#142,#143,#144,#145));
#628=EDGE_LOOP('',(#146,#147,#148,#149));
#629=EDGE_LOOP('',(#150,#151,#152,#153));
#630=EDGE_LOOP('',(#154,#155,#156,#157));
#631=EDGE_LOOP('',(#158,#159,#160,#161));
#632=EDGE_LOOP('',(#162));
#633=EDGE_LOOP('',(#163));
#634=EDGE_LOOP('',(#164));
#635=EDGE_LOOP('',(#165));
#636=EDGE_LOOP('',(#166,#167,#168,#169,#170,#171,#172,#173));
#637=EDGE_LOOP('',(#174,#175,#176,#177,#178,#179,#180,#181));
#638=EDGE_LOOP('',(#182,#183,#184,#185));
#639=EDGE_LOOP('',(#186,#187,#188,#189));
#640=EDGE_LOOP('',(#190,#191,#192,#193));
#641=EDGE_LOOP('',(#194,#195,#196,#197));
#642=EDGE_LOOP('',(#198,#199,#200,#201));
#643=EDGE_LOOP('',(#202,#203,#204,#205));
#644=EDGE_LOOP('',(#206,#207,#208,#209));
#645=EDGE_LOOP('',(#210,#211,#212,#213));
#646=EDGE_LOOP('',(#214,#215,#216,#217));
#647=EDGE_LOOP('',(#218,#219,#220,#221));
#648=EDGE_LOOP('',(#222,#223,#224,#225));
#649=EDGE_LOOP('',(#226,#227,#228,#229));
#650=EDGE_LOOP('',(#230));
#651=EDGE_LOOP('',(#231));
#652=EDGE_LOOP('',(#232));
#653=EDGE_LOOP('',(#233));
#654=EDGE_LOOP('',(#234));
#655=EDGE_LOOP('',(#235));
#656=EDGE_LOOP('',(#236));
#657=EDGE_LOOP('',(#237));
#658=EDGE_LOOP('',(#238));
#659=EDGE_LOOP('',(#239));
#660=EDGE_LOOP('',(#240));
#661=EDGE_LOOP('',(#241));
#662=EDGE_LOOP('',(#242,#243,#244,#245));
#663=EDGE_LOOP('',(#246,#247,#248,#249));
#664=EDGE_LOOP('',(#250,#251,#252,#253));
#665=EDGE_LOOP('',(#254,#255,#256,#257));
#666=EDGE_LOOP('',(#258,#259,#260,#261));
#667=EDGE_LOOP('',(#262,#263,#264,#265));
#668=EDGE_LOOP('',(#266,#267,#268,#269));
#669=EDGE_LOOP('',(#270,#271,#272,#273));
#670=EDGE_LOOP('',(#274,#275,#276,#277));
#671=EDGE_LOOP('',(#278,#279,#280,#281));
#672=FACE_BOUND('',#610,.T.);
#673=FACE_BOUND('',#611,.T.);
#674=FACE_BOUND('',#612,.T.);
#675=FACE_BOUND('',#613,.T.);
#676=FACE_BOUND('',#614,.T.);
#677=FACE_BOUND('',#615,.T.);
#678=FACE_BOUND('',#616,.T.);
#679=FACE_BOUND('',#617,.T.);
#680=FACE_BOUND('',#618,.T.);
#681=FACE_BOUND('',#619,.T.);
#682=FACE_BOUND('',#620,.T.);
#683=FACE_BOUND('',#621,.T.);
#684=FACE_BOUND('',#622,.T.);
#685=FACE_BOUND('',#623,.T.);
#686=FACE_BOUND('',#624,.T.);
#687=FACE_BOUND('',#625,.T.);
#688=FACE_BOUND('',#626,.T.);
#689=FACE_BOUND('',#627,.T.);
#690=FACE_BOUND('',#628,.T.);
#691=FACE_BOUND('',#629,.T.);
#692=FACE_BOUND('',#630,.T.);
#693=FACE_BOUND('',#631,.T.);
#694=FACE_BOUND('',#632,.T.);
#695=FACE_BOUND('',#633,.T.);
#696=FACE_BOUND('',#634,.T.);
#697=FACE_BOUND('',#635,.T.);
#698=FACE_BOUND('',#636,.T.);
#699=FACE_BOUND('',#637,.T.);
#700=FACE_BOUND('',#638,.T.);
#701=FACE_BOUND('',#639,.T.);
#702=FACE_BOUND('',#640,.T.);
#703=FACE_BOUND('',#641,.T.);
#704=FACE_BOUND('',#642,.T.);
#705=FACE_BOUND('',#643,.T.);
#706=FACE_BOUND('',#644,.T.);
#707=FACE_BOUND('',#645,.T.);
#708=FACE_BOUND('',#646,.T.);
#709=FACE_BOUND('',#647,.T.);
#710=FACE_BOUND('',#648,.T.);
#711=FACE_BOUND('',#649,.T.);
#712=FACE_BOUND('',#650,.T.);
#713=FACE_BOUND('',#651,.T.);
#714=FACE_BOUND('',#652,.T.);
#715=FACE_BOUND('',#653,.T.);
#716=FACE_BOUND('',#654,.T.);
#717=FACE_BOUND('',#655,.T.);
#718=FACE_BOUND('',#656,.T.);
#719=FACE_BOUND('',#657,.T.);
#720=FACE_BOUND('',#658,.T.);
#721=FACE_BOUND('',#659,.T.);
#722=FACE_BOUND('',#660,.T.);
#723=FACE_BOUND('',#661,.T.);
#724=FACE_BOUND('',#662,.T.);
#725=FACE_BOUND('',#663,.T.);
#726=FACE_BOUND('',#664,.T.);
#727=FACE_BOUND('',#665,.T.);
#728=FACE_BOUND('',#666,.T.);
#729=FACE_BOUND('',#667,.T.);
#730=FACE_BOUND('',#668,.T.);
#731=FACE_BOUND('',#669,.T.);
#732=FACE_BOUND('',#670,.T.);
#733=FACE_BOUND('',#671,.T.);
#734=PLANE('',#811);
#735=PLANE('',#812);
#736=PLANE('',#813);
#737=PLANE('',#824);
#738=PLANE('',#839);
#739=PLANE('',#842);
#740=PLANE('',#845);
#741=PLANE('',#848);
#742=PLANE('',#851);
#743=PLANE('',#860);
#744=PLANE('',#862);
#745=PLANE('',#864);
#746=PLANE('',#866);
#747=PLANE('',#868);
#748=PLANE('',#869);
#749=PLANE('',#870);
#750=PLANE('',#871);
#751=PLANE('',#878);
#752=PLANE('',#879);
#753=PLANE('',#880);
#754=PLANE('',#881);
#755=PLANE('',#882);
#756=PLANE('',#883);
#757=ADVANCED_FACE('',(#672),#734,.F.);
#758=ADVANCED_FACE('',(#673),#735,.T.);
#759=ADVANCED_FACE('',(#674,#675,#676,#677),#736,.F.);
#760=ADVANCED_FACE('',(#678,#679,#680,#681,#682,#683,#684,#685),#737,.T.);
#761=ADVANCED_FACE('',(#686),#738,.F.);
#762=ADVANCED_FACE('',(#687),#16,.T.);
#763=ADVANCED_FACE('',(#688),#739,.T.);
#764=ADVANCED_FACE('',(#689),#17,.T.);
#765=ADVANCED_FACE('',(#690),#740,.T.);
#766=ADVANCED_FACE('',(#691),#18,.T.);
#767=ADVANCED_FACE('',(#692),#741,.F.);
#768=ADVANCED_FACE('',(#693),#19,.T.);
#769=ADVANCED_FACE('',(#694,#695,#696,#697,#698,#699),#742,.F.);
#770=ADVANCED_FACE('',(#700),#743,.F.);
#771=ADVANCED_FACE('',(#701),#20,.T.);
#772=ADVANCED_FACE('',(#702),#744,.T.);
#773=ADVANCED_FACE('',(#703),#21,.T.);
#774=ADVANCED_FACE('',(#704),#745,.T.);
#775=ADVANCED_FACE('',(#705),#22,.T.);
#776=ADVANCED_FACE('',(#706),#746,.F.);
#777=ADVANCED_FACE('',(#707),#23,.T.);
#778=ADVANCED_FACE('',(#708),#747,.T.);
#779=ADVANCED_FACE('',(#709),#748,.F.);
#780=ADVANCED_FACE('',(#710),#749,.F.);
#781=ADVANCED_FACE('',(#711),#750,.T.);
#782=ADVANCED_FACE('',(#712,#713),#24,.F.);
#783=ADVANCED_FACE('',(#714,#715),#25,.F.);
#784=ADVANCED_FACE('',(#716,#717),#12,.F.);
#785=ADVANCED_FACE('',(#718,#719),#13,.F.);
#786=ADVANCED_FACE('',(#720,#721),#14,.F.);
#787=ADVANCED_FACE('',(#722,#723),#15,.F.);
#788=ADVANCED_FACE('',(#724),#751,.T.);
#789=ADVANCED_FACE('',(#725),#752,.F.);
#790=ADVANCED_FACE('',(#726),#753,.F.);
#791=ADVANCED_FACE('',(#727),#754,.T.);
#792=ADVANCED_FACE('',(#728),#755,.F.);
#793=ADVANCED_FACE('',(#729),#756,.T.);
#794=ADVANCED_FACE('',(#730),#26,.F.);
#795=ADVANCED_FACE('',(#731),#27,.F.);
#796=ADVANCED_FACE('',(#732),#28,.F.);
#797=ADVANCED_FACE('',(#733),#29,.F.);
#798=CLOSED_SHELL('',(#757,#758,#759,#760,#761,#762,#763,#764,#765,#766,
#767,#768,#769,#770,#771,#772,#773,#774,#775,#776,#777,#778,#779,#780,#781,
#782,#783,#784,#785,#786,#787,#788,#789,#790,#791,#792,#793,#794,#795,#796,
#797));
#799=STYLED_ITEM('',(#800),#807);
#800=PRESENTATION_STYLE_ASSIGNMENT((#801));
#801=SURFACE_STYLE_USAGE(.BOTH.,#802);
#802=SURFACE_SIDE_STYLE('',(#803));
#803=SURFACE_STYLE_FILL_AREA(#804);
#804=FILL_AREA_STYLE('',(#805));
#805=FILL_AREA_STYLE_COLOUR('',#806);
#806=COLOUR_RGB('',0.647058823529412,0.647058823529412,0.647058823529412);
#807=MANIFOLD_SOLID_BREP('TYPEC-Mountable Plate',#798);
#808=SHAPE_DEFINITION_REPRESENTATION(#1348,#809);
#809=SHAPE_REPRESENTATION('TYPEC-Mountable Plate',(#810),#1343);
#810=AXIS2_PLACEMENT_3D('',#1116,#888,#889);
#811=AXIS2_PLACEMENT_3D('',#1117,#890,#891);
#812=AXIS2_PLACEMENT_3D('',#1126,#896,#897);
#813=AXIS2_PLACEMENT_3D('',#1135,#902,#903);
#814=AXIS2_PLACEMENT_3D('',#1136,#904,#905);
#815=AXIS2_PLACEMENT_3D('',#1138,#906,#907);
#816=AXIS2_PLACEMENT_3D('',#1143,#909,#910);
#817=AXIS2_PLACEMENT_3D('',#1147,#912,#913);
#818=AXIS2_PLACEMENT_3D('',#1151,#915,#916);
#819=AXIS2_PLACEMENT_3D('',#1155,#918,#919);
#820=AXIS2_PLACEMENT_3D('',#1159,#921,#922);
#821=AXIS2_PLACEMENT_3D('',#1171,#928,#929);
#822=AXIS2_PLACEMENT_3D('',#1175,#931,#932);
#823=AXIS2_PLACEMENT_3D('',#1181,#936,#937);
#824=AXIS2_PLACEMENT_3D('',#1182,#938,#939);
#825=AXIS2_PLACEMENT_3D('',#1194,#945,#946);
#826=AXIS2_PLACEMENT_3D('',#1198,#948,#949);
#827=AXIS2_PLACEMENT_3D('',#1204,#953,#954);
#828=AXIS2_PLACEMENT_3D('',#1208,#956,#957);
#829=AXIS2_PLACEMENT_3D('',#1209,#958,#959);
#830=AXIS2_PLACEMENT_3D('',#1211,#960,#961);
#831=AXIS2_PLACEMENT_3D('',#1213,#962,#963);
#832=AXIS2_PLACEMENT_3D('',#1215,#964,#965);
#833=AXIS2_PLACEMENT_3D('',#1217,#966,#967);
#834=AXIS2_PLACEMENT_3D('',#1219,#968,#969);
#835=AXIS2_PLACEMENT_3D('',#1224,#971,#972);
#836=AXIS2_PLACEMENT_3D('',#1228,#974,#975);
#837=AXIS2_PLACEMENT_3D('',#1232,#977,#978);
#838=AXIS2_PLACEMENT_3D('',#1236,#980,#981);
#839=AXIS2_PLACEMENT_3D('',#1237,#982,#983);
#840=AXIS2_PLACEMENT_3D('',#1243,#987,#988);
#841=AXIS2_PLACEMENT_3D('',#1244,#989,#990);
#842=AXIS2_PLACEMENT_3D('',#1247,#992,#993);
#843=AXIS2_PLACEMENT_3D('',#1251,#996,#997);
#844=AXIS2_PLACEMENT_3D('',#1252,#998,#999);
#845=AXIS2_PLACEMENT_3D('',#1255,#1001,#1002);
#846=AXIS2_PLACEMENT_3D('',#1259,#1005,#1006);
#847=AXIS2_PLACEMENT_3D('',#1260,#1007,#1008);
#848=AXIS2_PLACEMENT_3D('',#1263,#1010,#1011);
#849=AXIS2_PLACEMENT_3D('',#1267,#1014,#1015);
#850=AXIS2_PLACEMENT_3D('',#1268,#1016,#1017);
#851=AXIS2_PLACEMENT_3D('',#1269,#1018,#1019);
#852=AXIS2_PLACEMENT_3D('',#1270,#1020,#1021);
#853=AXIS2_PLACEMENT_3D('',#1272,#1022,#1023);
#854=AXIS2_PLACEMENT_3D('',#1274,#1024,#1025);
#855=AXIS2_PLACEMENT_3D('',#1276,#1026,#1027);
#856=AXIS2_PLACEMENT_3D('',#1281,#1029,#1030);
#857=AXIS2_PLACEMENT_3D('',#1285,#1032,#1033);
#858=AXIS2_PLACEMENT_3D('',#1289,#1035,#1036);
#859=AXIS2_PLACEMENT_3D('',#1293,#1038,#1039);
#860=AXIS2_PLACEMENT_3D('',#1294,#1040,#1041);
#861=AXIS2_PLACEMENT_3D('',#1297,#1044,#1045);
#862=AXIS2_PLACEMENT_3D('',#1299,#1047,#1048);
#863=AXIS2_PLACEMENT_3D('',#1301,#1050,#1051);
#864=AXIS2_PLACEMENT_3D('',#1303,#1053,#1054);
#865=AXIS2_PLACEMENT_3D('',#1305,#1056,#1057);
#866=AXIS2_PLACEMENT_3D('',#1307,#1059,#1060);
#867=AXIS2_PLACEMENT_3D('',#1309,#1062,#1063);
#868=AXIS2_PLACEMENT_3D('',#1310,#1064,#1065);
#869=AXIS2_PLACEMENT_3D('',#1311,#1066,#1067);
#870=AXIS2_PLACEMENT_3D('',#1314,#1070,#1071);
#871=AXIS2_PLACEMENT_3D('',#1316,#1073,#1074);
#872=AXIS2_PLACEMENT_3D('',#1318,#1076,#1077);
#873=AXIS2_PLACEMENT_3D('',#1319,#1078,#1079);
#874=AXIS2_PLACEMENT_3D('',#1320,#1080,#1081);
#875=AXIS2_PLACEMENT_3D('',#1321,#1082,#1083);
#876=AXIS2_PLACEMENT_3D('',#1322,#1084,#1085);
#877=AXIS2_PLACEMENT_3D('',#1323,#1086,#1087);
#878=AXIS2_PLACEMENT_3D('',#1324,#1088,#1089);
#879=AXIS2_PLACEMENT_3D('',#1326,#1091,#1092);
#880=AXIS2_PLACEMENT_3D('',#1328,#1094,#1095);
#881=AXIS2_PLACEMENT_3D('',#1331,#1098,#1099);
#882=AXIS2_PLACEMENT_3D('',#1334,#1102,#1103);
#883=AXIS2_PLACEMENT_3D('',#1336,#1105,#1106);
#884=AXIS2_PLACEMENT_3D('',#1338,#1108,#1109);
#885=AXIS2_PLACEMENT_3D('',#1339,#1110,#1111);
#886=AXIS2_PLACEMENT_3D('',#1340,#1112,#1113);
#887=AXIS2_PLACEMENT_3D('',#1341,#1114,#1115);
#888=DIRECTION('',(0.,0.,1.));
#889=DIRECTION('',(1.,0.,0.));
#890=DIRECTION('',(-1.,-1.85037170770859E-16,0.));
#891=DIRECTION('',(1.85037170770859E-16,-1.,0.));
#892=DIRECTION('',(-1.85037170770859E-16,1.,0.));
#893=DIRECTION('',(0.,0.,1.));
#894=DIRECTION('',(-1.85037170770859E-16,1.,0.));
#895=DIRECTION('',(0.,0.,1.));
#896=DIRECTION('',(-1.,-1.85037170770859E-16,0.));
#897=DIRECTION('',(1.85037170770859E-16,-1.,0.));
#898=DIRECTION('',(0.,0.,1.));
#899=DIRECTION('',(-1.85037170770859E-16,1.,0.));
#900=DIRECTION('',(0.,0.,1.));
#901=DIRECTION('',(-1.85037170770859E-16,1.,0.));
#902=DIRECTION('',(-1.85037170770859E-16,1.,0.));
#903=DIRECTION('',(-1.,-1.85037170770859E-16,0.));
#904=DIRECTION('',(-1.85037170770859E-16,1.,0.));
#905=DIRECTION('',(-1.,-1.85037170770859E-16,0.));
#906=DIRECTION('',(-1.85037170770859E-16,1.,0.));
#907=DIRECTION('',(-1.,-1.85037170770859E-16,0.));
#908=DIRECTION('',(0.,0.,-1.));
#909=DIRECTION('',(-1.85037170770859E-16,1.,0.));
#910=DIRECTION('',(-1.,-1.85037170770859E-16,0.));
#911=DIRECTION('',(1.,1.85037170770859E-16,1.54197642309049E-16));
#912=DIRECTION('',(-1.85037170770859E-16,1.,0.));
#913=DIRECTION('',(-1.,-1.85037170770859E-16,0.));
#914=DIRECTION('',(0.,0.,-1.));
#915=DIRECTION('',(-1.85037170770859E-16,1.,0.));
#916=DIRECTION('',(-1.,-1.85037170770859E-16,0.));
#917=DIRECTION('',(1.,1.85037170770859E-16,0.));
#918=DIRECTION('',(-1.85037170770859E-16,1.,0.));
#919=DIRECTION('',(-1.,-1.85037170770859E-16,0.));
#920=DIRECTION('',(0.,0.,-1.));
#921=DIRECTION('',(-1.85037170770859E-16,1.,0.));
#922=DIRECTION('',(-1.,-1.85037170770859E-16,0.));
#923=DIRECTION('',(1.,1.85037170770859E-16,0.));
#924=DIRECTION('',(0.,0.,1.));
#925=DIRECTION('',(1.,1.85037170770859E-16,0.));
#926=DIRECTION('',(0.,0.,1.));
#927=DIRECTION('',(1.,1.85037170770859E-16,0.));
#928=DIRECTION('',(-1.85037170770859E-16,1.,0.));
#929=DIRECTION('',(-1.,-1.85037170770859E-16,0.));
#930=DIRECTION('',(0.,0.,-1.));
#931=DIRECTION('',(-1.85037170770859E-16,1.,0.));
#932=DIRECTION('',(-1.,-1.85037170770859E-16,0.));
#933=DIRECTION('',(1.,1.85037170770859E-16,0.));
#934=DIRECTION('',(1.,1.85037170770859E-16,0.));
#935=DIRECTION('',(1.,1.85037170770859E-16,0.));
#936=DIRECTION('',(-1.85037170770859E-16,1.,0.));
#937=DIRECTION('',(-1.,-1.85037170770859E-16,0.));
#938=DIRECTION('',(-1.85037170770859E-16,1.,0.));
#939=DIRECTION('',(-1.,-1.85037170770859E-16,0.));
#940=DIRECTION('',(1.,1.85037170770859E-16,0.));
#941=DIRECTION('',(0.,0.,1.));
#942=DIRECTION('',(1.,1.85037170770859E-16,0.));
#943=DIRECTION('',(0.,0.,1.));
#944=DIRECTION('',(1.,1.85037170770859E-16,0.));
#945=DIRECTION('',(-1.85037170770859E-16,1.,0.));
#946=DIRECTION('',(-1.,-1.85037170770859E-16,0.));
#947=DIRECTION('',(0.,0.,-1.));
#948=DIRECTION('',(-1.85037170770859E-16,1.,0.));
#949=DIRECTION('',(-1.,-1.85037170770859E-16,0.));
#950=DIRECTION('',(1.,1.85037170770859E-16,0.));
#951=DIRECTION('',(1.,1.85037170770859E-16,0.));
#952=DIRECTION('',(1.,1.85037170770859E-16,0.));
#953=DIRECTION('',(-1.85037170770859E-16,1.,0.));
#954=DIRECTION('',(-1.,-1.85037170770859E-16,0.));
#955=DIRECTION('',(0.,0.,-1.));
#956=DIRECTION('',(-1.85037170770859E-16,1.,0.));
#957=DIRECTION('',(-1.,-1.85037170770859E-16,0.));
#958=DIRECTION('',(-1.85037170770859E-16,1.,0.));
#959=DIRECTION('',(-1.,-1.85037170770859E-16,0.));
#960=DIRECTION('',(-1.85037170770859E-16,1.,0.));
#961=DIRECTION('',(-1.,-1.85037170770859E-16,0.));
#962=DIRECTION('',(-1.85037170770859E-16,1.,0.));
#963=DIRECTION('',(-1.,-1.85037170770859E-16,0.));
#964=DIRECTION('',(-1.85037170770859E-16,1.,0.));
#965=DIRECTION('',(-1.,-1.85037170770859E-16,0.));
#966=DIRECTION('',(-1.85037170770859E-16,1.,0.));
#967=DIRECTION('',(-1.,-1.85037170770859E-16,0.));
#968=DIRECTION('',(-1.85037170770859E-16,1.,0.));
#969=DIRECTION('',(-1.,-1.85037170770859E-16,0.));
#970=DIRECTION('',(0.,0.,-1.));
#971=DIRECTION('',(-1.85037170770859E-16,1.,0.));
#972=DIRECTION('',(-1.,-1.85037170770859E-16,0.));
#973=DIRECTION('',(1.,1.85037170770859E-16,-1.32169407693471E-16));
#974=DIRECTION('',(-1.85037170770859E-16,1.,0.));
#975=DIRECTION('',(-1.,-1.85037170770859E-16,0.));
#976=DIRECTION('',(0.,0.,-1.));
#977=DIRECTION('',(-1.85037170770859E-16,1.,0.));
#978=DIRECTION('',(-1.,-1.85037170770859E-16,0.));
#979=DIRECTION('',(1.,1.85037170770859E-16,0.));
#980=DIRECTION('',(-1.85037170770859E-16,1.,0.));
#981=DIRECTION('',(-1.,-1.85037170770859E-16,0.));
#982=DIRECTION('',(1.,1.85037170770859E-16,0.));
#983=DIRECTION('',(-1.85037170770859E-16,1.,0.));
#984=DIRECTION('',(0.,0.,-1.));
#985=DIRECTION('',(-1.85037170770859E-16,1.,0.));
#986=DIRECTION('',(-1.85037170770859E-16,1.,0.));
#987=DIRECTION('',(-1.85037170770859E-16,1.,0.));
#988=DIRECTION('',(-1.,-1.85037170770859E-16,0.));
#989=DIRECTION('',(-1.85037170770859E-16,1.,0.));
#990=DIRECTION('',(-1.,-1.85037170770859E-16,0.));
#991=DIRECTION('',(-1.85037170770859E-16,1.,0.));
#992=DIRECTION('',(0.,0.,1.));
#993=DIRECTION('',(1.,0.,0.));
#994=DIRECTION('',(1.,1.85037170770859E-16,0.));
#995=DIRECTION('',(-1.85037170770859E-16,1.,0.));
#996=DIRECTION('',(-1.85037170770859E-16,1.,0.));
#997=DIRECTION('',(-1.,-1.85037170770859E-16,0.));
#998=DIRECTION('',(-1.85037170770859E-16,1.,0.));
#999=DIRECTION('',(-1.,-1.85037170770859E-16,0.));
#1000=DIRECTION('',(-1.85037170770859E-16,1.,0.));
#1001=DIRECTION('',(1.,1.85037170770859E-16,0.));
#1002=DIRECTION('',(-1.85037170770859E-16,1.,0.));
#1003=DIRECTION('',(0.,0.,-1.));
#1004=DIRECTION('',(-1.85037170770859E-16,1.,0.));
#1005=DIRECTION('',(-1.85037170770859E-16,1.,0.));
#1006=DIRECTION('',(-1.,-1.85037170770859E-16,0.));
#1007=DIRECTION('',(-1.85037170770859E-16,1.,0.));
#1008=DIRECTION('',(-1.,-1.85037170770859E-16,0.));
#1009=DIRECTION('',(-1.85037170770859E-16,1.,0.));
#1010=DIRECTION('',(-1.54197642309049E-16,-2.85322954724035E-32,1.));
#1011=DIRECTION('',(1.,0.,1.54197642309049E-16));
#1012=DIRECTION('',(1.,1.85037170770859E-16,1.54197642309049E-16));
#1013=DIRECTION('',(-1.85037170770859E-16,1.,0.));
#1014=DIRECTION('',(-1.85037170770859E-16,1.,0.));
#1015=DIRECTION('',(-1.,-1.85037170770859E-16,0.));
#1016=DIRECTION('',(-1.85037170770859E-16,1.,0.));
#1017=DIRECTION('',(-1.,-1.85037170770859E-16,0.));
#1018=DIRECTION('',(-1.85037170770859E-16,1.,0.));
#1019=DIRECTION('',(-1.,-1.85037170770859E-16,0.));
#1020=DIRECTION('',(-1.85037170770859E-16,1.,0.));
#1021=DIRECTION('',(-1.,-1.85037170770859E-16,0.));
#1022=DIRECTION('',(-1.85037170770859E-16,1.,0.));
#1023=DIRECTION('',(-1.,-1.85037170770859E-16,0.));
#1024=DIRECTION('',(-1.85037170770859E-16,1.,0.));
#1025=DIRECTION('',(-1.,-1.85037170770859E-16,0.));
#1026=DIRECTION('',(-1.85037170770859E-16,1.,0.));
#1027=DIRECTION('',(-1.,-1.85037170770859E-16,0.));
#1028=DIRECTION('',(0.,0.,-1.));
#1029=DIRECTION('',(-1.85037170770859E-16,1.,0.));
#1030=DIRECTION('',(-1.,-1.85037170770859E-16,0.));
#1031=DIRECTION('',(1.,1.85037170770859E-16,0.));
#1032=DIRECTION('',(-1.85037170770859E-16,1.,0.));
#1033=DIRECTION('',(-1.,-1.85037170770859E-16,0.));
#1034=DIRECTION('',(0.,0.,-1.));
#1035=DIRECTION('',(-1.85037170770859E-16,1.,0.));
#1036=DIRECTION('',(-1.,-1.85037170770859E-16,0.));
#1037=DIRECTION('',(1.,1.85037170770859E-16,-1.32169407693471E-16));
#1038=DIRECTION('',(-1.85037170770859E-16,1.,0.));
#1039=DIRECTION('',(-1.,-1.85037170770859E-16,0.));
#1040=DIRECTION('',(-1.,-1.85037170770859E-16,0.));
#1041=DIRECTION('',(1.85037170770859E-16,-1.,0.));
#1042=DIRECTION('',(1.85037170770859E-16,-1.,0.));
#1043=DIRECTION('',(1.85037170770859E-16,-1.,0.));
#1044=DIRECTION('',(1.85037170770859E-16,-1.,0.));
#1045=DIRECTION('',(1.,1.85037170770859E-16,0.));
#1046=DIRECTION('',(1.85037170770859E-16,-1.,0.));
#1047=DIRECTION('',(-1.32169407693471E-16,-2.44562532620601E-32,-1.));
#1048=DIRECTION('',(-1.,0.,1.32169407693471E-16));
#1049=DIRECTION('',(1.85037170770859E-16,-1.,0.));
#1050=DIRECTION('',(1.85037170770859E-16,-1.,0.));
#1051=DIRECTION('',(1.,1.85037170770859E-16,0.));
#1052=DIRECTION('',(1.85037170770859E-16,-1.,0.));
#1053=DIRECTION('',(-1.,-1.85037170770859E-16,0.));
#1054=DIRECTION('',(1.85037170770859E-16,-1.,0.));
#1055=DIRECTION('',(1.85037170770859E-16,-1.,0.));
#1056=DIRECTION('',(1.85037170770859E-16,-1.,0.));
#1057=DIRECTION('',(1.,1.85037170770859E-16,0.));
#1058=DIRECTION('',(1.85037170770859E-16,-1.,0.));
#1059=DIRECTION('',(0.,0.,-1.));
#1060=DIRECTION('',(-1.,0.,0.));
#1061=DIRECTION('',(1.85037170770859E-16,-1.,0.));
#1062=DIRECTION('',(1.85037170770859E-16,-1.,0.));
#1063=DIRECTION('',(1.,1.85037170770859E-16,0.));
#1064=DIRECTION('',(0.,0.,1.));
#1065=DIRECTION('',(1.,0.,0.));
#1066=DIRECTION('',(-1.,-1.85037170770859E-16,0.));
#1067=DIRECTION('',(1.85037170770859E-16,-1.,0.));
#1068=DIRECTION('',(-1.85037170770859E-16,1.,0.));
#1069=DIRECTION('',(-1.85037170770859E-16,1.,0.));
#1070=DIRECTION('',(0.,0.,1.));
#1071=DIRECTION('',(1.,0.,0.));
#1072=DIRECTION('',(-1.85037170770859E-16,1.,0.));
#1073=DIRECTION('',(-1.,-1.85037170770859E-16,0.));
#1074=DIRECTION('',(1.85037170770859E-16,-1.,0.));
#1075=DIRECTION('',(-1.85037170770859E-16,1.,0.));
#1076=DIRECTION('',(-1.85037170770859E-16,1.,0.));
#1077=DIRECTION('',(-1.,-1.85037170770859E-16,0.));
#1078=DIRECTION('',(-1.85037170770859E-16,1.,0.));
#1079=DIRECTION('',(-1.,-1.85037170770859E-16,0.));
#1080=DIRECTION('',(0.,1.,0.));
#1081=DIRECTION('',(0.,0.,1.));
#1082=DIRECTION('',(0.,1.,0.));
#1083=DIRECTION('',(0.,0.,1.));
#1084=DIRECTION('',(0.,1.,0.));
#1085=DIRECTION('',(0.,0.,1.));
#1086=DIRECTION('',(0.,1.,0.));
#1087=DIRECTION('',(0.,0.,1.));
#1088=DIRECTION('',(0.,0.,1.));
#1089=DIRECTION('',(1.,0.,0.));
#1090=DIRECTION('',(-1.85037170770859E-16,1.,0.));
#1091=DIRECTION('',(0.,0.,1.));
#1092=DIRECTION('',(1.,0.,0.));
#1093=DIRECTION('',(-1.85037170770859E-16,1.,0.));
#1094=DIRECTION('',(1.,1.85037170770859E-16,0.));
#1095=DIRECTION('',(-1.85037170770859E-16,1.,0.));
#1096=DIRECTION('',(-1.85037170770859E-16,1.,0.));
#1097=DIRECTION('',(-1.85037170770859E-16,1.,0.));
#1098=DIRECTION('',(1.,1.85037170770859E-16,0.));
#1099=DIRECTION('',(-1.85037170770859E-16,1.,0.));
#1100=DIRECTION('',(-1.85037170770859E-16,1.,0.));
#1101=DIRECTION('',(-1.85037170770859E-16,1.,0.));
#1102=DIRECTION('',(0.,0.,1.));
#1103=DIRECTION('',(1.,0.,0.));
#1104=DIRECTION('',(-1.85037170770859E-16,1.,0.));
#1105=DIRECTION('',(0.,0.,1.));
#1106=DIRECTION('',(1.,0.,0.));
#1107=DIRECTION('',(-1.85037170770859E-16,1.,0.));
#1108=DIRECTION('',(-1.85037170770859E-16,1.,0.));
#1109=DIRECTION('',(-1.,-1.85037170770859E-16,0.));
#1110=DIRECTION('',(1.85037170770859E-16,-1.,0.));
#1111=DIRECTION('',(1.,1.85037170770859E-16,0.));
#1112=DIRECTION('',(-1.85037170770859E-16,1.,0.));
#1113=DIRECTION('',(-1.,-1.85037170770859E-16,0.));
#1114=DIRECTION('',(1.85037170770859E-16,-1.,0.));
#1115=DIRECTION('',(1.,1.85037170770859E-16,0.));
#1116=CARTESIAN_POINT('',(0.,0.,0.));
#1117=CARTESIAN_POINT('',(-0.00865,0.052,0.075));
#1118=CARTESIAN_POINT('',(-0.00865,0.052,0.072));
#1119=CARTESIAN_POINT('',(-0.00865,0.065,0.072));
#1120=CARTESIAN_POINT('',(-0.00865,0.077,0.072));
#1121=CARTESIAN_POINT('',(-0.00865,0.065,0.075));
#1122=CARTESIAN_POINT('',(-0.00865,0.065,0.0635));
#1123=CARTESIAN_POINT('',(-0.00865,0.052,0.0635));
#1124=CARTESIAN_POINT('',(-0.00865,0.077,0.0635));
#1125=CARTESIAN_POINT('',(-0.00865,0.077,0.075));
#1126=CARTESIAN_POINT('',(0.00865,0.052,0.075));
#1127=CARTESIAN_POINT('',(0.00865,0.065,0.075));
#1128=CARTESIAN_POINT('',(0.00865,0.065,0.0635));
#1129=CARTESIAN_POINT('',(0.00865,0.065,0.072));
#1130=CARTESIAN_POINT('',(0.00865,0.052,0.072));
#1131=CARTESIAN_POINT('',(0.00865,0.077,0.072));
#1132=CARTESIAN_POINT('',(0.00865,0.077,0.075));
#1133=CARTESIAN_POINT('',(0.00865,0.077,0.0635));
#1134=CARTESIAN_POINT('',(0.00865,0.052,0.0635));
#1135=CARTESIAN_POINT('',(1.5728159515523E-17,0.065,0.075));
#1136=CARTESIAN_POINT('',(-4.93528828915402E-18,0.065,0.0605));
#1137=CARTESIAN_POINT('',(-0.00135000000000001,0.065,0.0605));
#1138=CARTESIAN_POINT('',(-7.10369263412503E-18,0.065,0.0895));
#1139=CARTESIAN_POINT('',(-0.00135000000000001,0.065,0.0895));
#1140=CARTESIAN_POINT('',(-0.0546,0.065,0.07));
#1141=CARTESIAN_POINT('',(-0.0546,0.065,0.085));
#1142=CARTESIAN_POINT('',(-0.0546,0.065,0.065));
#1143=CARTESIAN_POINT('',(-0.045,0.065,0.065));
#1144=CARTESIAN_POINT('',(-0.045,0.065,0.0554));
#1145=CARTESIAN_POINT('',(-1.20274161001059E-17,0.065,0.0554));
#1146=CARTESIAN_POINT('',(0.045,0.065,0.0554));
#1147=CARTESIAN_POINT('',(0.045,0.065,0.065));
#1148=CARTESIAN_POINT('',(0.0546,0.065,0.065));
#1149=CARTESIAN_POINT('',(0.0546,0.065,0.075));
#1150=CARTESIAN_POINT('',(0.0546,0.065,0.085));
#1151=CARTESIAN_POINT('',(0.045,0.065,0.085));
#1152=CARTESIAN_POINT('',(0.045,0.065,0.0946));
#1153=CARTESIAN_POINT('',(0.0225,0.065,0.0946));
#1154=CARTESIAN_POINT('',(-0.045,0.065,0.0946));
#1155=CARTESIAN_POINT('',(-0.045,0.065,0.085));
#1156=CARTESIAN_POINT('',(-0.0175,0.065,0.075));
#1157=CARTESIAN_POINT('',(-0.0175,0.065,0.076));
#1158=CARTESIAN_POINT('',(-0.0175,0.065,0.074));
#1159=CARTESIAN_POINT('',(-0.0155,0.065,0.076));
#1160=CARTESIAN_POINT('',(-0.0155,0.065,0.078));
#1161=CARTESIAN_POINT('',(1.5728159515523E-17,0.065,0.078));
#1162=CARTESIAN_POINT('',(-0.00865,0.065,0.078));
#1163=CARTESIAN_POINT('',(-0.00865,0.065,0.075));
#1164=CARTESIAN_POINT('',(-0.00865,0.065,0.0865));
#1165=CARTESIAN_POINT('',(1.5728159515523E-17,0.065,0.0865));
#1166=CARTESIAN_POINT('',(0.00865,0.065,0.0865));
#1167=CARTESIAN_POINT('',(0.00865,0.065,0.075));
#1168=CARTESIAN_POINT('',(0.00865,0.065,0.078));
#1169=CARTESIAN_POINT('',(1.5728159515523E-17,0.065,0.078));
#1170=CARTESIAN_POINT('',(0.0155,0.065,0.078));
#1171=CARTESIAN_POINT('',(0.0155,0.065,0.076));
#1172=CARTESIAN_POINT('',(0.0175,0.065,0.076));
#1173=CARTESIAN_POINT('',(0.0175,0.065,0.075));
#1174=CARTESIAN_POINT('',(0.0175,0.065,0.074));
#1175=CARTESIAN_POINT('',(0.0155,0.065,0.074));
#1176=CARTESIAN_POINT('',(0.0155,0.065,0.072));
#1177=CARTESIAN_POINT('',(1.5728159515523E-17,0.065,0.072));
#1178=CARTESIAN_POINT('',(1.5728159515523E-17,0.065,0.0635));
#1179=CARTESIAN_POINT('',(1.5728159515523E-17,0.065,0.072));
#1180=CARTESIAN_POINT('',(-0.0155,0.065,0.072));
#1181=CARTESIAN_POINT('',(-0.0155,0.065,0.074));
#1182=CARTESIAN_POINT('',(-1.42478621493562E-17,0.077,0.075));
#1183=CARTESIAN_POINT('',(-1.38777878078145E-17,0.077,0.078));
#1184=CARTESIAN_POINT('',(0.00865,0.077,0.078));
#1185=CARTESIAN_POINT('',(0.0155,0.077,0.078));
#1186=CARTESIAN_POINT('',(0.00865,0.077,0.075));
#1187=CARTESIAN_POINT('',(0.00865,0.077,0.0865));
#1188=CARTESIAN_POINT('',(-1.38777878078145E-17,0.077,0.0865));
#1189=CARTESIAN_POINT('',(-0.00865,0.077,0.0865));
#1190=CARTESIAN_POINT('',(-0.00865,0.077,0.075));
#1191=CARTESIAN_POINT('',(-0.00865,0.077,0.078));
#1192=CARTESIAN_POINT('',(-1.38777878078145E-17,0.077,0.078));
#1193=CARTESIAN_POINT('',(-0.0155,0.077,0.078));
#1194=CARTESIAN_POINT('',(-0.0155,0.077,0.076));
#1195=CARTESIAN_POINT('',(-0.0175,0.077,0.076));
#1196=CARTESIAN_POINT('',(-0.0175,0.077,0.075));
#1197=CARTESIAN_POINT('',(-0.0175,0.077,0.074));
#1198=CARTESIAN_POINT('',(-0.0155,0.077,0.074));
#1199=CARTESIAN_POINT('',(-0.0155,0.077,0.072));
#1200=CARTESIAN_POINT('',(-1.7347234759768E-17,0.077,0.072));
#1201=CARTESIAN_POINT('',(-1.38777878078145E-17,0.077,0.0635));
#1202=CARTESIAN_POINT('',(-1.7347234759768E-17,0.077,0.072));
#1203=CARTESIAN_POINT('',(0.0155,0.077,0.072));
#1204=CARTESIAN_POINT('',(0.0155,0.077,0.074));
#1205=CARTESIAN_POINT('',(0.0175,0.077,0.074));
#1206=CARTESIAN_POINT('',(0.0175,0.077,0.075));
#1207=CARTESIAN_POINT('',(0.0175,0.077,0.076));
#1208=CARTESIAN_POINT('',(0.0155,0.077,0.076));
#1209=CARTESIAN_POINT('',(-0.0560355339059328,0.077,0.0539644660940673));
#1210=CARTESIAN_POINT('',(-0.0601355339059328,0.077,0.0539644660940673));
#1211=CARTESIAN_POINT('',(-0.0560355339059328,0.077,0.0960355339059328));
#1212=CARTESIAN_POINT('',(-0.0601355339059328,0.077,0.0960355339059328));
#1213=CARTESIAN_POINT('',(0.0560355339059327,0.077,0.0539644660940672));
#1214=CARTESIAN_POINT('',(0.0519355339059327,0.077,0.0539644660940672));
#1215=CARTESIAN_POINT('',(0.0560355339059327,0.077,0.0960355339059328));
#1216=CARTESIAN_POINT('',(0.0519355339059327,0.077,0.0960355339059328));
#1217=CARTESIAN_POINT('',(-7.15573433840433E-18,0.077,0.0605));
#1218=CARTESIAN_POINT('',(-0.00135000000000001,0.077,0.0605));
#1219=CARTESIAN_POINT('',(-9.32413868337534E-18,0.077,0.0895));
#1220=CARTESIAN_POINT('',(-0.00135000000000001,0.077,0.0895));
#1221=CARTESIAN_POINT('',(0.0625,0.077,0.075));
#1222=CARTESIAN_POINT('',(0.0625,0.077,0.0925));
#1223=CARTESIAN_POINT('',(0.0625,0.077,0.0575));
#1224=CARTESIAN_POINT('',(0.0525,0.077,0.0575));
#1225=CARTESIAN_POINT('',(0.0525,0.077,0.0475));
#1226=CARTESIAN_POINT('',(-7.30896824544895E-18,0.077,0.0475));
#1227=CARTESIAN_POINT('',(-0.0525,0.077,0.0475));
#1228=CARTESIAN_POINT('',(-0.0525,0.077,0.0575));
#1229=CARTESIAN_POINT('',(-0.0625,0.077,0.0575));
#1230=CARTESIAN_POINT('',(-0.0625,0.077,0.075));
#1231=CARTESIAN_POINT('',(-0.0625,0.077,0.0925));
#1232=CARTESIAN_POINT('',(-0.0525,0.077,0.0925));
#1233=CARTESIAN_POINT('',(-0.0525,0.077,0.1025));
#1234=CARTESIAN_POINT('',(-7.30896824544895E-18,0.077,0.1025));
#1235=CARTESIAN_POINT('',(0.0525,0.077,0.1025));
#1236=CARTESIAN_POINT('',(0.0525,0.077,0.0925));
#1237=CARTESIAN_POINT('',(-0.0546,0.065,0.07));
#1238=CARTESIAN_POINT('',(-0.0546,0.075,0.07));
#1239=CARTESIAN_POINT('',(-0.0546,0.075,0.085));
#1240=CARTESIAN_POINT('',(-0.0546,0.075,0.065));
#1241=CARTESIAN_POINT('',(-0.0546,0.065,0.065));
#1242=CARTESIAN_POINT('',(-0.0546,0.065,0.085));
#1243=CARTESIAN_POINT('',(-0.045,0.065,0.085));
#1244=CARTESIAN_POINT('',(-0.045,0.075,0.085));
#1245=CARTESIAN_POINT('',(-0.045,0.075,0.0946));
#1246=CARTESIAN_POINT('',(-0.045,0.065,0.0946));
#1247=CARTESIAN_POINT('',(0.0225,0.065,0.0946));
#1248=CARTESIAN_POINT('',(0.0225,0.075,0.0946));
#1249=CARTESIAN_POINT('',(0.045,0.075,0.0946));
#1250=CARTESIAN_POINT('',(0.045,0.065,0.0946));
#1251=CARTESIAN_POINT('',(0.045,0.065,0.085));
#1252=CARTESIAN_POINT('',(0.045,0.075,0.085));
#1253=CARTESIAN_POINT('',(0.0546,0.075,0.085));
#1254=CARTESIAN_POINT('',(0.0546,0.065,0.085));
#1255=CARTESIAN_POINT('',(0.0546,0.065,0.075));
#1256=CARTESIAN_POINT('',(0.0546,0.075,0.075));
#1257=CARTESIAN_POINT('',(0.0546,0.075,0.065));
#1258=CARTESIAN_POINT('',(0.0546,0.065,0.065));
#1259=CARTESIAN_POINT('',(0.045,0.065,0.065));
#1260=CARTESIAN_POINT('',(0.045,0.075,0.065));
#1261=CARTESIAN_POINT('',(0.045,0.075,0.0554));
#1262=CARTESIAN_POINT('',(0.045,0.065,0.0554));
#1263=CARTESIAN_POINT('',(-1.20274161001059E-17,0.065,0.0554));
#1264=CARTESIAN_POINT('',(-1.38777878078145E-17,0.075,0.0554));
#1265=CARTESIAN_POINT('',(-0.045,0.075,0.0554));
#1266=CARTESIAN_POINT('',(-0.045,0.065,0.0554));
#1267=CARTESIAN_POINT('',(-0.045,0.065,0.065));
#1268=CARTESIAN_POINT('',(-0.045,0.075,0.065));
#1269=CARTESIAN_POINT('',(-1.38777878078145E-17,0.075,0.075));
#1270=CARTESIAN_POINT('',(0.0560355339059327,0.075,0.0539644660940672));
#1271=CARTESIAN_POINT('',(0.0539355339059327,0.075,0.0539644660940672));
#1272=CARTESIAN_POINT('',(-0.0560355339059328,0.075,0.0960355339059328));
#1273=CARTESIAN_POINT('',(-0.0581355339059328,0.075,0.0960355339059328));
#1274=CARTESIAN_POINT('',(-0.0560355339059328,0.075,0.0539644660940673));
#1275=CARTESIAN_POINT('',(-0.0581355339059328,0.075,0.0539644660940673));
#1276=CARTESIAN_POINT('',(0.0560355339059327,0.075,0.0960355339059328));
#1277=CARTESIAN_POINT('',(0.0539355339059327,0.075,0.0960355339059328));
#1278=CARTESIAN_POINT('',(0.0625,0.075,0.075));
#1279=CARTESIAN_POINT('',(0.0625,0.075,0.0925));
#1280=CARTESIAN_POINT('',(0.0625,0.075,0.0575));
#1281=CARTESIAN_POINT('',(0.0525,0.075,0.0925));
#1282=CARTESIAN_POINT('',(0.0525,0.075,0.1025));
#1283=CARTESIAN_POINT('',(-6.93889390390723E-18,0.075,0.1025));
#1284=CARTESIAN_POINT('',(-0.0525,0.075,0.1025));
#1285=CARTESIAN_POINT('',(-0.0525,0.075,0.0925));
#1286=CARTESIAN_POINT('',(-0.0625,0.075,0.0925));
#1287=CARTESIAN_POINT('',(-0.0625,0.075,0.075));
#1288=CARTESIAN_POINT('',(-0.0625,0.075,0.0575));
#1289=CARTESIAN_POINT('',(-0.0525,0.075,0.0575));
#1290=CARTESIAN_POINT('',(-0.0525,0.075,0.0475));
#1291=CARTESIAN_POINT('',(-6.93889390390723E-18,0.075,0.0475));
#1292=CARTESIAN_POINT('',(0.0525,0.075,0.0475));
#1293=CARTESIAN_POINT('',(0.0525,0.075,0.0575));
#1294=CARTESIAN_POINT('',(0.0625,0.077,0.075));
#1295=CARTESIAN_POINT('',(0.0625,0.077,0.0575));
#1296=CARTESIAN_POINT('',(0.0625,0.077,0.0925));
#1297=CARTESIAN_POINT('',(0.0525,0.077,0.0575));
#1298=CARTESIAN_POINT('',(0.0525,0.077,0.0475));
#1299=CARTESIAN_POINT('',(-7.30896824544895E-18,0.077,0.0475));
#1300=CARTESIAN_POINT('',(-0.0525,0.077,0.0475));
#1301=CARTESIAN_POINT('',(-0.0525,0.077,0.0575));
#1302=CARTESIAN_POINT('',(-0.0625,0.077,0.0575));
#1303=CARTESIAN_POINT('',(-0.0625,0.077,0.075));
#1304=CARTESIAN_POINT('',(-0.0625,0.077,0.0925));
#1305=CARTESIAN_POINT('',(-0.0525,0.077,0.0925));
#1306=CARTESIAN_POINT('',(-0.0525,0.077,0.1025));
#1307=CARTESIAN_POINT('',(-7.30896824544895E-18,0.077,0.1025));
#1308=CARTESIAN_POINT('',(0.0525,0.077,0.1025));
#1309=CARTESIAN_POINT('',(0.0525,0.077,0.0925));
#1310=CARTESIAN_POINT('',(-9.25185853854297E-18,0.052,0.0635));
#1311=CARTESIAN_POINT('',(-0.00865,0.052,0.075));
#1312=CARTESIAN_POINT('',(-0.00865,0.052,0.078));
#1313=CARTESIAN_POINT('',(-0.00865,0.052,0.0865));
#1314=CARTESIAN_POINT('',(-9.25185853854297E-18,0.052,0.0865));
#1315=CARTESIAN_POINT('',(0.00865,0.052,0.0865));
#1316=CARTESIAN_POINT('',(0.00865,0.052,0.075));
#1317=CARTESIAN_POINT('',(0.00865,0.052,0.078));
#1318=CARTESIAN_POINT('',(-4.69820941410385E-18,0.052,0.0895));
#1319=CARTESIAN_POINT('',(-2.52980506913284E-18,0.052,0.0605));
#1320=CARTESIAN_POINT('',(-0.0560355339059328,0.075,0.0539644660940673));
#1321=CARTESIAN_POINT('',(-0.0560355339059328,0.075,0.0960355339059328));
#1322=CARTESIAN_POINT('',(0.0560355339059327,0.075,0.0539644660940672));
#1323=CARTESIAN_POINT('',(0.0560355339059327,0.075,0.0960355339059328));
#1324=CARTESIAN_POINT('',(-1.27213054904966E-17,0.052,0.072));
#1325=CARTESIAN_POINT('',(0.0155,0.052,0.072));
#1326=CARTESIAN_POINT('',(-9.25185853854297E-18,0.052,0.078));
#1327=CARTESIAN_POINT('',(0.0155,0.065,0.078));
#1328=CARTESIAN_POINT('',(0.0175,0.052,0.075));
#1329=CARTESIAN_POINT('',(0.0175,0.052,0.074));
#1330=CARTESIAN_POINT('',(0.0175,0.077,0.076));
#1331=CARTESIAN_POINT('',(-0.0175,0.052,0.075));
#1332=CARTESIAN_POINT('',(-0.0175,0.052,0.076));
#1333=CARTESIAN_POINT('',(-0.0175,0.077,0.074));
#1334=CARTESIAN_POINT('',(-9.25185853854297E-18,0.052,0.078));
#1335=CARTESIAN_POINT('',(-0.0155,0.052,0.078));
#1336=CARTESIAN_POINT('',(-1.27213054904966E-17,0.052,0.072));
#1337=CARTESIAN_POINT('',(-0.0155,0.065,0.072));
#1338=CARTESIAN_POINT('',(-0.0155,0.052,0.076));
#1339=CARTESIAN_POINT('',(-0.0155,0.052,0.074));
#1340=CARTESIAN_POINT('',(0.0155,0.052,0.074));
#1341=CARTESIAN_POINT('',(0.0155,0.052,0.076));
#1342=MECHANICAL_DESIGN_GEOMETRIC_PRESENTATION_REPRESENTATION('',(#799),
#1343);
#1343=(
GEOMETRIC_REPRESENTATION_CONTEXT(3)
GLOBAL_UNCERTAINTY_ASSIGNED_CONTEXT((#1344))
GLOBAL_UNIT_ASSIGNED_CONTEXT((#1347,#1346,#1345))
REPRESENTATION_CONTEXT('TYPEC-Mountable Plate',
'TOP_LEVEL_ASSEMBLY_PART')
);
#1344=UNCERTAINTY_MEASURE_WITH_UNIT(LENGTH_MEASURE(1.E-8),#1347,
'DISTANCE_ACCURACY_VALUE','Maximum Tolerance applied to model');
#1345=(
NAMED_UNIT(*)
SI_UNIT($,.STERADIAN.)
SOLID_ANGLE_UNIT()
);
#1346=(
NAMED_UNIT(*)
PLANE_ANGLE_UNIT()
SI_UNIT($,.RADIAN.)
);
#1347=(
LENGTH_UNIT()
NAMED_UNIT(*)
SI_UNIT($,.METRE.)
);
#1348=PRODUCT_DEFINITION_SHAPE('','',#1349);
#1349=PRODUCT_DEFINITION('','',#1351,#1350);
#1350=PRODUCT_DEFINITION_CONTEXT('',#1357,'design');
#1351=PRODUCT_DEFINITION_FORMATION_WITH_SPECIFIED_SOURCE('','',#1353,
 .NOT_KNOWN.);
#1352=PRODUCT_RELATED_PRODUCT_CATEGORY('','',(#1353));
#1353=PRODUCT('TYPEC-Mountable Plate','TYPEC-Mountable Plate',
'TYPEC-Mountable Plate',(#1355));
#1354=PRODUCT_CATEGORY('','');
#1355=PRODUCT_CONTEXT('',#1357,'mechanical');
#1356=APPLICATION_PROTOCOL_DEFINITION('international standard',
'ap242_managed_model_based_3d_engineering',2011,#1357);
#1357=APPLICATION_CONTEXT('managed model based 3d engineering');
ENDSEC;
END-ISO-10303-21;
