ISO-10303-21;
HEADER;
/* Generated by software containing ST-Developer
 * from STEP Tools, Inc. (www.steptools.com) 
 */
/* OPTION: using custom renumber hook */

FILE_DESCRIPTION(
/* description */ ('STEP AP242',
'CAx-IF Rec.Pracs.---Representation and Presentation of Product Manufa
cturing Information (PMI)---4.0---2014-10-13',
'CAx-IF Rec.Pracs.---3D Tessellated Geometry---0.4---2014-09-14','2;1'),

/* implementation_level */ '2;1');

FILE_NAME(
/* name */ '686b70cc7a9bce062bccd7b9',
/* time_stamp */ '2025-07-07T07:01:33Z',
/* author */ (''),
/* organization */ (''),
/* preprocessor_version */ 'ST-DEVELOPER v20',
/* originating_system */ 'ONSHAPE BY PTC INC, 1.200',
/* authorisation */ '  ');

FILE_SCHEMA (('AP242_MANAGED_MODEL_BASED_3D_ENGINEERING_MIM_LF { 1 0 10303 442 1 1 4 }'));
ENDSEC;

DATA;
#10=SHAPE_REPRESENTATION_RELATIONSHIP('','',#643,#11);
#11=ADVANCED_BREP_SHAPE_REPRESENTATION('',(#641),#1085);
#12=CYLINDRICAL_SURFACE('',#655,0.0675);
#13=CYLINDRICAL_SURFACE('',#676,0.06);
#14=CYLINDRICAL_SURFACE('',#678,0.008);
#15=CYLINDRICAL_SURFACE('',#679,0.008);
#16=CYLINDRICAL_SURFACE('',#680,0.008);
#17=CYLINDRICAL_SURFACE('',#681,0.008);
#18=CYLINDRICAL_SURFACE('',#699,0.002);
#19=CYLINDRICAL_SURFACE('',#700,0.002);
#20=CYLINDRICAL_SURFACE('',#701,0.002);
#21=CYLINDRICAL_SURFACE('',#702,0.002);
#22=CYLINDRICAL_SURFACE('',#703,0.0031);
#23=CYLINDRICAL_SURFACE('',#704,0.0031);
#24=CYLINDRICAL_SURFACE('',#705,0.0031);
#25=CYLINDRICAL_SURFACE('',#706,0.0031);
#26=CYLINDRICAL_SURFACE('',#708,0.01);
#27=CYLINDRICAL_SURFACE('',#710,0.01);
#28=CYLINDRICAL_SURFACE('',#712,0.01);
#29=CYLINDRICAL_SURFACE('',#714,0.01);
#30=CIRCLE('',#646,0.01);
#31=CIRCLE('',#647,0.01);
#32=CIRCLE('',#648,0.01);
#33=CIRCLE('',#649,0.01);
#34=CIRCLE('',#651,0.002);
#35=CIRCLE('',#652,0.002);
#36=CIRCLE('',#653,0.002);
#37=CIRCLE('',#654,0.002);
#38=CIRCLE('',#656,0.0675);
#39=CIRCLE('',#657,0.0675);
#40=CIRCLE('',#659,0.06);
#41=CIRCLE('',#663,0.008);
#42=CIRCLE('',#664,0.008);
#43=CIRCLE('',#665,0.008);
#44=CIRCLE('',#666,0.008);
#45=CIRCLE('',#668,0.0031);
#46=CIRCLE('',#669,0.0031);
#47=CIRCLE('',#670,0.0031);
#48=CIRCLE('',#671,0.0031);
#49=CIRCLE('',#672,0.008);
#50=CIRCLE('',#673,0.008);
#51=CIRCLE('',#674,0.008);
#52=CIRCLE('',#675,0.008);
#53=CIRCLE('',#677,0.06);
#54=CIRCLE('',#685,0.01);
#55=CIRCLE('',#686,0.01);
#56=CIRCLE('',#687,0.01);
#57=CIRCLE('',#688,0.01);
#58=CIRCLE('',#691,0.0031);
#59=CIRCLE('',#692,0.0031);
#60=CIRCLE('',#693,0.0031);
#61=CIRCLE('',#694,0.0031);
#62=CIRCLE('',#695,0.002);
#63=CIRCLE('',#696,0.002);
#64=CIRCLE('',#697,0.002);
#65=CIRCLE('',#698,0.002);
#66=ORIENTED_EDGE('',*,*,#234,.T.);
#67=ORIENTED_EDGE('',*,*,#235,.T.);
#68=ORIENTED_EDGE('',*,*,#236,.F.);
#69=ORIENTED_EDGE('',*,*,#237,.T.);
#70=ORIENTED_EDGE('',*,*,#238,.F.);
#71=ORIENTED_EDGE('',*,*,#239,.F.);
#72=ORIENTED_EDGE('',*,*,#240,.F.);
#73=ORIENTED_EDGE('',*,*,#241,.F.);
#74=ORIENTED_EDGE('',*,*,#242,.F.);
#75=ORIENTED_EDGE('',*,*,#243,.T.);
#76=ORIENTED_EDGE('',*,*,#244,.F.);
#77=ORIENTED_EDGE('',*,*,#245,.T.);
#78=ORIENTED_EDGE('',*,*,#246,.F.);
#79=ORIENTED_EDGE('',*,*,#247,.F.);
#80=ORIENTED_EDGE('',*,*,#248,.F.);
#81=ORIENTED_EDGE('',*,*,#249,.F.);
#82=ORIENTED_EDGE('',*,*,#250,.T.);
#83=ORIENTED_EDGE('',*,*,#251,.F.);
#84=ORIENTED_EDGE('',*,*,#252,.T.);
#85=ORIENTED_EDGE('',*,*,#253,.F.);
#86=ORIENTED_EDGE('',*,*,#254,.F.);
#87=ORIENTED_EDGE('',*,*,#255,.T.);
#88=ORIENTED_EDGE('',*,*,#256,.F.);
#89=ORIENTED_EDGE('',*,*,#257,.F.);
#90=ORIENTED_EDGE('',*,*,#258,.T.);
#91=ORIENTED_EDGE('',*,*,#259,.T.);
#92=ORIENTED_EDGE('',*,*,#260,.T.);
#93=ORIENTED_EDGE('',*,*,#261,.T.);
#94=ORIENTED_EDGE('',*,*,#262,.T.);
#95=ORIENTED_EDGE('',*,*,#263,.F.);
#96=ORIENTED_EDGE('',*,*,#264,.T.);
#97=ORIENTED_EDGE('',*,*,#265,.T.);
#98=ORIENTED_EDGE('',*,*,#266,.T.);
#99=ORIENTED_EDGE('',*,*,#267,.F.);
#100=ORIENTED_EDGE('',*,*,#268,.T.);
#101=ORIENTED_EDGE('',*,*,#236,.T.);
#102=ORIENTED_EDGE('',*,*,#269,.T.);
#103=ORIENTED_EDGE('',*,*,#265,.F.);
#104=ORIENTED_EDGE('',*,*,#270,.T.);
#105=ORIENTED_EDGE('',*,*,#259,.F.);
#106=ORIENTED_EDGE('',*,*,#271,.T.);
#107=ORIENTED_EDGE('',*,*,#263,.T.);
#108=ORIENTED_EDGE('',*,*,#272,.T.);
#109=ORIENTED_EDGE('',*,*,#273,.F.);
#110=ORIENTED_EDGE('',*,*,#274,.F.);
#111=ORIENTED_EDGE('',*,*,#275,.F.);
#112=ORIENTED_EDGE('',*,*,#276,.F.);
#113=ORIENTED_EDGE('',*,*,#254,.T.);
#114=ORIENTED_EDGE('',*,*,#267,.T.);
#115=ORIENTED_EDGE('',*,*,#277,.T.);
#116=ORIENTED_EDGE('',*,*,#234,.F.);
#117=ORIENTED_EDGE('',*,*,#278,.T.);
#118=ORIENTED_EDGE('',*,*,#261,.F.);
#119=ORIENTED_EDGE('',*,*,#279,.T.);
#120=ORIENTED_EDGE('',*,*,#257,.T.);
#121=ORIENTED_EDGE('',*,*,#280,.T.);
#122=ORIENTED_EDGE('',*,*,#281,.T.);
#123=ORIENTED_EDGE('',*,*,#256,.T.);
#124=ORIENTED_EDGE('',*,*,#270,.F.);
#125=ORIENTED_EDGE('',*,*,#268,.F.);
#126=ORIENTED_EDGE('',*,*,#280,.F.);
#127=ORIENTED_EDGE('',*,*,#260,.F.);
#128=ORIENTED_EDGE('',*,*,#271,.F.);
#129=ORIENTED_EDGE('',*,*,#258,.F.);
#130=ORIENTED_EDGE('',*,*,#279,.F.);
#131=ORIENTED_EDGE('',*,*,#264,.F.);
#132=ORIENTED_EDGE('',*,*,#272,.F.);
#133=ORIENTED_EDGE('',*,*,#262,.F.);
#134=ORIENTED_EDGE('',*,*,#278,.F.);
#135=ORIENTED_EDGE('',*,*,#237,.F.);
#136=ORIENTED_EDGE('',*,*,#269,.F.);
#137=ORIENTED_EDGE('',*,*,#235,.F.);
#138=ORIENTED_EDGE('',*,*,#277,.F.);
#139=ORIENTED_EDGE('',*,*,#266,.F.);
#140=ORIENTED_EDGE('',*,*,#282,.T.);
#141=ORIENTED_EDGE('',*,*,#283,.F.);
#142=ORIENTED_EDGE('',*,*,#250,.F.);
#143=ORIENTED_EDGE('',*,*,#284,.F.);
#144=ORIENTED_EDGE('',*,*,#281,.F.);
#145=ORIENTED_EDGE('',*,*,#285,.F.);
#146=ORIENTED_EDGE('',*,*,#286,.F.);
#147=ORIENTED_EDGE('',*,*,#248,.T.);
#148=ORIENTED_EDGE('',*,*,#287,.F.);
#149=ORIENTED_EDGE('',*,*,#288,.F.);
#150=ORIENTED_EDGE('',*,*,#289,.F.);
#151=ORIENTED_EDGE('',*,*,#290,.T.);
#152=ORIENTED_EDGE('',*,*,#291,.F.);
#153=ORIENTED_EDGE('',*,*,#292,.T.);
#154=ORIENTED_EDGE('',*,*,#293,.F.);
#155=ORIENTED_EDGE('',*,*,#294,.F.);
#156=ORIENTED_EDGE('',*,*,#295,.F.);
#157=ORIENTED_EDGE('',*,*,#296,.F.);
#158=ORIENTED_EDGE('',*,*,#297,.F.);
#159=ORIENTED_EDGE('',*,*,#246,.T.);
#160=ORIENTED_EDGE('',*,*,#298,.F.);
#161=ORIENTED_EDGE('',*,*,#252,.F.);
#162=ORIENTED_EDGE('',*,*,#299,.F.);
#163=ORIENTED_EDGE('',*,*,#300,.T.);
#164=ORIENTED_EDGE('',*,*,#301,.F.);
#165=ORIENTED_EDGE('',*,*,#302,.F.);
#166=ORIENTED_EDGE('',*,*,#303,.F.);
#167=ORIENTED_EDGE('',*,*,#304,.F.);
#168=ORIENTED_EDGE('',*,*,#305,.F.);
#169=ORIENTED_EDGE('',*,*,#255,.F.);
#170=ORIENTED_EDGE('',*,*,#300,.F.);
#171=ORIENTED_EDGE('',*,*,#306,.F.);
#172=ORIENTED_EDGE('',*,*,#282,.F.);
#173=ORIENTED_EDGE('',*,*,#307,.F.);
#174=ORIENTED_EDGE('',*,*,#285,.T.);
#175=ORIENTED_EDGE('',*,*,#308,.F.);
#176=ORIENTED_EDGE('',*,*,#296,.T.);
#177=ORIENTED_EDGE('',*,*,#309,.F.);
#178=ORIENTED_EDGE('',*,*,#251,.T.);
#179=ORIENTED_EDGE('',*,*,#283,.T.);
#180=ORIENTED_EDGE('',*,*,#306,.T.);
#181=ORIENTED_EDGE('',*,*,#299,.T.);
#182=ORIENTED_EDGE('',*,*,#249,.T.);
#183=ORIENTED_EDGE('',*,*,#286,.T.);
#184=ORIENTED_EDGE('',*,*,#307,.T.);
#185=ORIENTED_EDGE('',*,*,#284,.T.);
#186=ORIENTED_EDGE('',*,*,#247,.T.);
#187=ORIENTED_EDGE('',*,*,#297,.T.);
#188=ORIENTED_EDGE('',*,*,#308,.T.);
#189=ORIENTED_EDGE('',*,*,#287,.T.);
#190=ORIENTED_EDGE('',*,*,#253,.T.);
#191=ORIENTED_EDGE('',*,*,#301,.T.);
#192=ORIENTED_EDGE('',*,*,#309,.T.);
#193=ORIENTED_EDGE('',*,*,#298,.T.);
#194=ORIENTED_EDGE('',*,*,#305,.T.);
#195=ORIENTED_EDGE('',*,*,#276,.T.);
#196=ORIENTED_EDGE('',*,*,#304,.T.);
#197=ORIENTED_EDGE('',*,*,#275,.T.);
#198=ORIENTED_EDGE('',*,*,#303,.T.);
#199=ORIENTED_EDGE('',*,*,#274,.T.);
#200=ORIENTED_EDGE('',*,*,#302,.T.);
#201=ORIENTED_EDGE('',*,*,#273,.T.);
#202=ORIENTED_EDGE('',*,*,#288,.T.);
#203=ORIENTED_EDGE('',*,*,#310,.T.);
#204=ORIENTED_EDGE('',*,*,#239,.T.);
#205=ORIENTED_EDGE('',*,*,#311,.F.);
#206=ORIENTED_EDGE('',*,*,#289,.T.);
#207=ORIENTED_EDGE('',*,*,#311,.T.);
#208=ORIENTED_EDGE('',*,*,#238,.T.);
#209=ORIENTED_EDGE('',*,*,#312,.F.);
#210=ORIENTED_EDGE('',*,*,#312,.T.);
#211=ORIENTED_EDGE('',*,*,#245,.F.);
#212=ORIENTED_EDGE('',*,*,#313,.F.);
#213=ORIENTED_EDGE('',*,*,#290,.F.);
#214=ORIENTED_EDGE('',*,*,#291,.T.);
#215=ORIENTED_EDGE('',*,*,#313,.T.);
#216=ORIENTED_EDGE('',*,*,#244,.T.);
#217=ORIENTED_EDGE('',*,*,#314,.F.);
#218=ORIENTED_EDGE('',*,*,#314,.T.);
#219=ORIENTED_EDGE('',*,*,#243,.F.);
#220=ORIENTED_EDGE('',*,*,#315,.F.);
#221=ORIENTED_EDGE('',*,*,#292,.F.);
#222=ORIENTED_EDGE('',*,*,#293,.T.);
#223=ORIENTED_EDGE('',*,*,#315,.T.);
#224=ORIENTED_EDGE('',*,*,#242,.T.);
#225=ORIENTED_EDGE('',*,*,#316,.F.);
#226=ORIENTED_EDGE('',*,*,#294,.T.);
#227=ORIENTED_EDGE('',*,*,#316,.T.);
#228=ORIENTED_EDGE('',*,*,#241,.T.);
#229=ORIENTED_EDGE('',*,*,#317,.F.);
#230=ORIENTED_EDGE('',*,*,#295,.T.);
#231=ORIENTED_EDGE('',*,*,#317,.T.);
#232=ORIENTED_EDGE('',*,*,#240,.T.);
#233=ORIENTED_EDGE('',*,*,#310,.F.);
#234=EDGE_CURVE('',#318,#319,#378,.T.);
#235=EDGE_CURVE('',#319,#320,#379,.F.);
#236=EDGE_CURVE('',#321,#320,#380,.T.);
#237=EDGE_CURVE('',#321,#318,#381,.T.);
#238=EDGE_CURVE('',#322,#323,#30,.T.);
#239=EDGE_CURVE('',#324,#322,#382,.T.);
#240=EDGE_CURVE('',#325,#324,#31,.T.);
#241=EDGE_CURVE('',#326,#325,#383,.T.);
#242=EDGE_CURVE('',#327,#326,#32,.T.);
#243=EDGE_CURVE('',#327,#328,#384,.T.);
#244=EDGE_CURVE('',#329,#328,#33,.T.);
#245=EDGE_CURVE('',#329,#323,#385,.T.);
#246=EDGE_CURVE('',#330,#331,#386,.T.);
#247=EDGE_CURVE('',#332,#330,#34,.T.);
#248=EDGE_CURVE('',#333,#332,#387,.T.);
#249=EDGE_CURVE('',#334,#333,#35,.T.);
#250=EDGE_CURVE('',#334,#335,#388,.T.);
#251=EDGE_CURVE('',#336,#335,#36,.T.);
#252=EDGE_CURVE('',#336,#337,#389,.T.);
#253=EDGE_CURVE('',#331,#337,#37,.T.);
#254=EDGE_CURVE('',#338,#338,#38,.T.);
#255=EDGE_CURVE('',#339,#339,#39,.T.);
#256=EDGE_CURVE('',#340,#340,#40,.T.);
#257=EDGE_CURVE('',#341,#342,#390,.T.);
#258=EDGE_CURVE('',#341,#343,#391,.F.);
#259=EDGE_CURVE('',#343,#344,#392,.T.);
#260=EDGE_CURVE('',#344,#342,#393,.T.);
#261=EDGE_CURVE('',#345,#346,#394,.T.);
#262=EDGE_CURVE('',#346,#347,#395,.F.);
#263=EDGE_CURVE('',#348,#347,#396,.T.);
#264=EDGE_CURVE('',#348,#345,#397,.T.);
#265=EDGE_CURVE('',#349,#350,#398,.T.);
#266=EDGE_CURVE('',#350,#351,#399,.T.);
#267=EDGE_CURVE('',#352,#351,#400,.T.);
#268=EDGE_CURVE('',#352,#349,#401,.F.);
#269=EDGE_CURVE('',#320,#350,#41,.T.);
#270=EDGE_CURVE('',#349,#344,#42,.T.);
#271=EDGE_CURVE('',#343,#348,#43,.T.);
#272=EDGE_CURVE('',#347,#321,#44,.T.);
#273=EDGE_CURVE('',#353,#353,#45,.T.);
#274=EDGE_CURVE('',#354,#354,#46,.T.);
#275=EDGE_CURVE('',#355,#355,#47,.T.);
#276=EDGE_CURVE('',#356,#356,#48,.T.);
#277=EDGE_CURVE('',#351,#319,#49,.F.);
#278=EDGE_CURVE('',#318,#346,#50,.F.);
#279=EDGE_CURVE('',#345,#341,#51,.F.);
#280=EDGE_CURVE('',#342,#352,#52,.F.);
#281=EDGE_CURVE('',#357,#357,#53,.F.);
#282=EDGE_CURVE('',#358,#359,#402,.T.);
#283=EDGE_CURVE('',#335,#359,#403,.F.);
#284=EDGE_CURVE('',#358,#334,#404,.T.);
#285=EDGE_CURVE('',#360,#361,#405,.T.);
#286=EDGE_CURVE('',#333,#360,#406,.F.);
#287=EDGE_CURVE('',#361,#332,#407,.T.);
#288=EDGE_CURVE('',#362,#363,#408,.T.);
#289=EDGE_CURVE('',#364,#362,#54,.T.);
#290=EDGE_CURVE('',#364,#365,#409,.T.);
#291=EDGE_CURVE('',#366,#365,#55,.T.);
#292=EDGE_CURVE('',#366,#367,#410,.T.);
#293=EDGE_CURVE('',#368,#367,#56,.T.);
#294=EDGE_CURVE('',#369,#368,#411,.T.);
#295=EDGE_CURVE('',#363,#369,#57,.T.);
#296=EDGE_CURVE('',#370,#371,#412,.T.);
#297=EDGE_CURVE('',#330,#370,#413,.F.);
#298=EDGE_CURVE('',#371,#331,#414,.T.);
#299=EDGE_CURVE('',#372,#336,#415,.T.);
#300=EDGE_CURVE('',#372,#373,#416,.T.);
#301=EDGE_CURVE('',#337,#373,#417,.F.);
#302=EDGE_CURVE('',#374,#374,#58,.T.);
#303=EDGE_CURVE('',#375,#375,#59,.T.);
#304=EDGE_CURVE('',#376,#376,#60,.T.);
#305=EDGE_CURVE('',#377,#377,#61,.T.);
#306=EDGE_CURVE('',#359,#372,#62,.F.);
#307=EDGE_CURVE('',#360,#358,#63,.F.);
#308=EDGE_CURVE('',#370,#361,#64,.F.);
#309=EDGE_CURVE('',#373,#371,#65,.F.);
#310=EDGE_CURVE('',#363,#324,#418,.T.);
#311=EDGE_CURVE('',#362,#322,#419,.T.);
#312=EDGE_CURVE('',#364,#323,#420,.T.);
#313=EDGE_CURVE('',#365,#329,#421,.T.);
#314=EDGE_CURVE('',#366,#328,#422,.T.);
#315=EDGE_CURVE('',#367,#327,#423,.T.);
#316=EDGE_CURVE('',#368,#326,#424,.T.);
#317=EDGE_CURVE('',#369,#325,#425,.T.);
#318=VERTEX_POINT('',#908);
#319=VERTEX_POINT('',#909);
#320=VERTEX_POINT('',#911);
#321=VERTEX_POINT('',#913);
#322=VERTEX_POINT('',#916);
#323=VERTEX_POINT('',#917);
#324=VERTEX_POINT('',#919);
#325=VERTEX_POINT('',#921);
#326=VERTEX_POINT('',#923);
#327=VERTEX_POINT('',#925);
#328=VERTEX_POINT('',#927);
#329=VERTEX_POINT('',#929);
#330=VERTEX_POINT('',#933);
#331=VERTEX_POINT('',#934);
#332=VERTEX_POINT('',#936);
#333=VERTEX_POINT('',#938);
#334=VERTEX_POINT('',#940);
#335=VERTEX_POINT('',#942);
#336=VERTEX_POINT('',#944);
#337=VERTEX_POINT('',#946);
#338=VERTEX_POINT('',#950);
#339=VERTEX_POINT('',#952);
#340=VERTEX_POINT('',#955);
#341=VERTEX_POINT('',#957);
#342=VERTEX_POINT('',#958);
#343=VERTEX_POINT('',#960);
#344=VERTEX_POINT('',#962);
#345=VERTEX_POINT('',#966);
#346=VERTEX_POINT('',#967);
#347=VERTEX_POINT('',#969);
#348=VERTEX_POINT('',#971);
#349=VERTEX_POINT('',#975);
#350=VERTEX_POINT('',#976);
#351=VERTEX_POINT('',#978);
#352=VERTEX_POINT('',#980);
#353=VERTEX_POINT('',#989);
#354=VERTEX_POINT('',#991);
#355=VERTEX_POINT('',#993);
#356=VERTEX_POINT('',#995);
#357=VERTEX_POINT('',#1002);
#358=VERTEX_POINT('',#1009);
#359=VERTEX_POINT('',#1010);
#360=VERTEX_POINT('',#1015);
#361=VERTEX_POINT('',#1016);
#362=VERTEX_POINT('',#1021);
#363=VERTEX_POINT('',#1022);
#364=VERTEX_POINT('',#1024);
#365=VERTEX_POINT('',#1026);
#366=VERTEX_POINT('',#1028);
#367=VERTEX_POINT('',#1030);
#368=VERTEX_POINT('',#1032);
#369=VERTEX_POINT('',#1034);
#370=VERTEX_POINT('',#1037);
#371=VERTEX_POINT('',#1038);
#372=VERTEX_POINT('',#1043);
#373=VERTEX_POINT('',#1045);
#374=VERTEX_POINT('',#1049);
#375=VERTEX_POINT('',#1051);
#376=VERTEX_POINT('',#1053);
#377=VERTEX_POINT('',#1055);
#378=LINE('',#907,#426);
#379=LINE('',#910,#427);
#380=LINE('',#912,#428);
#381=LINE('',#914,#429);
#382=LINE('',#918,#430);
#383=LINE('',#922,#431);
#384=LINE('',#926,#432);
#385=LINE('',#930,#433);
#386=LINE('',#932,#434);
#387=LINE('',#937,#435);
#388=LINE('',#941,#436);
#389=LINE('',#945,#437);
#390=LINE('',#956,#438);
#391=LINE('',#959,#439);
#392=LINE('',#961,#440);
#393=LINE('',#963,#441);
#394=LINE('',#965,#442);
#395=LINE('',#968,#443);
#396=LINE('',#970,#444);
#397=LINE('',#972,#445);
#398=LINE('',#974,#446);
#399=LINE('',#977,#447);
#400=LINE('',#979,#448);
#401=LINE('',#981,#449);
#402=LINE('',#1008,#450);
#403=LINE('',#1011,#451);
#404=LINE('',#1012,#452);
#405=LINE('',#1014,#453);
#406=LINE('',#1017,#454);
#407=LINE('',#1018,#455);
#408=LINE('',#1020,#456);
#409=LINE('',#1025,#457);
#410=LINE('',#1029,#458);
#411=LINE('',#1033,#459);
#412=LINE('',#1036,#460);
#413=LINE('',#1039,#461);
#414=LINE('',#1040,#462);
#415=LINE('',#1042,#463);
#416=LINE('',#1044,#464);
#417=LINE('',#1046,#465);
#418=LINE('',#1069,#466);
#419=LINE('',#1070,#467);
#420=LINE('',#1072,#468);
#421=LINE('',#1074,#469);
#422=LINE('',#1076,#470);
#423=LINE('',#1078,#471);
#424=LINE('',#1080,#472);
#425=LINE('',#1082,#473);
#426=VECTOR('',#719,1.);
#427=VECTOR('',#720,1.);
#428=VECTOR('',#721,1.);
#429=VECTOR('',#722,1.);
#430=VECTOR('',#725,1.);
#431=VECTOR('',#728,1.);
#432=VECTOR('',#731,1.);
#433=VECTOR('',#734,1.);
#434=VECTOR('',#737,1.);
#435=VECTOR('',#740,1.);
#436=VECTOR('',#743,1.);
#437=VECTOR('',#746,1.);
#438=VECTOR('',#759,1.);
#439=VECTOR('',#760,1.);
#440=VECTOR('',#761,1.);
#441=VECTOR('',#762,1.);
#442=VECTOR('',#765,1.);
#443=VECTOR('',#766,1.);
#444=VECTOR('',#767,1.);
#445=VECTOR('',#768,1.);
#446=VECTOR('',#771,1.);
#447=VECTOR('',#772,1.);
#448=VECTOR('',#773,1.);
#449=VECTOR('',#774,1.);
#450=VECTOR('',#817,1.);
#451=VECTOR('',#818,1.);
#452=VECTOR('',#819,1.);
#453=VECTOR('',#822,1.);
#454=VECTOR('',#823,1.);
#455=VECTOR('',#824,1.);
#456=VECTOR('',#827,1.);
#457=VECTOR('',#830,1.);
#458=VECTOR('',#833,1.);
#459=VECTOR('',#836,1.);
#460=VECTOR('',#839,1.);
#461=VECTOR('',#840,1.);
#462=VECTOR('',#841,1.);
#463=VECTOR('',#844,1.);
#464=VECTOR('',#845,1.);
#465=VECTOR('',#846,1.);
#466=VECTOR('',#883,1.);
#467=VECTOR('',#884,1.);
#468=VECTOR('',#887,1.);
#469=VECTOR('',#890,1.);
#470=VECTOR('',#893,1.);
#471=VECTOR('',#896,1.);
#472=VECTOR('',#899,1.);
#473=VECTOR('',#902,1.);
#474=EDGE_LOOP('',(#66,#67,#68,#69));
#475=EDGE_LOOP('',(#70,#71,#72,#73,#74,#75,#76,#77));
#476=EDGE_LOOP('',(#78,#79,#80,#81,#82,#83,#84,#85));
#477=EDGE_LOOP('',(#86));
#478=EDGE_LOOP('',(#87));
#479=EDGE_LOOP('',(#88));
#480=EDGE_LOOP('',(#89,#90,#91,#92));
#481=EDGE_LOOP('',(#93,#94,#95,#96));
#482=EDGE_LOOP('',(#97,#98,#99,#100));
#483=EDGE_LOOP('',(#101,#102,#103,#104,#105,#106,#107,#108));
#484=EDGE_LOOP('',(#109));
#485=EDGE_LOOP('',(#110));
#486=EDGE_LOOP('',(#111));
#487=EDGE_LOOP('',(#112));
#488=EDGE_LOOP('',(#113));
#489=EDGE_LOOP('',(#114,#115,#116,#117,#118,#119,#120,#121));
#490=EDGE_LOOP('',(#122));
#491=EDGE_LOOP('',(#123));
#492=EDGE_LOOP('',(#124,#125,#126,#127));
#493=EDGE_LOOP('',(#128,#129,#130,#131));
#494=EDGE_LOOP('',(#132,#133,#134,#135));
#495=EDGE_LOOP('',(#136,#137,#138,#139));
#496=EDGE_LOOP('',(#140,#141,#142,#143));
#497=EDGE_LOOP('',(#144));
#498=EDGE_LOOP('',(#145,#146,#147,#148));
#499=EDGE_LOOP('',(#149,#150,#151,#152,#153,#154,#155,#156));
#500=EDGE_LOOP('',(#157,#158,#159,#160));
#501=EDGE_LOOP('',(#161,#162,#163,#164));
#502=EDGE_LOOP('',(#165));
#503=EDGE_LOOP('',(#166));
#504=EDGE_LOOP('',(#167));
#505=EDGE_LOOP('',(#168));
#506=EDGE_LOOP('',(#169));
#507=EDGE_LOOP('',(#170,#171,#172,#173,#174,#175,#176,#177));
#508=EDGE_LOOP('',(#178,#179,#180,#181));
#509=EDGE_LOOP('',(#182,#183,#184,#185));
#510=EDGE_LOOP('',(#186,#187,#188,#189));
#511=EDGE_LOOP('',(#190,#191,#192,#193));
#512=EDGE_LOOP('',(#194));
#513=EDGE_LOOP('',(#195));
#514=EDGE_LOOP('',(#196));
#515=EDGE_LOOP('',(#197));
#516=EDGE_LOOP('',(#198));
#517=EDGE_LOOP('',(#199));
#518=EDGE_LOOP('',(#200));
#519=EDGE_LOOP('',(#201));
#520=EDGE_LOOP('',(#202,#203,#204,#205));
#521=EDGE_LOOP('',(#206,#207,#208,#209));
#522=EDGE_LOOP('',(#210,#211,#212,#213));
#523=EDGE_LOOP('',(#214,#215,#216,#217));
#524=EDGE_LOOP('',(#218,#219,#220,#221));
#525=EDGE_LOOP('',(#222,#223,#224,#225));
#526=EDGE_LOOP('',(#226,#227,#228,#229));
#527=EDGE_LOOP('',(#230,#231,#232,#233));
#528=FACE_BOUND('',#474,.T.);
#529=FACE_BOUND('',#475,.T.);
#530=FACE_BOUND('',#476,.T.);
#531=FACE_BOUND('',#477,.T.);
#532=FACE_BOUND('',#478,.T.);
#533=FACE_BOUND('',#479,.T.);
#534=FACE_BOUND('',#480,.T.);
#535=FACE_BOUND('',#481,.T.);
#536=FACE_BOUND('',#482,.T.);
#537=FACE_BOUND('',#483,.T.);
#538=FACE_BOUND('',#484,.T.);
#539=FACE_BOUND('',#485,.T.);
#540=FACE_BOUND('',#486,.T.);
#541=FACE_BOUND('',#487,.T.);
#542=FACE_BOUND('',#488,.T.);
#543=FACE_BOUND('',#489,.T.);
#544=FACE_BOUND('',#490,.T.);
#545=FACE_BOUND('',#491,.T.);
#546=FACE_BOUND('',#492,.T.);
#547=FACE_BOUND('',#493,.T.);
#548=FACE_BOUND('',#494,.T.);
#549=FACE_BOUND('',#495,.T.);
#550=FACE_BOUND('',#496,.T.);
#551=FACE_BOUND('',#497,.T.);
#552=FACE_BOUND('',#498,.T.);
#553=FACE_BOUND('',#499,.T.);
#554=FACE_BOUND('',#500,.T.);
#555=FACE_BOUND('',#501,.T.);
#556=FACE_BOUND('',#502,.T.);
#557=FACE_BOUND('',#503,.T.);
#558=FACE_BOUND('',#504,.T.);
#559=FACE_BOUND('',#505,.T.);
#560=FACE_BOUND('',#506,.T.);
#561=FACE_BOUND('',#507,.T.);
#562=FACE_BOUND('',#508,.T.);
#563=FACE_BOUND('',#509,.T.);
#564=FACE_BOUND('',#510,.T.);
#565=FACE_BOUND('',#511,.T.);
#566=FACE_BOUND('',#512,.T.);
#567=FACE_BOUND('',#513,.T.);
#568=FACE_BOUND('',#514,.T.);
#569=FACE_BOUND('',#515,.T.);
#570=FACE_BOUND('',#516,.T.);
#571=FACE_BOUND('',#517,.T.);
#572=FACE_BOUND('',#518,.T.);
#573=FACE_BOUND('',#519,.T.);
#574=FACE_BOUND('',#520,.T.);
#575=FACE_BOUND('',#521,.T.);
#576=FACE_BOUND('',#522,.T.);
#577=FACE_BOUND('',#523,.T.);
#578=FACE_BOUND('',#524,.T.);
#579=FACE_BOUND('',#525,.T.);
#580=FACE_BOUND('',#526,.T.);
#581=FACE_BOUND('',#527,.T.);
#582=PLANE('',#645);
#583=PLANE('',#650);
#584=PLANE('',#658);
#585=PLANE('',#660);
#586=PLANE('',#661);
#587=PLANE('',#662);
#588=PLANE('',#667);
#589=PLANE('',#682);
#590=PLANE('',#683);
#591=PLANE('',#684);
#592=PLANE('',#689);
#593=PLANE('',#690);
#594=PLANE('',#707);
#595=PLANE('',#709);
#596=PLANE('',#711);
#597=PLANE('',#713);
#598=ADVANCED_FACE('',(#528,#529),#582,.F.);
#599=ADVANCED_FACE('',(#530),#583,.F.);
#600=ADVANCED_FACE('',(#531,#532),#12,.F.);
#601=ADVANCED_FACE('',(#533,#534),#584,.T.);
#602=ADVANCED_FACE('',(#535),#585,.F.);
#603=ADVANCED_FACE('',(#536),#586,.T.);
#604=ADVANCED_FACE('',(#537),#587,.T.);
#605=ADVANCED_FACE('',(#538,#539,#540,#541,#542,#543),#588,.F.);
#606=ADVANCED_FACE('',(#544,#545),#13,.F.);
#607=ADVANCED_FACE('',(#546),#14,.T.);
#608=ADVANCED_FACE('',(#547),#15,.T.);
#609=ADVANCED_FACE('',(#548),#16,.T.);
#610=ADVANCED_FACE('',(#549),#17,.T.);
#611=ADVANCED_FACE('',(#550,#551),#589,.F.);
#612=ADVANCED_FACE('',(#552),#590,.T.);
#613=ADVANCED_FACE('',(#553,#554),#591,.T.);
#614=ADVANCED_FACE('',(#555),#592,.F.);
#615=ADVANCED_FACE('',(#556,#557,#558,#559,#560,#561),#593,.T.);
#616=ADVANCED_FACE('',(#562),#18,.F.);
#617=ADVANCED_FACE('',(#563),#19,.F.);
#618=ADVANCED_FACE('',(#564),#20,.F.);
#619=ADVANCED_FACE('',(#565),#21,.F.);
#620=ADVANCED_FACE('',(#566,#567),#22,.F.);
#621=ADVANCED_FACE('',(#568,#569),#23,.F.);
#622=ADVANCED_FACE('',(#570,#571),#24,.F.);
#623=ADVANCED_FACE('',(#572,#573),#25,.F.);
#624=ADVANCED_FACE('',(#574),#594,.F.);
#625=ADVANCED_FACE('',(#575),#26,.F.);
#626=ADVANCED_FACE('',(#576),#595,.T.);
#627=ADVANCED_FACE('',(#577),#27,.F.);
#628=ADVANCED_FACE('',(#578),#596,.T.);
#629=ADVANCED_FACE('',(#579),#28,.F.);
#630=ADVANCED_FACE('',(#580),#597,.F.);
#631=ADVANCED_FACE('',(#581),#29,.F.);
#632=CLOSED_SHELL('',(#598,#599,#600,#601,#602,#603,#604,#605,#606,#607,
#608,#609,#610,#611,#612,#613,#614,#615,#616,#617,#618,#619,#620,#621,#622,
#623,#624,#625,#626,#627,#628,#629,#630,#631));
#633=STYLED_ITEM('',(#634),#641);
#634=PRESENTATION_STYLE_ASSIGNMENT((#635));
#635=SURFACE_STYLE_USAGE(.BOTH.,#636);
#636=SURFACE_SIDE_STYLE('',(#637));
#637=SURFACE_STYLE_FILL_AREA(#638);
#638=FILL_AREA_STYLE('',(#639));
#639=FILL_AREA_STYLE_COLOUR('',#640);
#640=COLOUR_RGB('',0.615686274509804,0.811764705882353,0.929411764705882);
#641=MANIFOLD_SOLID_BREP('End Canopy',#632);
#642=SHAPE_DEFINITION_REPRESENTATION(#1090,#643);
#643=SHAPE_REPRESENTATION('End Canopy',(#644),#1085);
#644=AXIS2_PLACEMENT_3D('',#905,#715,#716);
#645=AXIS2_PLACEMENT_3D('',#906,#717,#718);
#646=AXIS2_PLACEMENT_3D('',#915,#723,#724);
#647=AXIS2_PLACEMENT_3D('',#920,#726,#727);
#648=AXIS2_PLACEMENT_3D('',#924,#729,#730);
#649=AXIS2_PLACEMENT_3D('',#928,#732,#733);
#650=AXIS2_PLACEMENT_3D('',#931,#735,#736);
#651=AXIS2_PLACEMENT_3D('',#935,#738,#739);
#652=AXIS2_PLACEMENT_3D('',#939,#741,#742);
#653=AXIS2_PLACEMENT_3D('',#943,#744,#745);
#654=AXIS2_PLACEMENT_3D('',#947,#747,#748);
#655=AXIS2_PLACEMENT_3D('',#948,#749,#750);
#656=AXIS2_PLACEMENT_3D('',#949,#751,#752);
#657=AXIS2_PLACEMENT_3D('',#951,#753,#754);
#658=AXIS2_PLACEMENT_3D('',#953,#755,#756);
#659=AXIS2_PLACEMENT_3D('',#954,#757,#758);
#660=AXIS2_PLACEMENT_3D('',#964,#763,#764);
#661=AXIS2_PLACEMENT_3D('',#973,#769,#770);
#662=AXIS2_PLACEMENT_3D('',#982,#775,#776);
#663=AXIS2_PLACEMENT_3D('',#983,#777,#778);
#664=AXIS2_PLACEMENT_3D('',#984,#779,#780);
#665=AXIS2_PLACEMENT_3D('',#985,#781,#782);
#666=AXIS2_PLACEMENT_3D('',#986,#783,#784);
#667=AXIS2_PLACEMENT_3D('',#987,#785,#786);
#668=AXIS2_PLACEMENT_3D('',#988,#787,#788);
#669=AXIS2_PLACEMENT_3D('',#990,#789,#790);
#670=AXIS2_PLACEMENT_3D('',#992,#791,#792);
#671=AXIS2_PLACEMENT_3D('',#994,#793,#794);
#672=AXIS2_PLACEMENT_3D('',#996,#795,#796);
#673=AXIS2_PLACEMENT_3D('',#997,#797,#798);
#674=AXIS2_PLACEMENT_3D('',#998,#799,#800);
#675=AXIS2_PLACEMENT_3D('',#999,#801,#802);
#676=AXIS2_PLACEMENT_3D('',#1000,#803,#804);
#677=AXIS2_PLACEMENT_3D('',#1001,#805,#806);
#678=AXIS2_PLACEMENT_3D('',#1003,#807,#808);
#679=AXIS2_PLACEMENT_3D('',#1004,#809,#810);
#680=AXIS2_PLACEMENT_3D('',#1005,#811,#812);
#681=AXIS2_PLACEMENT_3D('',#1006,#813,#814);
#682=AXIS2_PLACEMENT_3D('',#1007,#815,#816);
#683=AXIS2_PLACEMENT_3D('',#1013,#820,#821);
#684=AXIS2_PLACEMENT_3D('',#1019,#825,#826);
#685=AXIS2_PLACEMENT_3D('',#1023,#828,#829);
#686=AXIS2_PLACEMENT_3D('',#1027,#831,#832);
#687=AXIS2_PLACEMENT_3D('',#1031,#834,#835);
#688=AXIS2_PLACEMENT_3D('',#1035,#837,#838);
#689=AXIS2_PLACEMENT_3D('',#1041,#842,#843);
#690=AXIS2_PLACEMENT_3D('',#1047,#847,#848);
#691=AXIS2_PLACEMENT_3D('',#1048,#849,#850);
#692=AXIS2_PLACEMENT_3D('',#1050,#851,#852);
#693=AXIS2_PLACEMENT_3D('',#1052,#853,#854);
#694=AXIS2_PLACEMENT_3D('',#1054,#855,#856);
#695=AXIS2_PLACEMENT_3D('',#1056,#857,#858);
#696=AXIS2_PLACEMENT_3D('',#1057,#859,#860);
#697=AXIS2_PLACEMENT_3D('',#1058,#861,#862);
#698=AXIS2_PLACEMENT_3D('',#1059,#863,#864);
#699=AXIS2_PLACEMENT_3D('',#1060,#865,#866);
#700=AXIS2_PLACEMENT_3D('',#1061,#867,#868);
#701=AXIS2_PLACEMENT_3D('',#1062,#869,#870);
#702=AXIS2_PLACEMENT_3D('',#1063,#871,#872);
#703=AXIS2_PLACEMENT_3D('',#1064,#873,#874);
#704=AXIS2_PLACEMENT_3D('',#1065,#875,#876);
#705=AXIS2_PLACEMENT_3D('',#1066,#877,#878);
#706=AXIS2_PLACEMENT_3D('',#1067,#879,#880);
#707=AXIS2_PLACEMENT_3D('',#1068,#881,#882);
#708=AXIS2_PLACEMENT_3D('',#1071,#885,#886);
#709=AXIS2_PLACEMENT_3D('',#1073,#888,#889);
#710=AXIS2_PLACEMENT_3D('',#1075,#891,#892);
#711=AXIS2_PLACEMENT_3D('',#1077,#894,#895);
#712=AXIS2_PLACEMENT_3D('',#1079,#897,#898);
#713=AXIS2_PLACEMENT_3D('',#1081,#900,#901);
#714=AXIS2_PLACEMENT_3D('',#1083,#903,#904);
#715=DIRECTION('',(0.,0.,1.));
#716=DIRECTION('',(1.,0.,0.));
#717=DIRECTION('',(1.85037170770859E-16,-1.,0.));
#718=DIRECTION('',(1.,1.85037170770859E-16,0.));
#719=DIRECTION('',(-1.,-1.85037170770859E-16,0.));
#720=DIRECTION('',(0.,0.,-1.));
#721=DIRECTION('',(-1.,-1.85037170770859E-16,0.));
#722=DIRECTION('',(0.,0.,-1.));
#723=DIRECTION('',(-1.85037170770859E-16,1.,0.));
#724=DIRECTION('',(-1.,-1.85037170770859E-16,0.));
#725=DIRECTION('',(0.,0.,-1.));
#726=DIRECTION('',(-1.85037170770859E-16,1.,0.));
#727=DIRECTION('',(-1.,-1.85037170770859E-16,0.));
#728=DIRECTION('',(1.,1.85037170770859E-16,0.));
#729=DIRECTION('',(-1.85037170770859E-16,1.,0.));
#730=DIRECTION('',(-1.,-1.85037170770859E-16,0.));
#731=DIRECTION('',(0.,0.,-1.));
#732=DIRECTION('',(-1.85037170770859E-16,1.,0.));
#733=DIRECTION('',(-1.,-1.85037170770859E-16,0.));
#734=DIRECTION('',(1.,1.85037170770859E-16,-1.54197642309049E-16));
#735=DIRECTION('',(0.,0.,1.));
#736=DIRECTION('',(1.,0.,0.));
#737=DIRECTION('',(-1.,-1.85037170770859E-16,0.));
#738=DIRECTION('',(0.,0.,1.));
#739=DIRECTION('',(1.,0.,0.));
#740=DIRECTION('',(9.25185853854297E-17,1.,0.));
#741=DIRECTION('',(0.,0.,1.));
#742=DIRECTION('',(1.,0.,0.));
#743=DIRECTION('',(-1.,-9.25185853854297E-17,0.));
#744=DIRECTION('',(0.,0.,1.));
#745=DIRECTION('',(1.,0.,0.));
#746=DIRECTION('',(9.25185853854297E-17,1.,0.));
#747=DIRECTION('',(0.,0.,1.));
#748=DIRECTION('',(1.,0.,0.));
#749=DIRECTION('',(0.,0.,-1.));
#750=DIRECTION('',(-1.,0.,0.));
#751=DIRECTION('',(0.,0.,1.));
#752=DIRECTION('',(1.,0.,0.));
#753=DIRECTION('',(0.,0.,1.));
#754=DIRECTION('',(1.,0.,0.));
#755=DIRECTION('',(9.25185853854297E-17,-1.,0.));
#756=DIRECTION('',(1.,9.25185853854297E-17,0.));
#757=DIRECTION('',(9.25185853854297E-17,-1.,0.));
#758=DIRECTION('',(1.,9.25185853854297E-17,0.));
#759=DIRECTION('',(-1.,-9.25185853854297E-17,0.));
#760=DIRECTION('',(0.,0.,-1.));
#761=DIRECTION('',(-1.,-9.25185853854297E-17,0.));
#762=DIRECTION('',(0.,0.,-1.));
#763=DIRECTION('',(-1.,9.25185853854297E-17,0.));
#764=DIRECTION('',(-9.25185853854297E-17,-1.,0.));
#765=DIRECTION('',(9.25185853854297E-17,1.,0.));
#766=DIRECTION('',(0.,0.,-1.));
#767=DIRECTION('',(9.25185853854297E-17,1.,0.));
#768=DIRECTION('',(0.,0.,-1.));
#769=DIRECTION('',(-1.,9.25185853854297E-17,0.));
#770=DIRECTION('',(-9.25185853854297E-17,-1.,0.));
#771=DIRECTION('',(9.25185853854297E-17,1.,0.));
#772=DIRECTION('',(0.,0.,-1.));
#773=DIRECTION('',(9.25185853854297E-17,1.,0.));
#774=DIRECTION('',(0.,0.,-1.));
#775=DIRECTION('',(0.,0.,1.));
#776=DIRECTION('',(1.,0.,0.));
#777=DIRECTION('',(0.,0.,1.));
#778=DIRECTION('',(1.,0.,0.));
#779=DIRECTION('',(0.,0.,1.));
#780=DIRECTION('',(1.,0.,0.));
#781=DIRECTION('',(0.,0.,1.));
#782=DIRECTION('',(1.,0.,0.));
#783=DIRECTION('',(0.,0.,1.));
#784=DIRECTION('',(1.,0.,0.));
#785=DIRECTION('',(0.,0.,1.));
#786=DIRECTION('',(1.,0.,0.));
#787=DIRECTION('',(0.,0.,-1.));
#788=DIRECTION('',(-1.,0.,0.));
#789=DIRECTION('',(0.,0.,-1.));
#790=DIRECTION('',(-1.,0.,0.));
#791=DIRECTION('',(0.,0.,-1.));
#792=DIRECTION('',(-1.,0.,0.));
#793=DIRECTION('',(0.,0.,-1.));
#794=DIRECTION('',(-1.,0.,0.));
#795=DIRECTION('',(0.,0.,1.));
#796=DIRECTION('',(1.,0.,0.));
#797=DIRECTION('',(0.,0.,1.));
#798=DIRECTION('',(1.,0.,0.));
#799=DIRECTION('',(0.,0.,1.));
#800=DIRECTION('',(1.,0.,0.));
#801=DIRECTION('',(0.,0.,1.));
#802=DIRECTION('',(1.,0.,0.));
#803=DIRECTION('',(9.25185853854297E-17,-1.,0.));
#804=DIRECTION('',(1.,9.25185853854297E-17,0.));
#805=DIRECTION('',(9.25185853854297E-17,-1.,0.));
#806=DIRECTION('',(1.,9.25185853854297E-17,0.));
#807=DIRECTION('',(0.,0.,-1.));
#808=DIRECTION('',(-1.,0.,0.));
#809=DIRECTION('',(0.,0.,1.));
#810=DIRECTION('',(1.,0.,0.));
#811=DIRECTION('',(0.,0.,-1.));
#812=DIRECTION('',(-1.,0.,0.));
#813=DIRECTION('',(0.,0.,1.));
#814=DIRECTION('',(1.,0.,0.));
#815=DIRECTION('',(9.25185853854297E-17,-1.,0.));
#816=DIRECTION('',(1.,9.25185853854297E-17,0.));
#817=DIRECTION('',(-1.,-9.25185853854297E-17,0.));
#818=DIRECTION('',(0.,0.,1.));
#819=DIRECTION('',(0.,0.,1.));
#820=DIRECTION('',(-1.,9.25185853854297E-17,0.));
#821=DIRECTION('',(-9.25185853854297E-17,-1.,0.));
#822=DIRECTION('',(9.25185853854297E-17,1.,0.));
#823=DIRECTION('',(0.,0.,1.));
#824=DIRECTION('',(0.,0.,1.));
#825=DIRECTION('',(1.85037170770859E-16,-1.,0.));
#826=DIRECTION('',(1.,1.85037170770859E-16,0.));
#827=DIRECTION('',(0.,0.,1.));
#828=DIRECTION('',(1.85037170770859E-16,-1.,0.));
#829=DIRECTION('',(1.,1.85037170770859E-16,0.));
#830=DIRECTION('',(-1.,-1.85037170770859E-16,1.54197642309049E-16));
#831=DIRECTION('',(1.85037170770859E-16,-1.,0.));
#832=DIRECTION('',(1.,1.85037170770859E-16,0.));
#833=DIRECTION('',(0.,0.,1.));
#834=DIRECTION('',(1.85037170770859E-16,-1.,0.));
#835=DIRECTION('',(1.,1.85037170770859E-16,0.));
#836=DIRECTION('',(-1.,-1.85037170770859E-16,0.));
#837=DIRECTION('',(1.85037170770859E-16,-1.,0.));
#838=DIRECTION('',(1.,1.85037170770859E-16,0.));
#839=DIRECTION('',(-1.,-1.85037170770859E-16,0.));
#840=DIRECTION('',(0.,0.,1.));
#841=DIRECTION('',(0.,0.,1.));
#842=DIRECTION('',(-1.,9.25185853854297E-17,0.));
#843=DIRECTION('',(-9.25185853854297E-17,-1.,0.));
#844=DIRECTION('',(0.,0.,1.));
#845=DIRECTION('',(9.25185853854297E-17,1.,0.));
#846=DIRECTION('',(0.,0.,1.));
#847=DIRECTION('',(0.,0.,1.));
#848=DIRECTION('',(1.,0.,0.));
#849=DIRECTION('',(0.,0.,1.));
#850=DIRECTION('',(1.,0.,0.));
#851=DIRECTION('',(0.,0.,1.));
#852=DIRECTION('',(1.,0.,0.));
#853=DIRECTION('',(0.,0.,1.));
#854=DIRECTION('',(1.,0.,0.));
#855=DIRECTION('',(0.,0.,1.));
#856=DIRECTION('',(1.,0.,0.));
#857=DIRECTION('',(0.,0.,1.));
#858=DIRECTION('',(1.,0.,0.));
#859=DIRECTION('',(0.,0.,1.));
#860=DIRECTION('',(1.,0.,0.));
#861=DIRECTION('',(0.,0.,1.));
#862=DIRECTION('',(1.,0.,0.));
#863=DIRECTION('',(0.,0.,1.));
#864=DIRECTION('',(1.,0.,0.));
#865=DIRECTION('',(0.,0.,-1.));
#866=DIRECTION('',(-1.,0.,0.));
#867=DIRECTION('',(0.,0.,1.));
#868=DIRECTION('',(1.,0.,0.));
#869=DIRECTION('',(0.,0.,-1.));
#870=DIRECTION('',(-1.,0.,0.));
#871=DIRECTION('',(0.,0.,1.));
#872=DIRECTION('',(1.,0.,0.));
#873=DIRECTION('',(0.,0.,-1.));
#874=DIRECTION('',(-1.,0.,0.));
#875=DIRECTION('',(0.,0.,-1.));
#876=DIRECTION('',(-1.,0.,0.));
#877=DIRECTION('',(0.,0.,-1.));
#878=DIRECTION('',(-1.,0.,0.));
#879=DIRECTION('',(0.,0.,-1.));
#880=DIRECTION('',(-1.,0.,0.));
#881=DIRECTION('',(1.,1.85037170770859E-16,0.));
#882=DIRECTION('',(-1.85037170770859E-16,1.,0.));
#883=DIRECTION('',(-1.85037170770859E-16,1.,0.));
#884=DIRECTION('',(-1.85037170770859E-16,1.,0.));
#885=DIRECTION('',(-1.85037170770859E-16,1.,0.));
#886=DIRECTION('',(-1.,-1.85037170770859E-16,0.));
#887=DIRECTION('',(-1.85037170770859E-16,1.,0.));
#888=DIRECTION('',(1.54197642309049E-16,2.85322954724035E-32,1.));
#889=DIRECTION('',(1.,0.,-1.54197642309049E-16));
#890=DIRECTION('',(-1.85037170770859E-16,1.,0.));
#891=DIRECTION('',(-1.85037170770859E-16,1.,0.));
#892=DIRECTION('',(-1.,-1.85037170770859E-16,0.));
#893=DIRECTION('',(-1.85037170770859E-16,1.,0.));
#894=DIRECTION('',(1.,1.85037170770859E-16,0.));
#895=DIRECTION('',(-1.85037170770859E-16,1.,0.));
#896=DIRECTION('',(-1.85037170770859E-16,1.,0.));
#897=DIRECTION('',(-1.85037170770859E-16,1.,0.));
#898=DIRECTION('',(-1.,-1.85037170770859E-16,0.));
#899=DIRECTION('',(-1.85037170770859E-16,1.,0.));
#900=DIRECTION('',(0.,0.,1.));
#901=DIRECTION('',(1.,0.,0.));
#902=DIRECTION('',(-1.85037170770859E-16,1.,0.));
#903=DIRECTION('',(-1.85037170770859E-16,1.,0.));
#904=DIRECTION('',(-1.,-1.85037170770859E-16,0.));
#905=CARTESIAN_POINT('',(0.,0.,0.));
#906=CARTESIAN_POINT('',(1.38777878078145E-17,0.075,0.15));
#907=CARTESIAN_POINT('',(1.38777878078145E-17,0.075,0.));
#908=CARTESIAN_POINT('',(0.067,0.075,0.));
#909=CARTESIAN_POINT('',(-0.067,0.075,0.));
#910=CARTESIAN_POINT('',(-0.067,0.075,0.15));
#911=CARTESIAN_POINT('',(-0.067,0.075,0.15));
#912=CARTESIAN_POINT('',(1.38777878078145E-17,0.075,0.15));
#913=CARTESIAN_POINT('',(0.067,0.075,0.15));
#914=CARTESIAN_POINT('',(0.067,0.075,0.15));
#915=CARTESIAN_POINT('',(0.045,0.075,0.065));
#916=CARTESIAN_POINT('',(0.055,0.075,0.065));
#917=CARTESIAN_POINT('',(0.045,0.075,0.055));
#918=CARTESIAN_POINT('',(0.055,0.075,0.075));
#919=CARTESIAN_POINT('',(0.055,0.075,0.085));
#920=CARTESIAN_POINT('',(0.045,0.075,0.085));
#921=CARTESIAN_POINT('',(0.045,0.075,0.095));
#922=CARTESIAN_POINT('',(-1.38777878078145E-17,0.075,0.095));
#923=CARTESIAN_POINT('',(-0.045,0.075,0.095));
#924=CARTESIAN_POINT('',(-0.045,0.075,0.085));
#925=CARTESIAN_POINT('',(-0.055,0.075,0.085));
#926=CARTESIAN_POINT('',(-0.055,0.075,0.075));
#927=CARTESIAN_POINT('',(-0.055,0.075,0.065));
#928=CARTESIAN_POINT('',(-0.045,0.075,0.065));
#929=CARTESIAN_POINT('',(-0.045,0.075,0.055));
#930=CARTESIAN_POINT('',(-1.38777878078145E-17,0.075,0.055));
#931=CARTESIAN_POINT('',(0.,0.,0.144));
#932=CARTESIAN_POINT('',(1.49880108324396E-17,0.069,0.144));
#933=CARTESIAN_POINT('',(0.067,0.069,0.144));
#934=CARTESIAN_POINT('',(-0.067,0.069,0.144));
#935=CARTESIAN_POINT('',(0.067,0.067,0.144));
#936=CARTESIAN_POINT('',(0.069,0.067,0.144));
#937=CARTESIAN_POINT('',(0.069,1.4432899320127E-17,0.144));
#938=CARTESIAN_POINT('',(0.069,-0.067,0.144));
#939=CARTESIAN_POINT('',(0.067,-0.067,0.144));
#940=CARTESIAN_POINT('',(0.067,-0.069,0.144));
#941=CARTESIAN_POINT('',(-5.55111512312578E-19,-0.069,0.144));
#942=CARTESIAN_POINT('',(-0.067,-0.069,0.144));
#943=CARTESIAN_POINT('',(-0.067,-0.067,0.144));
#944=CARTESIAN_POINT('',(-0.069,-0.067,0.144));
#945=CARTESIAN_POINT('',(-0.069,-1.4432899320127E-17,0.144));
#946=CARTESIAN_POINT('',(-0.069,0.067,0.144));
#947=CARTESIAN_POINT('',(-0.067,0.067,0.144));
#948=CARTESIAN_POINT('',(0.,0.00111981680745104,0.135));
#949=CARTESIAN_POINT('',(0.,0.00111981680745104,0.));
#950=CARTESIAN_POINT('',(0.0675,0.00111981680745104,0.));
#951=CARTESIAN_POINT('',(0.,0.00111981680745104,0.006));
#952=CARTESIAN_POINT('',(0.0675,0.00111981680745104,0.006));
#953=CARTESIAN_POINT('',(0.,-0.075,0.15));
#954=CARTESIAN_POINT('',(6.93889390390723E-18,-0.075,0.075));
#955=CARTESIAN_POINT('',(0.06,-0.075,0.075));
#956=CARTESIAN_POINT('',(0.,-0.075,0.));
#957=CARTESIAN_POINT('',(0.067,-0.075,0.));
#958=CARTESIAN_POINT('',(-0.067,-0.075,0.));
#959=CARTESIAN_POINT('',(0.067,-0.075,0.15));
#960=CARTESIAN_POINT('',(0.067,-0.075,0.15));
#961=CARTESIAN_POINT('',(0.,-0.075,0.15));
#962=CARTESIAN_POINT('',(-0.067,-0.075,0.15));
#963=CARTESIAN_POINT('',(-0.067,-0.075,0.15));
#964=CARTESIAN_POINT('',(0.075,1.38777878078145E-17,0.15));
#965=CARTESIAN_POINT('',(0.075,1.38777878078145E-17,0.));
#966=CARTESIAN_POINT('',(0.075,-0.067,0.));
#967=CARTESIAN_POINT('',(0.075,0.067,0.));
#968=CARTESIAN_POINT('',(0.075,0.067,0.15));
#969=CARTESIAN_POINT('',(0.075,0.067,0.15));
#970=CARTESIAN_POINT('',(0.075,1.38777878078145E-17,0.15));
#971=CARTESIAN_POINT('',(0.075,-0.067,0.15));
#972=CARTESIAN_POINT('',(0.075,-0.067,0.));
#973=CARTESIAN_POINT('',(-0.075,-1.38777878078145E-17,0.15));
#974=CARTESIAN_POINT('',(-0.075,-1.38777878078145E-17,0.15));
#975=CARTESIAN_POINT('',(-0.075,-0.067,0.15));
#976=CARTESIAN_POINT('',(-0.075,0.067,0.15));
#977=CARTESIAN_POINT('',(-0.075,0.067,0.));
#978=CARTESIAN_POINT('',(-0.075,0.067,0.));
#979=CARTESIAN_POINT('',(-0.075,-1.38777878078145E-17,0.));
#980=CARTESIAN_POINT('',(-0.075,-0.067,0.));
#981=CARTESIAN_POINT('',(-0.075,-0.067,0.15));
#982=CARTESIAN_POINT('',(0.,0.,0.15));
#983=CARTESIAN_POINT('',(-0.067,0.067,0.15));
#984=CARTESIAN_POINT('',(-0.067,-0.067,0.15));
#985=CARTESIAN_POINT('',(0.067,-0.067,0.15));
#986=CARTESIAN_POINT('',(0.067,0.067,0.15));
#987=CARTESIAN_POINT('',(0.,0.,0.));
#988=CARTESIAN_POINT('',(0.0583363094478902,-0.0583363094478902,0.));
#989=CARTESIAN_POINT('',(0.0552363094478902,-0.0583363094478902,0.));
#990=CARTESIAN_POINT('',(-0.0583363094478902,0.0583363094478902,0.));
#991=CARTESIAN_POINT('',(-0.0614363094478902,0.0583363094478902,0.));
#992=CARTESIAN_POINT('',(0.0583363094478902,0.0583363094478902,0.));
#993=CARTESIAN_POINT('',(0.0552363094478902,0.0583363094478902,0.));
#994=CARTESIAN_POINT('',(-0.0583363094478902,-0.0583363094478902,0.));
#995=CARTESIAN_POINT('',(-0.0614363094478902,-0.0583363094478902,0.));
#996=CARTESIAN_POINT('',(-0.067,0.067,0.));
#997=CARTESIAN_POINT('',(0.067,0.067,0.));
#998=CARTESIAN_POINT('',(0.067,-0.067,0.));
#999=CARTESIAN_POINT('',(-0.067,-0.067,0.));
#1000=CARTESIAN_POINT('',(4.62592926927149E-18,-0.05,0.075));
#1001=CARTESIAN_POINT('',(6.38378239159465E-18,-0.069,0.075));
#1002=CARTESIAN_POINT('',(0.06,-0.069,0.075));
#1003=CARTESIAN_POINT('',(-0.067,-0.067,0.15));
#1004=CARTESIAN_POINT('',(0.067,-0.067,0.15));
#1005=CARTESIAN_POINT('',(0.067,0.067,0.15));
#1006=CARTESIAN_POINT('',(-0.067,0.067,0.15));
#1007=CARTESIAN_POINT('',(-5.55111512312578E-19,-0.069,0.15));
#1008=CARTESIAN_POINT('',(-5.55111512312578E-19,-0.069,0.006));
#1009=CARTESIAN_POINT('',(0.067,-0.069,0.006));
#1010=CARTESIAN_POINT('',(-0.067,-0.069,0.006));
#1011=CARTESIAN_POINT('',(-0.067,-0.069,0.15));
#1012=CARTESIAN_POINT('',(0.067,-0.069,0.15));
#1013=CARTESIAN_POINT('',(0.069,1.4432899320127E-17,0.15));
#1014=CARTESIAN_POINT('',(0.069,1.4432899320127E-17,0.006));
#1015=CARTESIAN_POINT('',(0.069,-0.067,0.006));
#1016=CARTESIAN_POINT('',(0.069,0.067,0.006));
#1017=CARTESIAN_POINT('',(0.069,-0.067,0.15));
#1018=CARTESIAN_POINT('',(0.069,0.067,0.15));
#1019=CARTESIAN_POINT('',(1.49880108324396E-17,0.069,0.15));
#1020=CARTESIAN_POINT('',(0.055,0.069,0.15));
#1021=CARTESIAN_POINT('',(0.055,0.069,0.065));
#1022=CARTESIAN_POINT('',(0.055,0.069,0.085));
#1023=CARTESIAN_POINT('',(0.045,0.069,0.065));
#1024=CARTESIAN_POINT('',(0.045,0.069,0.055));
#1025=CARTESIAN_POINT('',(3.39234813079907E-19,0.069,0.055));
#1026=CARTESIAN_POINT('',(-0.045,0.069,0.055));
#1027=CARTESIAN_POINT('',(-0.045,0.069,0.065));
#1028=CARTESIAN_POINT('',(-0.055,0.069,0.065));
#1029=CARTESIAN_POINT('',(-0.055,0.069,0.15));
#1030=CARTESIAN_POINT('',(-0.055,0.069,0.085));
#1031=CARTESIAN_POINT('',(-0.045,0.069,0.085));
#1032=CARTESIAN_POINT('',(-0.045,0.069,0.095));
#1033=CARTESIAN_POINT('',(1.49880108324396E-17,0.069,0.095));
#1034=CARTESIAN_POINT('',(0.045,0.069,0.095));
#1035=CARTESIAN_POINT('',(0.045,0.069,0.085));
#1036=CARTESIAN_POINT('',(1.49880108324396E-17,0.069,0.006));
#1037=CARTESIAN_POINT('',(0.067,0.069,0.006));
#1038=CARTESIAN_POINT('',(-0.067,0.069,0.006));
#1039=CARTESIAN_POINT('',(0.067,0.069,0.15));
#1040=CARTESIAN_POINT('',(-0.067,0.069,0.15));
#1041=CARTESIAN_POINT('',(-0.069,-1.4432899320127E-17,0.15));
#1042=CARTESIAN_POINT('',(-0.069,-0.067,0.15));
#1043=CARTESIAN_POINT('',(-0.069,-0.067,0.006));
#1044=CARTESIAN_POINT('',(-0.069,-1.4432899320127E-17,0.006));
#1045=CARTESIAN_POINT('',(-0.069,0.067,0.006));
#1046=CARTESIAN_POINT('',(-0.069,0.067,0.15));
#1047=CARTESIAN_POINT('',(0.,0.,0.006));
#1048=CARTESIAN_POINT('',(0.0583363094478902,-0.0583363094478902,0.006));
#1049=CARTESIAN_POINT('',(0.0614363094478902,-0.0583363094478902,0.006));
#1050=CARTESIAN_POINT('',(-0.0583363094478902,0.0583363094478902,0.006));
#1051=CARTESIAN_POINT('',(-0.0552363094478902,0.0583363094478902,0.006));
#1052=CARTESIAN_POINT('',(0.0583363094478902,0.0583363094478902,0.006));
#1053=CARTESIAN_POINT('',(0.0614363094478902,0.0583363094478902,0.006));
#1054=CARTESIAN_POINT('',(-0.0583363094478902,-0.0583363094478902,0.006));
#1055=CARTESIAN_POINT('',(-0.0552363094478902,-0.0583363094478902,0.006));
#1056=CARTESIAN_POINT('',(-0.067,-0.067,0.006));
#1057=CARTESIAN_POINT('',(0.067,-0.067,0.006));
#1058=CARTESIAN_POINT('',(0.067,0.067,0.006));
#1059=CARTESIAN_POINT('',(-0.067,0.067,0.006));
#1060=CARTESIAN_POINT('',(-0.067,-0.067,0.15));
#1061=CARTESIAN_POINT('',(0.067,-0.067,0.15));
#1062=CARTESIAN_POINT('',(0.067,0.067,0.15));
#1063=CARTESIAN_POINT('',(-0.067,0.067,0.15));
#1064=CARTESIAN_POINT('',(-0.0583363094478902,-0.0583363094478902,0.025));
#1065=CARTESIAN_POINT('',(0.0583363094478902,0.0583363094478902,0.025));
#1066=CARTESIAN_POINT('',(-0.0583363094478902,0.0583363094478902,0.025));
#1067=CARTESIAN_POINT('',(0.0583363094478902,-0.0583363094478902,0.025));
#1068=CARTESIAN_POINT('',(0.055,0.05,0.075));
#1069=CARTESIAN_POINT('',(0.055,0.05,0.085));
#1070=CARTESIAN_POINT('',(0.055,0.05,0.065));
#1071=CARTESIAN_POINT('',(0.045,0.05,0.065));
#1072=CARTESIAN_POINT('',(0.045,0.05,0.055));
#1073=CARTESIAN_POINT('',(-9.25185853854297E-18,0.05,0.055));
#1074=CARTESIAN_POINT('',(-0.045,0.05,0.055));
#1075=CARTESIAN_POINT('',(-0.045,0.05,0.065));
#1076=CARTESIAN_POINT('',(-0.055,0.05,0.065));
#1077=CARTESIAN_POINT('',(-0.055,0.05,0.075));
#1078=CARTESIAN_POINT('',(-0.055,0.05,0.085));
#1079=CARTESIAN_POINT('',(-0.045,0.05,0.085));
#1080=CARTESIAN_POINT('',(-0.045,0.05,0.095));
#1081=CARTESIAN_POINT('',(-9.25185853854297E-18,0.05,0.095));
#1082=CARTESIAN_POINT('',(0.045,0.05,0.095));
#1083=CARTESIAN_POINT('',(0.045,0.05,0.085));
#1084=MECHANICAL_DESIGN_GEOMETRIC_PRESENTATION_REPRESENTATION('',(#633),
#1085);
#1085=(
GEOMETRIC_REPRESENTATION_CONTEXT(3)
GLOBAL_UNCERTAINTY_ASSIGNED_CONTEXT((#1086))
GLOBAL_UNIT_ASSIGNED_CONTEXT((#1089,#1088,#1087))
REPRESENTATION_CONTEXT('End Canopy','TOP_LEVEL_ASSEMBLY_PART')
);
#1086=UNCERTAINTY_MEASURE_WITH_UNIT(LENGTH_MEASURE(1.E-8),#1089,
'DISTANCE_ACCURACY_VALUE','Maximum Tolerance applied to model');
#1087=(
NAMED_UNIT(*)
SI_UNIT($,.STERADIAN.)
SOLID_ANGLE_UNIT()
);
#1088=(
NAMED_UNIT(*)
PLANE_ANGLE_UNIT()
SI_UNIT($,.RADIAN.)
);
#1089=(
LENGTH_UNIT()
NAMED_UNIT(*)
SI_UNIT($,.METRE.)
);
#1090=PRODUCT_DEFINITION_SHAPE('','',#1091);
#1091=PRODUCT_DEFINITION('','',#1093,#1092);
#1092=PRODUCT_DEFINITION_CONTEXT('',#1099,'design');
#1093=PRODUCT_DEFINITION_FORMATION_WITH_SPECIFIED_SOURCE('','',#1095,
 .NOT_KNOWN.);
#1094=PRODUCT_RELATED_PRODUCT_CATEGORY('','',(#1095));
#1095=PRODUCT('End Canopy','End Canopy','End Canopy',(#1097));
#1096=PRODUCT_CATEGORY('','');
#1097=PRODUCT_CONTEXT('',#1099,'mechanical');
#1098=APPLICATION_PROTOCOL_DEFINITION('international standard',
'ap242_managed_model_based_3d_engineering',2011,#1099);
#1099=APPLICATION_CONTEXT('managed model based 3d engineering');
ENDSEC;
END-ISO-10303-21;
