ISO-10303-21;
HEADER;
/* Generated by software containing ST-Developer
 * from STEP Tools, Inc. (www.steptools.com) 
 */
/* OPTION: using custom renumber hook */

FILE_DESCRIPTION(
/* description */ ('STEP AP242',
'CAx-IF Rec.Pracs.---Representation and Presentation of Product Manufa
cturing Information (PMI)---4.0---2014-10-13',
'CAx-IF Rec.Pracs.---3D Tessellated Geometry---0.4---2014-09-14','2;1'),

/* implementation_level */ '2;1');

FILE_NAME(
/* name */ '686b72767a9bce062bccdec8',
/* time_stamp */ '2025-07-07T07:08:39Z',
/* author */ (''),
/* organization */ (''),
/* preprocessor_version */ 'ST-DEVELOPER v20',
/* originating_system */ 'ONSHAPE BY PTC INC, 1.200',
/* authorisation */ '  ');

FILE_SCHEMA (('AP242_MANAGED_MODEL_BASED_3D_ENGINEERING_MIM_LF { 1 0 10303 442 1 1 4 }'));
ENDSEC;

DATA;
#10=SHAPE_REPRESENTATION_RELATIONSHIP('','',#579,#11);
#11=ADVANCED_BREP_SHAPE_REPRESENTATION('',(#577),#979);
#12=LINE('',#834,#44);
#13=LINE('',#837,#45);
#14=LINE('',#839,#46);
#15=LINE('',#841,#47);
#16=LINE('',#843,#48);
#17=LINE('',#846,#49);
#18=LINE('',#848,#50);
#19=LINE('',#850,#51);
#20=LINE('',#854,#52);
#21=LINE('',#857,#53);
#22=LINE('',#859,#54);
#23=LINE('',#861,#55);
#24=LINE('',#863,#56);
#25=LINE('',#866,#57);
#26=LINE('',#868,#58);
#27=LINE('',#870,#59);
#28=LINE('',#905,#60);
#29=LINE('',#908,#61);
#30=LINE('',#910,#62);
#31=LINE('',#912,#63);
#32=LINE('',#914,#64);
#33=LINE('',#917,#65);
#34=LINE('',#919,#66);
#35=LINE('',#921,#67);
#36=LINE('',#923,#68);
#37=LINE('',#926,#69);
#38=LINE('',#928,#70);
#39=LINE('',#930,#71);
#40=LINE('',#932,#72);
#41=LINE('',#935,#73);
#42=LINE('',#937,#74);
#43=LINE('',#939,#75);
#44=VECTOR('',#666,1.);
#45=VECTOR('',#667,1.);
#46=VECTOR('',#668,1.);
#47=VECTOR('',#669,1.);
#48=VECTOR('',#672,1.);
#49=VECTOR('',#673,1.);
#50=VECTOR('',#674,1.);
#51=VECTOR('',#675,1.);
#52=VECTOR('',#680,1.);
#53=VECTOR('',#681,1.);
#54=VECTOR('',#682,1.);
#55=VECTOR('',#683,1.);
#56=VECTOR('',#686,1.);
#57=VECTOR('',#687,1.);
#58=VECTOR('',#688,1.);
#59=VECTOR('',#689,1.);
#60=VECTOR('',#740,1.);
#61=VECTOR('',#741,1.);
#62=VECTOR('',#742,1.);
#63=VECTOR('',#743,1.);
#64=VECTOR('',#746,1.);
#65=VECTOR('',#747,1.);
#66=VECTOR('',#748,1.);
#67=VECTOR('',#749,1.);
#68=VECTOR('',#752,1.);
#69=VECTOR('',#753,1.);
#70=VECTOR('',#754,1.);
#71=VECTOR('',#755,1.);
#72=VECTOR('',#758,1.);
#73=VECTOR('',#759,1.);
#74=VECTOR('',#760,1.);
#75=VECTOR('',#761,1.);
#76=PLANE('',#587);
#77=PLANE('',#588);
#78=PLANE('',#589);
#79=PLANE('',#591);
#80=PLANE('',#592);
#81=PLANE('',#601);
#82=PLANE('',#616);
#83=PLANE('',#617);
#84=PLANE('',#618);
#85=PLANE('',#619);
#86=PLANE('',#620);
#87=PLANE('',#629);
#88=ORIENTED_EDGE('',*,*,#228,.T.);
#89=ORIENTED_EDGE('',*,*,#229,.F.);
#90=ORIENTED_EDGE('',*,*,#230,.T.);
#91=ORIENTED_EDGE('',*,*,#231,.F.);
#92=ORIENTED_EDGE('',*,*,#232,.F.);
#93=ORIENTED_EDGE('',*,*,#233,.T.);
#94=ORIENTED_EDGE('',*,*,#234,.T.);
#95=ORIENTED_EDGE('',*,*,#235,.T.);
#96=ORIENTED_EDGE('',*,*,#236,.F.);
#97=ORIENTED_EDGE('',*,*,#237,.T.);
#98=ORIENTED_EDGE('',*,*,#238,.T.);
#99=ORIENTED_EDGE('',*,*,#239,.T.);
#100=ORIENTED_EDGE('',*,*,#240,.F.);
#101=ORIENTED_EDGE('',*,*,#241,.T.);
#102=ORIENTED_EDGE('',*,*,#242,.T.);
#103=ORIENTED_EDGE('',*,*,#243,.F.);
#104=ORIENTED_EDGE('',*,*,#244,.T.);
#105=ORIENTED_EDGE('',*,*,#245,.F.);
#106=ORIENTED_EDGE('',*,*,#246,.T.);
#107=ORIENTED_EDGE('',*,*,#247,.T.);
#108=ORIENTED_EDGE('',*,*,#248,.T.);
#109=ORIENTED_EDGE('',*,*,#249,.F.);
#110=ORIENTED_EDGE('',*,*,#250,.F.);
#111=ORIENTED_EDGE('',*,*,#251,.F.);
#112=ORIENTED_EDGE('',*,*,#252,.F.);
#113=ORIENTED_EDGE('',*,*,#228,.F.);
#114=ORIENTED_EDGE('',*,*,#234,.F.);
#115=ORIENTED_EDGE('',*,*,#253,.T.);
#116=ORIENTED_EDGE('',*,*,#236,.T.);
#117=ORIENTED_EDGE('',*,*,#254,.T.);
#118=ORIENTED_EDGE('',*,*,#243,.T.);
#119=ORIENTED_EDGE('',*,*,#255,.T.);
#120=ORIENTED_EDGE('',*,*,#247,.F.);
#121=ORIENTED_EDGE('',*,*,#256,.T.);
#122=ORIENTED_EDGE('',*,*,#257,.T.);
#123=ORIENTED_EDGE('',*,*,#258,.T.);
#124=ORIENTED_EDGE('',*,*,#259,.T.);
#125=ORIENTED_EDGE('',*,*,#260,.T.);
#126=ORIENTED_EDGE('',*,*,#231,.T.);
#127=ORIENTED_EDGE('',*,*,#238,.F.);
#128=ORIENTED_EDGE('',*,*,#261,.T.);
#129=ORIENTED_EDGE('',*,*,#232,.T.);
#130=ORIENTED_EDGE('',*,*,#262,.T.);
#131=ORIENTED_EDGE('',*,*,#245,.T.);
#132=ORIENTED_EDGE('',*,*,#263,.T.);
#133=ORIENTED_EDGE('',*,*,#241,.F.);
#134=ORIENTED_EDGE('',*,*,#264,.T.);
#135=ORIENTED_EDGE('',*,*,#254,.F.);
#136=ORIENTED_EDGE('',*,*,#239,.F.);
#137=ORIENTED_EDGE('',*,*,#264,.F.);
#138=ORIENTED_EDGE('',*,*,#244,.F.);
#139=ORIENTED_EDGE('',*,*,#255,.F.);
#140=ORIENTED_EDGE('',*,*,#242,.F.);
#141=ORIENTED_EDGE('',*,*,#263,.F.);
#142=ORIENTED_EDGE('',*,*,#248,.F.);
#143=ORIENTED_EDGE('',*,*,#256,.F.);
#144=ORIENTED_EDGE('',*,*,#246,.F.);
#145=ORIENTED_EDGE('',*,*,#262,.F.);
#146=ORIENTED_EDGE('',*,*,#235,.F.);
#147=ORIENTED_EDGE('',*,*,#253,.F.);
#148=ORIENTED_EDGE('',*,*,#233,.F.);
#149=ORIENTED_EDGE('',*,*,#261,.F.);
#150=ORIENTED_EDGE('',*,*,#237,.F.);
#151=ORIENTED_EDGE('',*,*,#265,.T.);
#152=ORIENTED_EDGE('',*,*,#240,.T.);
#153=ORIENTED_EDGE('',*,*,#266,.T.);
#154=ORIENTED_EDGE('',*,*,#267,.F.);
#155=ORIENTED_EDGE('',*,*,#268,.F.);
#156=ORIENTED_EDGE('',*,*,#269,.F.);
#157=ORIENTED_EDGE('',*,*,#270,.T.);
#158=ORIENTED_EDGE('',*,*,#271,.F.);
#159=ORIENTED_EDGE('',*,*,#272,.F.);
#160=ORIENTED_EDGE('',*,*,#273,.F.);
#161=ORIENTED_EDGE('',*,*,#274,.F.);
#162=ORIENTED_EDGE('',*,*,#275,.F.);
#163=ORIENTED_EDGE('',*,*,#276,.T.);
#164=ORIENTED_EDGE('',*,*,#277,.F.);
#165=ORIENTED_EDGE('',*,*,#265,.F.);
#166=ORIENTED_EDGE('',*,*,#278,.T.);
#167=ORIENTED_EDGE('',*,*,#279,.F.);
#168=ORIENTED_EDGE('',*,*,#280,.F.);
#169=ORIENTED_EDGE('',*,*,#281,.F.);
#170=ORIENTED_EDGE('',*,*,#282,.T.);
#171=ORIENTED_EDGE('',*,*,#283,.T.);
#172=ORIENTED_EDGE('',*,*,#284,.T.);
#173=ORIENTED_EDGE('',*,*,#285,.T.);
#174=ORIENTED_EDGE('',*,*,#229,.T.);
#175=ORIENTED_EDGE('',*,*,#268,.T.);
#176=ORIENTED_EDGE('',*,*,#286,.F.);
#177=ORIENTED_EDGE('',*,*,#280,.T.);
#178=ORIENTED_EDGE('',*,*,#287,.F.);
#179=ORIENTED_EDGE('',*,*,#276,.F.);
#180=ORIENTED_EDGE('',*,*,#288,.F.);
#181=ORIENTED_EDGE('',*,*,#270,.F.);
#182=ORIENTED_EDGE('',*,*,#289,.F.);
#183=ORIENTED_EDGE('',*,*,#290,.F.);
#184=ORIENTED_EDGE('',*,*,#291,.F.);
#185=ORIENTED_EDGE('',*,*,#292,.F.);
#186=ORIENTED_EDGE('',*,*,#293,.F.);
#187=ORIENTED_EDGE('',*,*,#230,.F.);
#188=ORIENTED_EDGE('',*,*,#272,.T.);
#189=ORIENTED_EDGE('',*,*,#294,.F.);
#190=ORIENTED_EDGE('',*,*,#274,.T.);
#191=ORIENTED_EDGE('',*,*,#295,.F.);
#192=ORIENTED_EDGE('',*,*,#278,.F.);
#193=ORIENTED_EDGE('',*,*,#296,.F.);
#194=ORIENTED_EDGE('',*,*,#266,.F.);
#195=ORIENTED_EDGE('',*,*,#297,.F.);
#196=ORIENTED_EDGE('',*,*,#288,.T.);
#197=ORIENTED_EDGE('',*,*,#275,.T.);
#198=ORIENTED_EDGE('',*,*,#294,.T.);
#199=ORIENTED_EDGE('',*,*,#271,.T.);
#200=ORIENTED_EDGE('',*,*,#287,.T.);
#201=ORIENTED_EDGE('',*,*,#279,.T.);
#202=ORIENTED_EDGE('',*,*,#295,.T.);
#203=ORIENTED_EDGE('',*,*,#277,.T.);
#204=ORIENTED_EDGE('',*,*,#286,.T.);
#205=ORIENTED_EDGE('',*,*,#267,.T.);
#206=ORIENTED_EDGE('',*,*,#296,.T.);
#207=ORIENTED_EDGE('',*,*,#281,.T.);
#208=ORIENTED_EDGE('',*,*,#289,.T.);
#209=ORIENTED_EDGE('',*,*,#273,.T.);
#210=ORIENTED_EDGE('',*,*,#297,.T.);
#211=ORIENTED_EDGE('',*,*,#269,.T.);
#212=ORIENTED_EDGE('',*,*,#293,.T.);
#213=ORIENTED_EDGE('',*,*,#260,.F.);
#214=ORIENTED_EDGE('',*,*,#292,.T.);
#215=ORIENTED_EDGE('',*,*,#259,.F.);
#216=ORIENTED_EDGE('',*,*,#291,.T.);
#217=ORIENTED_EDGE('',*,*,#258,.F.);
#218=ORIENTED_EDGE('',*,*,#290,.T.);
#219=ORIENTED_EDGE('',*,*,#257,.F.);
#220=ORIENTED_EDGE('',*,*,#252,.T.);
#221=ORIENTED_EDGE('',*,*,#285,.F.);
#222=ORIENTED_EDGE('',*,*,#251,.T.);
#223=ORIENTED_EDGE('',*,*,#284,.F.);
#224=ORIENTED_EDGE('',*,*,#250,.T.);
#225=ORIENTED_EDGE('',*,*,#283,.F.);
#226=ORIENTED_EDGE('',*,*,#249,.T.);
#227=ORIENTED_EDGE('',*,*,#282,.F.);
#228=EDGE_CURVE('',#298,#298,#352,.T.);
#229=EDGE_CURVE('',#299,#299,#353,.T.);
#230=EDGE_CURVE('',#300,#300,#354,.T.);
#231=EDGE_CURVE('',#301,#301,#355,.T.);
#232=EDGE_CURVE('',#302,#303,#12,.T.);
#233=EDGE_CURVE('',#302,#304,#13,.F.);
#234=EDGE_CURVE('',#304,#305,#14,.T.);
#235=EDGE_CURVE('',#305,#303,#15,.T.);
#236=EDGE_CURVE('',#306,#307,#16,.T.);
#237=EDGE_CURVE('',#306,#308,#17,.T.);
#238=EDGE_CURVE('',#308,#309,#18,.T.);
#239=EDGE_CURVE('',#309,#307,#19,.F.);
#240=EDGE_CURVE('',#310,#310,#356,.T.);
#241=EDGE_CURVE('',#311,#312,#20,.T.);
#242=EDGE_CURVE('',#312,#313,#21,.F.);
#243=EDGE_CURVE('',#314,#313,#22,.T.);
#244=EDGE_CURVE('',#314,#311,#23,.T.);
#245=EDGE_CURVE('',#315,#316,#24,.T.);
#246=EDGE_CURVE('',#315,#317,#25,.F.);
#247=EDGE_CURVE('',#317,#318,#26,.T.);
#248=EDGE_CURVE('',#318,#316,#27,.T.);
#249=EDGE_CURVE('',#319,#319,#357,.T.);
#250=EDGE_CURVE('',#320,#320,#358,.T.);
#251=EDGE_CURVE('',#321,#321,#359,.T.);
#252=EDGE_CURVE('',#322,#322,#360,.T.);
#253=EDGE_CURVE('',#304,#306,#361,.T.);
#254=EDGE_CURVE('',#307,#314,#362,.T.);
#255=EDGE_CURVE('',#313,#318,#363,.T.);
#256=EDGE_CURVE('',#317,#305,#364,.T.);
#257=EDGE_CURVE('',#323,#323,#365,.T.);
#258=EDGE_CURVE('',#324,#324,#366,.T.);
#259=EDGE_CURVE('',#325,#325,#367,.T.);
#260=EDGE_CURVE('',#326,#326,#368,.T.);
#261=EDGE_CURVE('',#308,#302,#369,.F.);
#262=EDGE_CURVE('',#303,#315,#370,.F.);
#263=EDGE_CURVE('',#316,#312,#371,.F.);
#264=EDGE_CURVE('',#311,#309,#372,.F.);
#265=EDGE_CURVE('',#327,#327,#373,.F.);
#266=EDGE_CURVE('',#328,#329,#28,.T.);
#267=EDGE_CURVE('',#330,#329,#29,.F.);
#268=EDGE_CURVE('',#331,#330,#30,.T.);
#269=EDGE_CURVE('',#328,#331,#31,.T.);
#270=EDGE_CURVE('',#332,#333,#32,.T.);
#271=EDGE_CURVE('',#334,#333,#33,.T.);
#272=EDGE_CURVE('',#335,#334,#34,.T.);
#273=EDGE_CURVE('',#332,#335,#35,.F.);
#274=EDGE_CURVE('',#336,#337,#36,.T.);
#275=EDGE_CURVE('',#338,#336,#37,.F.);
#276=EDGE_CURVE('',#338,#339,#38,.T.);
#277=EDGE_CURVE('',#337,#339,#39,.T.);
#278=EDGE_CURVE('',#340,#341,#40,.T.);
#279=EDGE_CURVE('',#342,#341,#41,.T.);
#280=EDGE_CURVE('',#343,#342,#42,.T.);
#281=EDGE_CURVE('',#340,#343,#43,.F.);
#282=EDGE_CURVE('',#344,#344,#374,.T.);
#283=EDGE_CURVE('',#345,#345,#375,.T.);
#284=EDGE_CURVE('',#346,#346,#376,.T.);
#285=EDGE_CURVE('',#347,#347,#377,.T.);
#286=EDGE_CURVE('',#343,#330,#378,.T.);
#287=EDGE_CURVE('',#339,#342,#379,.T.);
#288=EDGE_CURVE('',#333,#338,#380,.T.);
#289=EDGE_CURVE('',#331,#332,#381,.T.);
#290=EDGE_CURVE('',#348,#348,#382,.T.);
#291=EDGE_CURVE('',#349,#349,#383,.T.);
#292=EDGE_CURVE('',#350,#350,#384,.T.);
#293=EDGE_CURVE('',#351,#351,#385,.T.);
#294=EDGE_CURVE('',#336,#334,#386,.F.);
#295=EDGE_CURVE('',#341,#337,#387,.F.);
#296=EDGE_CURVE('',#329,#340,#388,.F.);
#297=EDGE_CURVE('',#335,#328,#389,.F.);
#298=VERTEX_POINT('',#825);
#299=VERTEX_POINT('',#827);
#300=VERTEX_POINT('',#830);
#301=VERTEX_POINT('',#832);
#302=VERTEX_POINT('',#835);
#303=VERTEX_POINT('',#836);
#304=VERTEX_POINT('',#838);
#305=VERTEX_POINT('',#840);
#306=VERTEX_POINT('',#844);
#307=VERTEX_POINT('',#845);
#308=VERTEX_POINT('',#847);
#309=VERTEX_POINT('',#849);
#310=VERTEX_POINT('',#853);
#311=VERTEX_POINT('',#855);
#312=VERTEX_POINT('',#856);
#313=VERTEX_POINT('',#858);
#314=VERTEX_POINT('',#860);
#315=VERTEX_POINT('',#864);
#316=VERTEX_POINT('',#865);
#317=VERTEX_POINT('',#867);
#318=VERTEX_POINT('',#869);
#319=VERTEX_POINT('',#873);
#320=VERTEX_POINT('',#875);
#321=VERTEX_POINT('',#877);
#322=VERTEX_POINT('',#879);
#323=VERTEX_POINT('',#886);
#324=VERTEX_POINT('',#888);
#325=VERTEX_POINT('',#890);
#326=VERTEX_POINT('',#892);
#327=VERTEX_POINT('',#903);
#328=VERTEX_POINT('',#906);
#329=VERTEX_POINT('',#907);
#330=VERTEX_POINT('',#909);
#331=VERTEX_POINT('',#911);
#332=VERTEX_POINT('',#915);
#333=VERTEX_POINT('',#916);
#334=VERTEX_POINT('',#918);
#335=VERTEX_POINT('',#920);
#336=VERTEX_POINT('',#924);
#337=VERTEX_POINT('',#925);
#338=VERTEX_POINT('',#927);
#339=VERTEX_POINT('',#929);
#340=VERTEX_POINT('',#933);
#341=VERTEX_POINT('',#934);
#342=VERTEX_POINT('',#936);
#343=VERTEX_POINT('',#938);
#344=VERTEX_POINT('',#942);
#345=VERTEX_POINT('',#944);
#346=VERTEX_POINT('',#946);
#347=VERTEX_POINT('',#948);
#348=VERTEX_POINT('',#955);
#349=VERTEX_POINT('',#957);
#350=VERTEX_POINT('',#959);
#351=VERTEX_POINT('',#961);
#352=CIRCLE('',#582,0.0675);
#353=CIRCLE('',#583,0.0675);
#354=CIRCLE('',#585,0.0675);
#355=CIRCLE('',#586,0.0675);
#356=CIRCLE('',#590,0.06);
#357=CIRCLE('',#593,0.0031);
#358=CIRCLE('',#594,0.0031);
#359=CIRCLE('',#595,0.0031);
#360=CIRCLE('',#596,0.0031);
#361=CIRCLE('',#597,0.008);
#362=CIRCLE('',#598,0.008);
#363=CIRCLE('',#599,0.008);
#364=CIRCLE('',#600,0.008);
#365=CIRCLE('',#602,0.0031);
#366=CIRCLE('',#603,0.0031);
#367=CIRCLE('',#604,0.0031);
#368=CIRCLE('',#605,0.0031);
#369=CIRCLE('',#606,0.008);
#370=CIRCLE('',#607,0.008);
#371=CIRCLE('',#608,0.008);
#372=CIRCLE('',#609,0.008);
#373=CIRCLE('',#615,0.06);
#374=CIRCLE('',#621,0.0031);
#375=CIRCLE('',#622,0.0031);
#376=CIRCLE('',#623,0.0031);
#377=CIRCLE('',#624,0.0031);
#378=CIRCLE('',#625,0.002);
#379=CIRCLE('',#626,0.002);
#380=CIRCLE('',#627,0.002);
#381=CIRCLE('',#628,0.002);
#382=CIRCLE('',#630,0.0031);
#383=CIRCLE('',#631,0.0031);
#384=CIRCLE('',#632,0.0031);
#385=CIRCLE('',#633,0.0031);
#386=CIRCLE('',#634,0.002);
#387=CIRCLE('',#635,0.002);
#388=CIRCLE('',#636,0.002);
#389=CIRCLE('',#637,0.002);
#390=EDGE_LOOP('',(#88));
#391=EDGE_LOOP('',(#89));
#392=EDGE_LOOP('',(#90));
#393=EDGE_LOOP('',(#91));
#394=EDGE_LOOP('',(#92,#93,#94,#95));
#395=EDGE_LOOP('',(#96,#97,#98,#99));
#396=EDGE_LOOP('',(#100));
#397=EDGE_LOOP('',(#101,#102,#103,#104));
#398=EDGE_LOOP('',(#105,#106,#107,#108));
#399=EDGE_LOOP('',(#109));
#400=EDGE_LOOP('',(#110));
#401=EDGE_LOOP('',(#111));
#402=EDGE_LOOP('',(#112));
#403=EDGE_LOOP('',(#113));
#404=EDGE_LOOP('',(#114,#115,#116,#117,#118,#119,#120,#121));
#405=EDGE_LOOP('',(#122));
#406=EDGE_LOOP('',(#123));
#407=EDGE_LOOP('',(#124));
#408=EDGE_LOOP('',(#125));
#409=EDGE_LOOP('',(#126));
#410=EDGE_LOOP('',(#127,#128,#129,#130,#131,#132,#133,#134));
#411=EDGE_LOOP('',(#135,#136,#137,#138));
#412=EDGE_LOOP('',(#139,#140,#141,#142));
#413=EDGE_LOOP('',(#143,#144,#145,#146));
#414=EDGE_LOOP('',(#147,#148,#149,#150));
#415=EDGE_LOOP('',(#151));
#416=EDGE_LOOP('',(#152));
#417=EDGE_LOOP('',(#153,#154,#155,#156));
#418=EDGE_LOOP('',(#157,#158,#159,#160));
#419=EDGE_LOOP('',(#161,#162,#163,#164));
#420=EDGE_LOOP('',(#165));
#421=EDGE_LOOP('',(#166,#167,#168,#169));
#422=EDGE_LOOP('',(#170));
#423=EDGE_LOOP('',(#171));
#424=EDGE_LOOP('',(#172));
#425=EDGE_LOOP('',(#173));
#426=EDGE_LOOP('',(#174));
#427=EDGE_LOOP('',(#175,#176,#177,#178,#179,#180,#181,#182));
#428=EDGE_LOOP('',(#183));
#429=EDGE_LOOP('',(#184));
#430=EDGE_LOOP('',(#185));
#431=EDGE_LOOP('',(#186));
#432=EDGE_LOOP('',(#187));
#433=EDGE_LOOP('',(#188,#189,#190,#191,#192,#193,#194,#195));
#434=EDGE_LOOP('',(#196,#197,#198,#199));
#435=EDGE_LOOP('',(#200,#201,#202,#203));
#436=EDGE_LOOP('',(#204,#205,#206,#207));
#437=EDGE_LOOP('',(#208,#209,#210,#211));
#438=EDGE_LOOP('',(#212));
#439=EDGE_LOOP('',(#213));
#440=EDGE_LOOP('',(#214));
#441=EDGE_LOOP('',(#215));
#442=EDGE_LOOP('',(#216));
#443=EDGE_LOOP('',(#217));
#444=EDGE_LOOP('',(#218));
#445=EDGE_LOOP('',(#219));
#446=EDGE_LOOP('',(#220));
#447=EDGE_LOOP('',(#221));
#448=EDGE_LOOP('',(#222));
#449=EDGE_LOOP('',(#223));
#450=EDGE_LOOP('',(#224));
#451=EDGE_LOOP('',(#225));
#452=EDGE_LOOP('',(#226));
#453=EDGE_LOOP('',(#227));
#454=FACE_BOUND('',#390,.T.);
#455=FACE_BOUND('',#391,.T.);
#456=FACE_BOUND('',#392,.T.);
#457=FACE_BOUND('',#393,.T.);
#458=FACE_BOUND('',#394,.T.);
#459=FACE_BOUND('',#395,.T.);
#460=FACE_BOUND('',#396,.T.);
#461=FACE_BOUND('',#397,.T.);
#462=FACE_BOUND('',#398,.T.);
#463=FACE_BOUND('',#399,.T.);
#464=FACE_BOUND('',#400,.T.);
#465=FACE_BOUND('',#401,.T.);
#466=FACE_BOUND('',#402,.T.);
#467=FACE_BOUND('',#403,.T.);
#468=FACE_BOUND('',#404,.T.);
#469=FACE_BOUND('',#405,.T.);
#470=FACE_BOUND('',#406,.T.);
#471=FACE_BOUND('',#407,.T.);
#472=FACE_BOUND('',#408,.T.);
#473=FACE_BOUND('',#409,.T.);
#474=FACE_BOUND('',#410,.T.);
#475=FACE_BOUND('',#411,.T.);
#476=FACE_BOUND('',#412,.T.);
#477=FACE_BOUND('',#413,.T.);
#478=FACE_BOUND('',#414,.T.);
#479=FACE_BOUND('',#415,.T.);
#480=FACE_BOUND('',#416,.T.);
#481=FACE_BOUND('',#417,.T.);
#482=FACE_BOUND('',#418,.T.);
#483=FACE_BOUND('',#419,.T.);
#484=FACE_BOUND('',#420,.T.);
#485=FACE_BOUND('',#421,.T.);
#486=FACE_BOUND('',#422,.T.);
#487=FACE_BOUND('',#423,.T.);
#488=FACE_BOUND('',#424,.T.);
#489=FACE_BOUND('',#425,.T.);
#490=FACE_BOUND('',#426,.T.);
#491=FACE_BOUND('',#427,.T.);
#492=FACE_BOUND('',#428,.T.);
#493=FACE_BOUND('',#429,.T.);
#494=FACE_BOUND('',#430,.T.);
#495=FACE_BOUND('',#431,.T.);
#496=FACE_BOUND('',#432,.T.);
#497=FACE_BOUND('',#433,.T.);
#498=FACE_BOUND('',#434,.T.);
#499=FACE_BOUND('',#435,.T.);
#500=FACE_BOUND('',#436,.T.);
#501=FACE_BOUND('',#437,.T.);
#502=FACE_BOUND('',#438,.T.);
#503=FACE_BOUND('',#439,.T.);
#504=FACE_BOUND('',#440,.T.);
#505=FACE_BOUND('',#441,.T.);
#506=FACE_BOUND('',#442,.T.);
#507=FACE_BOUND('',#443,.T.);
#508=FACE_BOUND('',#444,.T.);
#509=FACE_BOUND('',#445,.T.);
#510=FACE_BOUND('',#446,.T.);
#511=FACE_BOUND('',#447,.T.);
#512=FACE_BOUND('',#448,.T.);
#513=FACE_BOUND('',#449,.T.);
#514=FACE_BOUND('',#450,.T.);
#515=FACE_BOUND('',#451,.T.);
#516=FACE_BOUND('',#452,.T.);
#517=FACE_BOUND('',#453,.T.);
#518=CYLINDRICAL_SURFACE('',#581,0.0675);
#519=CYLINDRICAL_SURFACE('',#584,0.0675);
#520=CYLINDRICAL_SURFACE('',#610,0.008);
#521=CYLINDRICAL_SURFACE('',#611,0.008);
#522=CYLINDRICAL_SURFACE('',#612,0.008);
#523=CYLINDRICAL_SURFACE('',#613,0.008);
#524=CYLINDRICAL_SURFACE('',#614,0.06);
#525=CYLINDRICAL_SURFACE('',#638,0.002);
#526=CYLINDRICAL_SURFACE('',#639,0.002);
#527=CYLINDRICAL_SURFACE('',#640,0.002);
#528=CYLINDRICAL_SURFACE('',#641,0.002);
#529=CYLINDRICAL_SURFACE('',#642,0.0031);
#530=CYLINDRICAL_SURFACE('',#643,0.0031);
#531=CYLINDRICAL_SURFACE('',#644,0.0031);
#532=CYLINDRICAL_SURFACE('',#645,0.0031);
#533=CYLINDRICAL_SURFACE('',#646,0.0031);
#534=CYLINDRICAL_SURFACE('',#647,0.0031);
#535=CYLINDRICAL_SURFACE('',#648,0.0031);
#536=CYLINDRICAL_SURFACE('',#649,0.0031);
#537=ADVANCED_FACE('',(#454,#455),#518,.F.);
#538=ADVANCED_FACE('',(#456,#457),#519,.F.);
#539=ADVANCED_FACE('',(#458),#76,.T.);
#540=ADVANCED_FACE('',(#459),#77,.F.);
#541=ADVANCED_FACE('',(#460,#461),#78,.F.);
#542=ADVANCED_FACE('',(#462),#79,.T.);
#543=ADVANCED_FACE('',(#463,#464,#465,#466,#467,#468),#80,.T.);
#544=ADVANCED_FACE('',(#469,#470,#471,#472,#473,#474),#81,.F.);
#545=ADVANCED_FACE('',(#475),#520,.T.);
#546=ADVANCED_FACE('',(#476),#521,.T.);
#547=ADVANCED_FACE('',(#477),#522,.T.);
#548=ADVANCED_FACE('',(#478),#523,.T.);
#549=ADVANCED_FACE('',(#479,#480),#524,.F.);
#550=ADVANCED_FACE('',(#481),#82,.F.);
#551=ADVANCED_FACE('',(#482),#83,.T.);
#552=ADVANCED_FACE('',(#483,#484),#84,.T.);
#553=ADVANCED_FACE('',(#485),#85,.F.);
#554=ADVANCED_FACE('',(#486,#487,#488,#489,#490,#491),#86,.F.);
#555=ADVANCED_FACE('',(#492,#493,#494,#495,#496,#497),#87,.T.);
#556=ADVANCED_FACE('',(#498),#525,.F.);
#557=ADVANCED_FACE('',(#499),#526,.F.);
#558=ADVANCED_FACE('',(#500),#527,.F.);
#559=ADVANCED_FACE('',(#501),#528,.F.);
#560=ADVANCED_FACE('',(#502,#503),#529,.F.);
#561=ADVANCED_FACE('',(#504,#505),#530,.F.);
#562=ADVANCED_FACE('',(#506,#507),#531,.F.);
#563=ADVANCED_FACE('',(#508,#509),#532,.F.);
#564=ADVANCED_FACE('',(#510,#511),#533,.F.);
#565=ADVANCED_FACE('',(#512,#513),#534,.F.);
#566=ADVANCED_FACE('',(#514,#515),#535,.F.);
#567=ADVANCED_FACE('',(#516,#517),#536,.F.);
#568=CLOSED_SHELL('',(#537,#538,#539,#540,#541,#542,#543,#544,#545,#546,
#547,#548,#549,#550,#551,#552,#553,#554,#555,#556,#557,#558,#559,#560,#561,
#562,#563,#564,#565,#566,#567));
#569=STYLED_ITEM('',(#570),#577);
#570=PRESENTATION_STYLE_ASSIGNMENT((#571));
#571=SURFACE_STYLE_USAGE(.BOTH.,#572);
#572=SURFACE_SIDE_STYLE('',(#573));
#573=SURFACE_STYLE_FILL_AREA(#574);
#574=FILL_AREA_STYLE('',(#575));
#575=FILL_AREA_STYLE_COLOUR('',#576);
#576=COLOUR_RGB('',0.615686274509804,0.811764705882353,0.929411764705882);
#577=MANIFOLD_SOLID_BREP('Middle Part',#568);
#578=SHAPE_DEFINITION_REPRESENTATION(#984,#579);
#579=SHAPE_REPRESENTATION('Middle Part',(#580),#979);
#580=AXIS2_PLACEMENT_3D('',#822,#650,#651);
#581=AXIS2_PLACEMENT_3D('',#823,#652,#653);
#582=AXIS2_PLACEMENT_3D('',#824,#654,#655);
#583=AXIS2_PLACEMENT_3D('',#826,#656,#657);
#584=AXIS2_PLACEMENT_3D('',#828,#658,#659);
#585=AXIS2_PLACEMENT_3D('',#829,#660,#661);
#586=AXIS2_PLACEMENT_3D('',#831,#662,#663);
#587=AXIS2_PLACEMENT_3D('',#833,#664,#665);
#588=AXIS2_PLACEMENT_3D('',#842,#670,#671);
#589=AXIS2_PLACEMENT_3D('',#851,#676,#677);
#590=AXIS2_PLACEMENT_3D('',#852,#678,#679);
#591=AXIS2_PLACEMENT_3D('',#862,#684,#685);
#592=AXIS2_PLACEMENT_3D('',#871,#690,#691);
#593=AXIS2_PLACEMENT_3D('',#872,#692,#693);
#594=AXIS2_PLACEMENT_3D('',#874,#694,#695);
#595=AXIS2_PLACEMENT_3D('',#876,#696,#697);
#596=AXIS2_PLACEMENT_3D('',#878,#698,#699);
#597=AXIS2_PLACEMENT_3D('',#880,#700,#701);
#598=AXIS2_PLACEMENT_3D('',#881,#702,#703);
#599=AXIS2_PLACEMENT_3D('',#882,#704,#705);
#600=AXIS2_PLACEMENT_3D('',#883,#706,#707);
#601=AXIS2_PLACEMENT_3D('',#884,#708,#709);
#602=AXIS2_PLACEMENT_3D('',#885,#710,#711);
#603=AXIS2_PLACEMENT_3D('',#887,#712,#713);
#604=AXIS2_PLACEMENT_3D('',#889,#714,#715);
#605=AXIS2_PLACEMENT_3D('',#891,#716,#717);
#606=AXIS2_PLACEMENT_3D('',#893,#718,#719);
#607=AXIS2_PLACEMENT_3D('',#894,#720,#721);
#608=AXIS2_PLACEMENT_3D('',#895,#722,#723);
#609=AXIS2_PLACEMENT_3D('',#896,#724,#725);
#610=AXIS2_PLACEMENT_3D('',#897,#726,#727);
#611=AXIS2_PLACEMENT_3D('',#898,#728,#729);
#612=AXIS2_PLACEMENT_3D('',#899,#730,#731);
#613=AXIS2_PLACEMENT_3D('',#900,#732,#733);
#614=AXIS2_PLACEMENT_3D('',#901,#734,#735);
#615=AXIS2_PLACEMENT_3D('',#902,#736,#737);
#616=AXIS2_PLACEMENT_3D('',#904,#738,#739);
#617=AXIS2_PLACEMENT_3D('',#913,#744,#745);
#618=AXIS2_PLACEMENT_3D('',#922,#750,#751);
#619=AXIS2_PLACEMENT_3D('',#931,#756,#757);
#620=AXIS2_PLACEMENT_3D('',#940,#762,#763);
#621=AXIS2_PLACEMENT_3D('',#941,#764,#765);
#622=AXIS2_PLACEMENT_3D('',#943,#766,#767);
#623=AXIS2_PLACEMENT_3D('',#945,#768,#769);
#624=AXIS2_PLACEMENT_3D('',#947,#770,#771);
#625=AXIS2_PLACEMENT_3D('',#949,#772,#773);
#626=AXIS2_PLACEMENT_3D('',#950,#774,#775);
#627=AXIS2_PLACEMENT_3D('',#951,#776,#777);
#628=AXIS2_PLACEMENT_3D('',#952,#778,#779);
#629=AXIS2_PLACEMENT_3D('',#953,#780,#781);
#630=AXIS2_PLACEMENT_3D('',#954,#782,#783);
#631=AXIS2_PLACEMENT_3D('',#956,#784,#785);
#632=AXIS2_PLACEMENT_3D('',#958,#786,#787);
#633=AXIS2_PLACEMENT_3D('',#960,#788,#789);
#634=AXIS2_PLACEMENT_3D('',#962,#790,#791);
#635=AXIS2_PLACEMENT_3D('',#963,#792,#793);
#636=AXIS2_PLACEMENT_3D('',#964,#794,#795);
#637=AXIS2_PLACEMENT_3D('',#965,#796,#797);
#638=AXIS2_PLACEMENT_3D('',#966,#798,#799);
#639=AXIS2_PLACEMENT_3D('',#967,#800,#801);
#640=AXIS2_PLACEMENT_3D('',#968,#802,#803);
#641=AXIS2_PLACEMENT_3D('',#969,#804,#805);
#642=AXIS2_PLACEMENT_3D('',#970,#806,#807);
#643=AXIS2_PLACEMENT_3D('',#971,#808,#809);
#644=AXIS2_PLACEMENT_3D('',#972,#810,#811);
#645=AXIS2_PLACEMENT_3D('',#973,#812,#813);
#646=AXIS2_PLACEMENT_3D('',#974,#814,#815);
#647=AXIS2_PLACEMENT_3D('',#975,#816,#817);
#648=AXIS2_PLACEMENT_3D('',#976,#818,#819);
#649=AXIS2_PLACEMENT_3D('',#977,#820,#821);
#650=DIRECTION('',(0.,0.,1.));
#651=DIRECTION('',(1.,0.,0.));
#652=DIRECTION('',(0.,0.,1.));
#653=DIRECTION('',(1.,0.,0.));
#654=DIRECTION('',(0.,0.,1.));
#655=DIRECTION('',(1.,0.,0.));
#656=DIRECTION('',(0.,0.,1.));
#657=DIRECTION('',(1.,0.,0.));
#658=DIRECTION('',(0.,0.,1.));
#659=DIRECTION('',(1.,0.,0.));
#660=DIRECTION('',(0.,0.,1.));
#661=DIRECTION('',(1.,0.,0.));
#662=DIRECTION('',(0.,0.,1.));
#663=DIRECTION('',(1.,0.,0.));
#664=DIRECTION('',(0.,1.,0.));
#665=DIRECTION('',(0.,0.,1.));
#666=DIRECTION('',(1.,0.,0.));
#667=DIRECTION('',(0.,0.,-1.));
#668=DIRECTION('',(1.,0.,0.));
#669=DIRECTION('',(0.,0.,-1.));
#670=DIRECTION('',(1.,9.25185853854297E-17,0.));
#671=DIRECTION('',(-9.25185853854297E-17,1.,0.));
#672=DIRECTION('',(9.25185853854297E-17,-1.,0.));
#673=DIRECTION('',(0.,0.,-1.));
#674=DIRECTION('',(9.25185853854297E-17,-1.,0.));
#675=DIRECTION('',(0.,0.,-1.));
#676=DIRECTION('',(0.,1.,0.));
#677=DIRECTION('',(0.,0.,1.));
#678=DIRECTION('',(0.,-1.,0.));
#679=DIRECTION('',(0.,0.,-1.));
#680=DIRECTION('',(1.,0.,0.));
#681=DIRECTION('',(0.,0.,-1.));
#682=DIRECTION('',(1.,0.,0.));
#683=DIRECTION('',(0.,0.,-1.));
#684=DIRECTION('',(1.,0.,0.));
#685=DIRECTION('',(0.,0.,-1.));
#686=DIRECTION('',(0.,-1.,0.));
#687=DIRECTION('',(0.,0.,-1.));
#688=DIRECTION('',(0.,-1.,0.));
#689=DIRECTION('',(0.,0.,-1.));
#690=DIRECTION('',(0.,0.,1.));
#691=DIRECTION('',(1.,0.,0.));
#692=DIRECTION('',(0.,0.,1.));
#693=DIRECTION('',(1.,0.,0.));
#694=DIRECTION('',(0.,0.,1.));
#695=DIRECTION('',(1.,0.,0.));
#696=DIRECTION('',(0.,0.,1.));
#697=DIRECTION('',(1.,0.,0.));
#698=DIRECTION('',(0.,0.,1.));
#699=DIRECTION('',(1.,0.,0.));
#700=DIRECTION('',(0.,0.,1.));
#701=DIRECTION('',(1.,0.,0.));
#702=DIRECTION('',(0.,0.,1.));
#703=DIRECTION('',(1.,0.,0.));
#704=DIRECTION('',(0.,0.,1.));
#705=DIRECTION('',(1.,0.,0.));
#706=DIRECTION('',(0.,0.,1.));
#707=DIRECTION('',(1.,0.,0.));
#708=DIRECTION('',(0.,0.,1.));
#709=DIRECTION('',(1.,0.,0.));
#710=DIRECTION('',(0.,0.,1.));
#711=DIRECTION('',(1.,0.,0.));
#712=DIRECTION('',(0.,0.,1.));
#713=DIRECTION('',(1.,0.,0.));
#714=DIRECTION('',(0.,0.,1.));
#715=DIRECTION('',(1.,0.,0.));
#716=DIRECTION('',(0.,0.,1.));
#717=DIRECTION('',(1.,0.,0.));
#718=DIRECTION('',(0.,0.,1.));
#719=DIRECTION('',(1.,0.,0.));
#720=DIRECTION('',(0.,0.,1.));
#721=DIRECTION('',(1.,0.,0.));
#722=DIRECTION('',(0.,0.,1.));
#723=DIRECTION('',(1.,0.,0.));
#724=DIRECTION('',(0.,0.,1.));
#725=DIRECTION('',(1.,0.,0.));
#726=DIRECTION('',(0.,0.,-1.));
#727=DIRECTION('',(-1.,0.,0.));
#728=DIRECTION('',(0.,0.,1.));
#729=DIRECTION('',(1.,0.,0.));
#730=DIRECTION('',(0.,0.,-1.));
#731=DIRECTION('',(-1.,0.,0.));
#732=DIRECTION('',(0.,0.,1.));
#733=DIRECTION('',(1.,0.,0.));
#734=DIRECTION('',(0.,-1.,0.));
#735=DIRECTION('',(0.,0.,-1.));
#736=DIRECTION('',(0.,-1.,0.));
#737=DIRECTION('',(0.,0.,-1.));
#738=DIRECTION('',(0.,1.,0.));
#739=DIRECTION('',(0.,0.,1.));
#740=DIRECTION('',(1.,0.,0.));
#741=DIRECTION('',(0.,0.,1.));
#742=DIRECTION('',(1.,0.,0.));
#743=DIRECTION('',(0.,0.,1.));
#744=DIRECTION('',(1.,9.25185853854297E-17,0.));
#745=DIRECTION('',(-9.25185853854297E-17,1.,0.));
#746=DIRECTION('',(9.25185853854297E-17,-1.,0.));
#747=DIRECTION('',(0.,0.,1.));
#748=DIRECTION('',(9.25185853854297E-17,-1.,0.));
#749=DIRECTION('',(0.,0.,1.));
#750=DIRECTION('',(0.,1.,0.));
#751=DIRECTION('',(0.,0.,1.));
#752=DIRECTION('',(1.,0.,0.));
#753=DIRECTION('',(0.,0.,1.));
#754=DIRECTION('',(1.,0.,0.));
#755=DIRECTION('',(0.,0.,1.));
#756=DIRECTION('',(1.,0.,0.));
#757=DIRECTION('',(0.,0.,-1.));
#758=DIRECTION('',(0.,-1.,0.));
#759=DIRECTION('',(0.,0.,-1.));
#760=DIRECTION('',(0.,-1.,0.));
#761=DIRECTION('',(0.,0.,-1.));
#762=DIRECTION('',(0.,0.,1.));
#763=DIRECTION('',(1.,0.,0.));
#764=DIRECTION('',(0.,0.,1.));
#765=DIRECTION('',(1.,0.,0.));
#766=DIRECTION('',(0.,0.,1.));
#767=DIRECTION('',(1.,0.,0.));
#768=DIRECTION('',(0.,0.,1.));
#769=DIRECTION('',(1.,0.,0.));
#770=DIRECTION('',(0.,0.,1.));
#771=DIRECTION('',(1.,0.,0.));
#772=DIRECTION('',(0.,0.,1.));
#773=DIRECTION('',(1.,0.,0.));
#774=DIRECTION('',(0.,0.,1.));
#775=DIRECTION('',(1.,0.,0.));
#776=DIRECTION('',(0.,0.,1.));
#777=DIRECTION('',(1.,0.,0.));
#778=DIRECTION('',(0.,0.,1.));
#779=DIRECTION('',(1.,0.,0.));
#780=DIRECTION('',(0.,0.,1.));
#781=DIRECTION('',(1.,0.,0.));
#782=DIRECTION('',(0.,0.,1.));
#783=DIRECTION('',(1.,0.,0.));
#784=DIRECTION('',(0.,0.,1.));
#785=DIRECTION('',(1.,0.,0.));
#786=DIRECTION('',(0.,0.,1.));
#787=DIRECTION('',(1.,0.,0.));
#788=DIRECTION('',(0.,0.,1.));
#789=DIRECTION('',(1.,0.,0.));
#790=DIRECTION('',(0.,0.,1.));
#791=DIRECTION('',(1.,0.,0.));
#792=DIRECTION('',(0.,0.,1.));
#793=DIRECTION('',(1.,0.,0.));
#794=DIRECTION('',(0.,0.,1.));
#795=DIRECTION('',(1.,0.,0.));
#796=DIRECTION('',(0.,0.,1.));
#797=DIRECTION('',(1.,0.,0.));
#798=DIRECTION('',(0.,0.,-1.));
#799=DIRECTION('',(-1.,0.,0.));
#800=DIRECTION('',(0.,0.,1.));
#801=DIRECTION('',(1.,0.,0.));
#802=DIRECTION('',(0.,0.,-1.));
#803=DIRECTION('',(-1.,0.,0.));
#804=DIRECTION('',(0.,0.,1.));
#805=DIRECTION('',(1.,0.,0.));
#806=DIRECTION('',(0.,0.,1.));
#807=DIRECTION('',(1.,0.,0.));
#808=DIRECTION('',(0.,0.,1.));
#809=DIRECTION('',(1.,0.,0.));
#810=DIRECTION('',(0.,0.,1.));
#811=DIRECTION('',(1.,0.,0.));
#812=DIRECTION('',(0.,0.,1.));
#813=DIRECTION('',(1.,0.,0.));
#814=DIRECTION('',(0.,0.,1.));
#815=DIRECTION('',(1.,0.,0.));
#816=DIRECTION('',(0.,0.,1.));
#817=DIRECTION('',(1.,0.,0.));
#818=DIRECTION('',(0.,0.,1.));
#819=DIRECTION('',(1.,0.,0.));
#820=DIRECTION('',(0.,0.,1.));
#821=DIRECTION('',(1.,0.,0.));
#822=CARTESIAN_POINT('',(0.,0.,0.));
#823=CARTESIAN_POINT('',(-0.0109239116311073,0.0395869545638561,0.));
#824=CARTESIAN_POINT('',(-0.0109239116311073,0.0395869545638561,0.15));
#825=CARTESIAN_POINT('',(0.0565760883688927,0.0395869545638561,0.15));
#826=CARTESIAN_POINT('',(-0.0109239116311073,0.0395869545638561,0.144));
#827=CARTESIAN_POINT('',(0.0565760883688927,0.0395869545638561,0.144));
#828=CARTESIAN_POINT('',(-0.0109239116311073,0.0395869545638561,0.));
#829=CARTESIAN_POINT('',(-0.0109239116311073,0.0395869545638561,0.006));
#830=CARTESIAN_POINT('',(0.0565760883688927,0.0395869545638561,0.006));
#831=CARTESIAN_POINT('',(-0.0109239116311073,0.0395869545638561,0.));
#832=CARTESIAN_POINT('',(0.0565760883688927,0.0395869545638561,0.));
#833=CARTESIAN_POINT('',(-0.0109239116311073,0.114586954563856,0.15));
#834=CARTESIAN_POINT('',(-0.0109239116311073,0.114586954563856,0.));
#835=CARTESIAN_POINT('',(-0.0779239116311073,0.114586954563856,0.));
#836=CARTESIAN_POINT('',(0.0560760883688927,0.114586954563856,0.));
#837=CARTESIAN_POINT('',(-0.0779239116311073,0.114586954563856,0.15));
#838=CARTESIAN_POINT('',(-0.0779239116311073,0.114586954563856,0.15));
#839=CARTESIAN_POINT('',(-0.0109239116311073,0.114586954563856,0.15));
#840=CARTESIAN_POINT('',(0.0560760883688927,0.114586954563856,0.15));
#841=CARTESIAN_POINT('',(0.0560760883688927,0.114586954563856,0.15));
#842=CARTESIAN_POINT('',(-0.0859239116311073,0.0395869545638561,0.15));
#843=CARTESIAN_POINT('',(-0.0859239116311073,0.0395869545638561,0.15));
#844=CARTESIAN_POINT('',(-0.0859239116311073,0.106586954563856,0.15));
#845=CARTESIAN_POINT('',(-0.0859239116311073,-0.0274130454361439,0.15));
#846=CARTESIAN_POINT('',(-0.0859239116311073,0.106586954563856,0.));
#847=CARTESIAN_POINT('',(-0.0859239116311073,0.106586954563856,0.));
#848=CARTESIAN_POINT('',(-0.0859239116311073,0.0395869545638561,0.));
#849=CARTESIAN_POINT('',(-0.0859239116311073,-0.0274130454361439,0.));
#850=CARTESIAN_POINT('',(-0.0859239116311073,-0.0274130454361439,0.15));
#851=CARTESIAN_POINT('',(-0.0109239116311073,-0.0354130454361439,0.15));
#852=CARTESIAN_POINT('',(-0.0109239116311073,-0.0354130454361439,0.075));
#853=CARTESIAN_POINT('',(-0.0109239116311073,-0.0354130454361439,0.015));
#854=CARTESIAN_POINT('',(-0.0109239116311073,-0.0354130454361439,0.));
#855=CARTESIAN_POINT('',(-0.0779239116311073,-0.0354130454361439,0.));
#856=CARTESIAN_POINT('',(0.0560760883688927,-0.0354130454361439,0.));
#857=CARTESIAN_POINT('',(0.0560760883688927,-0.0354130454361439,0.15));
#858=CARTESIAN_POINT('',(0.0560760883688927,-0.0354130454361439,0.15));
#859=CARTESIAN_POINT('',(-0.0109239116311073,-0.0354130454361439,0.15));
#860=CARTESIAN_POINT('',(-0.0779239116311073,-0.0354130454361439,0.15));
#861=CARTESIAN_POINT('',(-0.0779239116311073,-0.0354130454361439,0.15));
#862=CARTESIAN_POINT('',(0.0640760883688927,0.0395869545638561,0.15));
#863=CARTESIAN_POINT('',(0.0640760883688927,0.0395869545638561,0.));
#864=CARTESIAN_POINT('',(0.0640760883688927,0.106586954563856,0.));
#865=CARTESIAN_POINT('',(0.0640760883688927,-0.0274130454361439,0.));
#866=CARTESIAN_POINT('',(0.0640760883688927,0.106586954563856,0.15));
#867=CARTESIAN_POINT('',(0.0640760883688927,0.106586954563856,0.15));
#868=CARTESIAN_POINT('',(0.0640760883688927,0.0395869545638561,0.15));
#869=CARTESIAN_POINT('',(0.0640760883688927,-0.0274130454361439,0.15));
#870=CARTESIAN_POINT('',(0.0640760883688927,-0.0274130454361439,0.));
#871=CARTESIAN_POINT('',(-0.0109239116311073,0.0395869545638561,0.15));
#872=CARTESIAN_POINT('',(0.0474123978167828,0.0979232640117463,0.15));
#873=CARTESIAN_POINT('',(0.0505123978167828,0.0979232640117463,0.15));
#874=CARTESIAN_POINT('',(-0.0692602210789975,-0.0187493548840341,0.15));
#875=CARTESIAN_POINT('',(-0.0661602210789975,-0.0187493548840341,0.15));
#876=CARTESIAN_POINT('',(0.0474123978167828,-0.0187493548840341,0.15));
#877=CARTESIAN_POINT('',(0.0505123978167828,-0.0187493548840341,0.15));
#878=CARTESIAN_POINT('',(-0.0692602210789975,0.0979232640117463,0.15));
#879=CARTESIAN_POINT('',(-0.0661602210789975,0.0979232640117463,0.15));
#880=CARTESIAN_POINT('',(-0.0779239116311073,0.106586954563856,0.15));
#881=CARTESIAN_POINT('',(-0.0779239116311073,-0.0274130454361439,0.15));
#882=CARTESIAN_POINT('',(0.0560760883688927,-0.0274130454361439,0.15));
#883=CARTESIAN_POINT('',(0.0560760883688927,0.106586954563856,0.15));
#884=CARTESIAN_POINT('',(-0.0109239116311073,0.0395869545638561,0.));
#885=CARTESIAN_POINT('',(0.0474123978167828,0.0979232640117463,0.));
#886=CARTESIAN_POINT('',(0.0505123978167828,0.0979232640117463,0.));
#887=CARTESIAN_POINT('',(-0.0692602210789975,-0.0187493548840341,0.));
#888=CARTESIAN_POINT('',(-0.0661602210789975,-0.0187493548840341,0.));
#889=CARTESIAN_POINT('',(0.0474123978167828,-0.0187493548840341,0.));
#890=CARTESIAN_POINT('',(0.0505123978167828,-0.0187493548840341,0.));
#891=CARTESIAN_POINT('',(-0.0692602210789975,0.0979232640117463,0.));
#892=CARTESIAN_POINT('',(-0.0661602210789975,0.0979232640117463,0.));
#893=CARTESIAN_POINT('',(-0.0779239116311073,0.106586954563856,0.));
#894=CARTESIAN_POINT('',(0.0560760883688927,0.106586954563856,0.));
#895=CARTESIAN_POINT('',(0.0560760883688927,-0.0274130454361439,0.));
#896=CARTESIAN_POINT('',(-0.0779239116311073,-0.0274130454361439,0.));
#897=CARTESIAN_POINT('',(-0.0779239116311073,-0.0274130454361439,0.15));
#898=CARTESIAN_POINT('',(0.0560760883688927,-0.0274130454361439,0.15));
#899=CARTESIAN_POINT('',(0.0560760883688927,0.106586954563856,0.15));
#900=CARTESIAN_POINT('',(-0.0779239116311073,0.106586954563856,0.15));
#901=CARTESIAN_POINT('',(-0.0109239116311073,-0.0104130454361439,0.075));
#902=CARTESIAN_POINT('',(-0.0109239116311073,-0.0294130454361439,0.075));
#903=CARTESIAN_POINT('',(-0.0109239116311073,-0.0294130454361439,0.015));
#904=CARTESIAN_POINT('',(-0.0109239116311073,0.108586954563856,0.15));
#905=CARTESIAN_POINT('',(-0.0109239116311073,0.108586954563856,0.006));
#906=CARTESIAN_POINT('',(-0.0779239116311073,0.108586954563856,0.006));
#907=CARTESIAN_POINT('',(0.0560760883688927,0.108586954563856,0.006));
#908=CARTESIAN_POINT('',(0.0560760883688927,0.108586954563856,0.15));
#909=CARTESIAN_POINT('',(0.0560760883688927,0.108586954563856,0.144));
#910=CARTESIAN_POINT('',(-0.0109239116311073,0.108586954563856,0.144));
#911=CARTESIAN_POINT('',(-0.0779239116311073,0.108586954563856,0.144));
#912=CARTESIAN_POINT('',(-0.0779239116311073,0.108586954563856,0.15));
#913=CARTESIAN_POINT('',(-0.0799239116311073,0.0395869545638561,0.15));
#914=CARTESIAN_POINT('',(-0.0799239116311073,0.0395869545638561,0.144));
#915=CARTESIAN_POINT('',(-0.0799239116311073,0.106586954563856,0.144));
#916=CARTESIAN_POINT('',(-0.0799239116311073,-0.0274130454361439,0.144));
#917=CARTESIAN_POINT('',(-0.0799239116311073,-0.0274130454361439,0.15));
#918=CARTESIAN_POINT('',(-0.0799239116311073,-0.0274130454361439,0.006));
#919=CARTESIAN_POINT('',(-0.0799239116311073,0.0395869545638561,0.006));
#920=CARTESIAN_POINT('',(-0.0799239116311073,0.106586954563856,0.006));
#921=CARTESIAN_POINT('',(-0.0799239116311073,0.106586954563856,0.15));
#922=CARTESIAN_POINT('',(-0.0109239116311073,-0.0294130454361439,0.15));
#923=CARTESIAN_POINT('',(-0.0109239116311073,-0.0294130454361439,0.006));
#924=CARTESIAN_POINT('',(-0.0779239116311073,-0.0294130454361439,0.006));
#925=CARTESIAN_POINT('',(0.0560760883688927,-0.0294130454361439,0.006));
#926=CARTESIAN_POINT('',(-0.0779239116311073,-0.0294130454361439,0.15));
#927=CARTESIAN_POINT('',(-0.0779239116311073,-0.0294130454361439,0.144));
#928=CARTESIAN_POINT('',(-0.0109239116311073,-0.0294130454361439,0.144));
#929=CARTESIAN_POINT('',(0.0560760883688927,-0.0294130454361439,0.144));
#930=CARTESIAN_POINT('',(0.0560760883688927,-0.0294130454361439,0.15));
#931=CARTESIAN_POINT('',(0.0580760883688927,0.0395869545638561,0.15));
#932=CARTESIAN_POINT('',(0.0580760883688927,0.0395869545638561,0.006));
#933=CARTESIAN_POINT('',(0.0580760883688927,0.106586954563856,0.006));
#934=CARTESIAN_POINT('',(0.0580760883688927,-0.0274130454361439,0.006));
#935=CARTESIAN_POINT('',(0.0580760883688927,-0.0274130454361439,0.15));
#936=CARTESIAN_POINT('',(0.0580760883688927,-0.0274130454361439,0.144));
#937=CARTESIAN_POINT('',(0.0580760883688927,0.0395869545638561,0.144));
#938=CARTESIAN_POINT('',(0.0580760883688927,0.106586954563856,0.144));
#939=CARTESIAN_POINT('',(0.0580760883688927,0.106586954563856,0.15));
#940=CARTESIAN_POINT('',(-0.0109239116311073,0.0395869545638561,0.144));
#941=CARTESIAN_POINT('',(0.0474123978167828,0.0979232640117463,0.144));
#942=CARTESIAN_POINT('',(0.0505123978167828,0.0979232640117463,0.144));
#943=CARTESIAN_POINT('',(-0.0692602210789975,-0.0187493548840341,0.144));
#944=CARTESIAN_POINT('',(-0.0661602210789975,-0.0187493548840341,0.144));
#945=CARTESIAN_POINT('',(0.0474123978167828,-0.0187493548840341,0.144));
#946=CARTESIAN_POINT('',(0.0505123978167828,-0.0187493548840341,0.144));
#947=CARTESIAN_POINT('',(-0.0692602210789975,0.0979232640117463,0.144));
#948=CARTESIAN_POINT('',(-0.0661602210789975,0.0979232640117463,0.144));
#949=CARTESIAN_POINT('',(0.0560760883688927,0.106586954563856,0.144));
#950=CARTESIAN_POINT('',(0.0560760883688927,-0.0274130454361439,0.144));
#951=CARTESIAN_POINT('',(-0.0779239116311073,-0.0274130454361439,0.144));
#952=CARTESIAN_POINT('',(-0.0779239116311073,0.106586954563856,0.144));
#953=CARTESIAN_POINT('',(-0.0109239116311073,0.0395869545638561,0.006));
#954=CARTESIAN_POINT('',(0.0474123978167828,0.0979232640117463,0.006));
#955=CARTESIAN_POINT('',(0.0505123978167828,0.0979232640117463,0.006));
#956=CARTESIAN_POINT('',(-0.0692602210789975,-0.0187493548840341,0.006));
#957=CARTESIAN_POINT('',(-0.0661602210789975,-0.0187493548840341,0.006));
#958=CARTESIAN_POINT('',(0.0474123978167828,-0.0187493548840341,0.006));
#959=CARTESIAN_POINT('',(0.0505123978167828,-0.0187493548840341,0.006));
#960=CARTESIAN_POINT('',(-0.0692602210789975,0.0979232640117463,0.006));
#961=CARTESIAN_POINT('',(-0.0661602210789975,0.0979232640117463,0.006));
#962=CARTESIAN_POINT('',(-0.0779239116311073,-0.0274130454361439,0.006));
#963=CARTESIAN_POINT('',(0.0560760883688927,-0.0274130454361439,0.006));
#964=CARTESIAN_POINT('',(0.0560760883688927,0.106586954563856,0.006));
#965=CARTESIAN_POINT('',(-0.0779239116311073,0.106586954563856,0.006));
#966=CARTESIAN_POINT('',(-0.0779239116311073,-0.0274130454361439,0.15));
#967=CARTESIAN_POINT('',(0.0560760883688927,-0.0274130454361439,0.15));
#968=CARTESIAN_POINT('',(0.0560760883688927,0.106586954563856,0.15));
#969=CARTESIAN_POINT('',(-0.0779239116311073,0.106586954563856,0.15));
#970=CARTESIAN_POINT('',(-0.0692602210789975,0.0979232640117463,-0.025));
#971=CARTESIAN_POINT('',(0.0474123978167828,-0.0187493548840341,-0.025));
#972=CARTESIAN_POINT('',(-0.0692602210789975,-0.0187493548840341,-0.025));
#973=CARTESIAN_POINT('',(0.0474123978167828,0.0979232640117463,-0.025));
#974=CARTESIAN_POINT('',(-0.0692602210789975,0.0979232640117463,-0.025));
#975=CARTESIAN_POINT('',(0.0474123978167828,-0.0187493548840341,-0.025));
#976=CARTESIAN_POINT('',(-0.0692602210789975,-0.0187493548840341,-0.025));
#977=CARTESIAN_POINT('',(0.0474123978167828,0.0979232640117463,-0.025));
#978=MECHANICAL_DESIGN_GEOMETRIC_PRESENTATION_REPRESENTATION('',(#569),
#979);
#979=(
GEOMETRIC_REPRESENTATION_CONTEXT(3)
GLOBAL_UNCERTAINTY_ASSIGNED_CONTEXT((#980))
GLOBAL_UNIT_ASSIGNED_CONTEXT((#983,#982,#981))
REPRESENTATION_CONTEXT('Middle Part','TOP_LEVEL_ASSEMBLY_PART')
);
#980=UNCERTAINTY_MEASURE_WITH_UNIT(LENGTH_MEASURE(1.E-8),#983,
'DISTANCE_ACCURACY_VALUE','Maximum Tolerance applied to model');
#981=(
NAMED_UNIT(*)
SI_UNIT($,.STERADIAN.)
SOLID_ANGLE_UNIT()
);
#982=(
NAMED_UNIT(*)
PLANE_ANGLE_UNIT()
SI_UNIT($,.RADIAN.)
);
#983=(
LENGTH_UNIT()
NAMED_UNIT(*)
SI_UNIT($,.METRE.)
);
#984=PRODUCT_DEFINITION_SHAPE('','',#985);
#985=PRODUCT_DEFINITION('','',#987,#986);
#986=PRODUCT_DEFINITION_CONTEXT('',#993,'design');
#987=PRODUCT_DEFINITION_FORMATION_WITH_SPECIFIED_SOURCE('','',#989,
 .NOT_KNOWN.);
#988=PRODUCT_RELATED_PRODUCT_CATEGORY('','',(#989));
#989=PRODUCT('Middle Part','Middle Part','Middle Part',(#991));
#990=PRODUCT_CATEGORY('','');
#991=PRODUCT_CONTEXT('',#993,'mechanical');
#992=APPLICATION_PROTOCOL_DEFINITION('international standard',
'ap242_managed_model_based_3d_engineering',2011,#993);
#993=APPLICATION_CONTEXT('managed model based 3d engineering');
ENDSEC;
END-ISO-10303-21;
