ISO-10303-21;
HEADER;
/* Generated by software containing ST-Developer
 * from STEP Tools, Inc. (www.steptools.com) 
 */
/* OPTION: using custom renumber hook */

FILE_DESCRIPTION(
/* description */ ('STEP AP242',
'CAx-IF Rec.Pracs.---Representation and Presentation of Product Manufa
cturing Information (PMI)---4.0---2014-10-13',
'CAx-IF Rec.Pracs.---3D Tessellated Geometry---0.4---2014-09-14','2;1'),

/* implementation_level */ '2;1');

FILE_NAME(
/* name */ '686b71e47a9bce062bccdbec',
/* time_stamp */ '2025-07-07T07:06:13Z',
/* author */ (''),
/* organization */ (''),
/* preprocessor_version */ 'ST-DEVELOPER v20',
/* originating_system */ 'ONSHAPE BY PTC INC, 1.200',
/* authorisation */ '  ');

FILE_SCHEMA (('AP242_MANAGED_MODEL_BASED_3D_ENGINEERING_MIM_LF { 1 0 10303 442 1 1 4 }'));
ENDSEC;

DATA;
#10=SHAPE_REPRESENTATION_RELATIONSHIP('','',#133,#11);
#11=ADVANCED_BREP_SHAPE_REPRESENTATION('',(#131),#229);
#12=PLANE('',#141);
#13=PLANE('',#143);
#14=PLANE('',#149);
#15=PLANE('',#150);
#16=PLANE('',#152);
#17=ORIENTED_EDGE('',*,*,#37,.T.);
#18=ORIENTED_EDGE('',*,*,#38,.F.);
#19=ORIENTED_EDGE('',*,*,#39,.F.);
#20=ORIENTED_EDGE('',*,*,#40,.T.);
#21=ORIENTED_EDGE('',*,*,#41,.T.);
#22=ORIENTED_EDGE('',*,*,#39,.T.);
#23=ORIENTED_EDGE('',*,*,#42,.F.);
#24=ORIENTED_EDGE('',*,*,#40,.F.);
#25=ORIENTED_EDGE('',*,*,#43,.F.);
#26=ORIENTED_EDGE('',*,*,#42,.T.);
#27=ORIENTED_EDGE('',*,*,#41,.F.);
#28=ORIENTED_EDGE('',*,*,#44,.F.);
#29=ORIENTED_EDGE('',*,*,#37,.F.);
#30=ORIENTED_EDGE('',*,*,#44,.T.);
#31=ORIENTED_EDGE('',*,*,#45,.F.);
#32=ORIENTED_EDGE('',*,*,#43,.T.);
#33=ORIENTED_EDGE('',*,*,#46,.F.);
#34=ORIENTED_EDGE('',*,*,#38,.T.);
#35=ORIENTED_EDGE('',*,*,#46,.T.);
#36=ORIENTED_EDGE('',*,*,#45,.T.);
#37=EDGE_CURVE('',#47,#47,#57,.T.);
#38=EDGE_CURVE('',#48,#48,#58,.T.);
#39=EDGE_CURVE('',#49,#49,#59,.T.);
#40=EDGE_CURVE('',#50,#50,#60,.T.);
#41=EDGE_CURVE('',#51,#51,#61,.F.);
#42=EDGE_CURVE('',#52,#52,#62,.T.);
#43=EDGE_CURVE('',#53,#53,#63,.F.);
#44=EDGE_CURVE('',#54,#54,#64,.T.);
#45=EDGE_CURVE('',#55,#55,#65,.T.);
#46=EDGE_CURVE('',#56,#56,#66,.T.);
#47=VERTEX_POINT('',#200);
#48=VERTEX_POINT('',#202);
#49=VERTEX_POINT('',#205);
#50=VERTEX_POINT('',#207);
#51=VERTEX_POINT('',#210);
#52=VERTEX_POINT('',#213);
#53=VERTEX_POINT('',#216);
#54=VERTEX_POINT('',#219);
#55=VERTEX_POINT('',#223);
#56=VERTEX_POINT('',#226);
#57=CIRCLE('',#136,0.0545);
#58=CIRCLE('',#137,0.0545);
#59=CIRCLE('',#139,0.065);
#60=CIRCLE('',#140,0.065);
#61=CIRCLE('',#142,0.0575);
#62=CIRCLE('',#144,0.0595);
#63=CIRCLE('',#146,0.0595);
#64=CIRCLE('',#148,0.0575);
#65=CIRCLE('',#151,0.0075);
#66=CIRCLE('',#153,0.0075);
#67=EDGE_LOOP('',(#17));
#68=EDGE_LOOP('',(#18));
#69=EDGE_LOOP('',(#19));
#70=EDGE_LOOP('',(#20));
#71=EDGE_LOOP('',(#21));
#72=EDGE_LOOP('',(#22));
#73=EDGE_LOOP('',(#23));
#74=EDGE_LOOP('',(#24));
#75=EDGE_LOOP('',(#25));
#76=EDGE_LOOP('',(#26));
#77=EDGE_LOOP('',(#27));
#78=EDGE_LOOP('',(#28));
#79=EDGE_LOOP('',(#29));
#80=EDGE_LOOP('',(#30));
#81=EDGE_LOOP('',(#31));
#82=EDGE_LOOP('',(#32));
#83=EDGE_LOOP('',(#33));
#84=EDGE_LOOP('',(#34));
#85=EDGE_LOOP('',(#35));
#86=EDGE_LOOP('',(#36));
#87=FACE_BOUND('',#67,.T.);
#88=FACE_BOUND('',#68,.T.);
#89=FACE_BOUND('',#69,.T.);
#90=FACE_BOUND('',#70,.T.);
#91=FACE_BOUND('',#71,.T.);
#92=FACE_BOUND('',#72,.T.);
#93=FACE_BOUND('',#73,.T.);
#94=FACE_BOUND('',#74,.T.);
#95=FACE_BOUND('',#75,.T.);
#96=FACE_BOUND('',#76,.T.);
#97=FACE_BOUND('',#77,.T.);
#98=FACE_BOUND('',#78,.T.);
#99=FACE_BOUND('',#79,.T.);
#100=FACE_BOUND('',#80,.T.);
#101=FACE_BOUND('',#81,.T.);
#102=FACE_BOUND('',#82,.T.);
#103=FACE_BOUND('',#83,.T.);
#104=FACE_BOUND('',#84,.T.);
#105=FACE_BOUND('',#85,.T.);
#106=FACE_BOUND('',#86,.T.);
#107=CYLINDRICAL_SURFACE('',#135,0.0545);
#108=CYLINDRICAL_SURFACE('',#138,0.065);
#109=CYLINDRICAL_SURFACE('',#145,0.0595);
#110=CYLINDRICAL_SURFACE('',#147,0.0575);
#111=CYLINDRICAL_SURFACE('',#154,0.0075);
#112=ADVANCED_FACE('',(#87,#88),#107,.F.);
#113=ADVANCED_FACE('',(#89,#90),#108,.T.);
#114=ADVANCED_FACE('',(#91,#92),#12,.T.);
#115=ADVANCED_FACE('',(#93,#94),#13,.F.);
#116=ADVANCED_FACE('',(#95,#96),#109,.T.);
#117=ADVANCED_FACE('',(#97,#98),#110,.F.);
#118=ADVANCED_FACE('',(#99,#100),#14,.T.);
#119=ADVANCED_FACE('',(#101,#102),#15,.F.);
#120=ADVANCED_FACE('',(#103,#104),#16,.T.);
#121=ADVANCED_FACE('',(#105,#106),#111,.F.);
#122=CLOSED_SHELL('',(#112,#113,#114,#115,#116,#117,#118,#119,#120,#121));
#123=STYLED_ITEM('',(#124),#131);
#124=PRESENTATION_STYLE_ASSIGNMENT((#125));
#125=SURFACE_STYLE_USAGE(.BOTH.,#126);
#126=SURFACE_SIDE_STYLE('',(#127));
#127=SURFACE_STYLE_FILL_AREA(#128);
#128=FILL_AREA_STYLE('',(#129));
#129=FILL_AREA_STYLE_COLOUR('',#130);
#130=COLOUR_RGB('',0.615686274509804,0.811764705882353,0.929411764705882);
#131=MANIFOLD_SOLID_BREP('Light Ring',#122);
#132=SHAPE_DEFINITION_REPRESENTATION(#234,#133);
#133=SHAPE_REPRESENTATION('Light Ring',(#134),#229);
#134=AXIS2_PLACEMENT_3D('',#197,#155,#156);
#135=AXIS2_PLACEMENT_3D('',#198,#157,#158);
#136=AXIS2_PLACEMENT_3D('',#199,#159,#160);
#137=AXIS2_PLACEMENT_3D('',#201,#161,#162);
#138=AXIS2_PLACEMENT_3D('',#203,#163,#164);
#139=AXIS2_PLACEMENT_3D('',#204,#165,#166);
#140=AXIS2_PLACEMENT_3D('',#206,#167,#168);
#141=AXIS2_PLACEMENT_3D('',#208,#169,#170);
#142=AXIS2_PLACEMENT_3D('',#209,#171,#172);
#143=AXIS2_PLACEMENT_3D('',#211,#173,#174);
#144=AXIS2_PLACEMENT_3D('',#212,#175,#176);
#145=AXIS2_PLACEMENT_3D('',#214,#177,#178);
#146=AXIS2_PLACEMENT_3D('',#215,#179,#180);
#147=AXIS2_PLACEMENT_3D('',#217,#181,#182);
#148=AXIS2_PLACEMENT_3D('',#218,#183,#184);
#149=AXIS2_PLACEMENT_3D('',#220,#185,#186);
#150=AXIS2_PLACEMENT_3D('',#221,#187,#188);
#151=AXIS2_PLACEMENT_3D('',#222,#189,#190);
#152=AXIS2_PLACEMENT_3D('',#224,#191,#192);
#153=AXIS2_PLACEMENT_3D('',#225,#193,#194);
#154=AXIS2_PLACEMENT_3D('',#227,#195,#196);
#155=DIRECTION('',(0.,0.,1.));
#156=DIRECTION('',(1.,0.,0.));
#157=DIRECTION('',(0.,-1.,0.));
#158=DIRECTION('',(0.,0.,-1.));
#159=DIRECTION('',(0.,-1.,0.));
#160=DIRECTION('',(0.,0.,-1.));
#161=DIRECTION('',(0.,-1.,0.));
#162=DIRECTION('',(0.,0.,-1.));
#163=DIRECTION('',(0.,1.,0.));
#164=DIRECTION('',(0.,0.,1.));
#165=DIRECTION('',(0.,-1.,0.));
#166=DIRECTION('',(0.,0.,-1.));
#167=DIRECTION('',(0.,-1.,0.));
#168=DIRECTION('',(0.,0.,-1.));
#169=DIRECTION('',(0.,-1.,0.));
#170=DIRECTION('',(1.,0.,0.));
#171=DIRECTION('',(0.,-1.,0.));
#172=DIRECTION('',(0.,0.,-1.));
#173=DIRECTION('',(0.,-1.,0.));
#174=DIRECTION('',(1.,0.,0.));
#175=DIRECTION('',(0.,1.,0.));
#176=DIRECTION('',(0.,0.,1.));
#177=DIRECTION('',(0.,-1.,0.));
#178=DIRECTION('',(0.,0.,-1.));
#179=DIRECTION('',(0.,-1.,0.));
#180=DIRECTION('',(0.,0.,-1.));
#181=DIRECTION('',(0.,1.,0.));
#182=DIRECTION('',(0.,0.,1.));
#183=DIRECTION('',(0.,-1.,0.));
#184=DIRECTION('',(0.,0.,-1.));
#185=DIRECTION('',(0.,-1.,0.));
#186=DIRECTION('',(1.,0.,0.));
#187=DIRECTION('',(0.,-1.,0.));
#188=DIRECTION('',(1.,0.,0.));
#189=DIRECTION('',(0.,1.,0.));
#190=DIRECTION('',(0.,0.,1.));
#191=DIRECTION('',(0.,-1.,0.));
#192=DIRECTION('',(1.,0.,0.));
#193=DIRECTION('',(0.,-1.,0.));
#194=DIRECTION('',(0.,0.,-1.));
#195=DIRECTION('',(0.,1.,0.));
#196=DIRECTION('',(0.,0.,1.));
#197=CARTESIAN_POINT('',(0.,0.,0.));
#198=CARTESIAN_POINT('',(0.,0.02,3.33716252767654E-18));
#199=CARTESIAN_POINT('',(0.,0.,3.33716252767654E-18));
#200=CARTESIAN_POINT('',(0.,0.,-0.0545));
#201=CARTESIAN_POINT('',(0.,0.022,3.33716252767653E-18));
#202=CARTESIAN_POINT('',(0.,0.022,-0.0545));
#203=CARTESIAN_POINT('',(0.,-0.01,3.9801020972289E-18));
#204=CARTESIAN_POINT('',(0.,-0.01,3.9801020972289E-18));
#205=CARTESIAN_POINT('',(0.,-0.01,-0.065));
#206=CARTESIAN_POINT('',(0.,0.,3.9801020972289E-18));
#207=CARTESIAN_POINT('',(0.,0.,-0.065));
#208=CARTESIAN_POINT('',(0.,-0.01,0.));
#209=CARTESIAN_POINT('',(0.,-0.01,3.52085954754864E-18));
#210=CARTESIAN_POINT('',(0.,-0.01,-0.0575));
#211=CARTESIAN_POINT('',(0.,0.,0.));
#212=CARTESIAN_POINT('',(0.,0.,3.64332422746338E-18));
#213=CARTESIAN_POINT('',(0.,0.,0.0595));
#214=CARTESIAN_POINT('',(0.,0.02,3.64332422746338E-18));
#215=CARTESIAN_POINT('',(0.,0.025,3.64332422746338E-18));
#216=CARTESIAN_POINT('',(0.,0.025,-0.0595));
#217=CARTESIAN_POINT('',(0.,-0.025,3.52085954754864E-18));
#218=CARTESIAN_POINT('',(0.,0.,3.52085954754864E-18));
#219=CARTESIAN_POINT('',(0.,0.,-0.0575));
#220=CARTESIAN_POINT('',(0.,0.,0.));
#221=CARTESIAN_POINT('',(0.,0.025,6.93889390390723E-18));
#222=CARTESIAN_POINT('',(0.,0.025,3.7964050773568E-18));
#223=CARTESIAN_POINT('',(0.,0.025,0.0075));
#224=CARTESIAN_POINT('',(0.,0.022,6.93889390390723E-18));
#225=CARTESIAN_POINT('',(0.,0.022,3.7964050773568E-18));
#226=CARTESIAN_POINT('',(0.,0.022,-0.0075));
#227=CARTESIAN_POINT('',(0.,0.,3.7964050773568E-18));
#228=MECHANICAL_DESIGN_GEOMETRIC_PRESENTATION_REPRESENTATION('',(#123),
#229);
#229=(
GEOMETRIC_REPRESENTATION_CONTEXT(3)
GLOBAL_UNCERTAINTY_ASSIGNED_CONTEXT((#230))
GLOBAL_UNIT_ASSIGNED_CONTEXT((#233,#232,#231))
REPRESENTATION_CONTEXT('Light Ring','TOP_LEVEL_ASSEMBLY_PART')
);
#230=UNCERTAINTY_MEASURE_WITH_UNIT(LENGTH_MEASURE(1.E-8),#233,
'DISTANCE_ACCURACY_VALUE','Maximum Tolerance applied to model');
#231=(
NAMED_UNIT(*)
SI_UNIT($,.STERADIAN.)
SOLID_ANGLE_UNIT()
);
#232=(
NAMED_UNIT(*)
PLANE_ANGLE_UNIT()
SI_UNIT($,.RADIAN.)
);
#233=(
LENGTH_UNIT()
NAMED_UNIT(*)
SI_UNIT($,.METRE.)
);
#234=PRODUCT_DEFINITION_SHAPE('','',#235);
#235=PRODUCT_DEFINITION('','',#237,#236);
#236=PRODUCT_DEFINITION_CONTEXT('',#243,'design');
#237=PRODUCT_DEFINITION_FORMATION_WITH_SPECIFIED_SOURCE('','',#239,
 .NOT_KNOWN.);
#238=PRODUCT_RELATED_PRODUCT_CATEGORY('','',(#239));
#239=PRODUCT('Light Ring','Light Ring','Light Ring',(#241));
#240=PRODUCT_CATEGORY('','');
#241=PRODUCT_CONTEXT('',#243,'mechanical');
#242=APPLICATION_PROTOCOL_DEFINITION('international standard',
'ap242_managed_model_based_3d_engineering',2011,#243);
#243=APPLICATION_CONTEXT('managed model based 3d engineering');
ENDSEC;
END-ISO-10303-21;
