ISO-10303-21;
HEADER;
/* Generated by software containing ST-Developer
 * from STEP Tools, Inc. (www.steptools.com) 
 */
/* OPTION: using custom renumber hook */

FILE_DESCRIPTION(
/* description */ ('STEP AP242',
'CAx-IF Rec.Pracs.---Representation and Presentation of Product Manufa
cturing Information (PMI)---4.0---2014-10-13',
'CAx-IF Rec.Pracs.---3D Tessellated Geometry---0.4---2014-09-14','2;1'),

/* implementation_level */ '2;1');

FILE_NAME(
/* name */ '686b70427a9bce062bccd5f2',
/* time_stamp */ '2025-07-07T06:59:15Z',
/* author */ (''),
/* organization */ (''),
/* preprocessor_version */ 'ST-DEVELOPER v20',
/* originating_system */ 'ONSHAPE BY PTC INC, 1.200',
/* authorisation */ '  ');

FILE_SCHEMA (('AP242_MANAGED_MODEL_BASED_3D_ENGINEERING_MIM_LF { 1 0 10303 442 1 1 4 }'));
ENDSEC;

DATA;
#10=SHAPE_REPRESENTATION_RELATIONSHIP('','',#885,#11);
#11=ADVANCED_BREP_SHAPE_REPRESENTATION('',(#883),#1463);
#12=CONICAL_SURFACE('',#941,0.0021,0.785398163397448);
#13=CONICAL_SURFACE('',#942,0.0021,0.785398163397448);
#14=CONICAL_SURFACE('',#943,0.0021,0.785398163397448);
#15=CONICAL_SURFACE('',#944,0.0021,0.785398163397448);
#16=CYLINDRICAL_SURFACE('',#900,0.0096);
#17=CYLINDRICAL_SURFACE('',#904,0.0096);
#18=CYLINDRICAL_SURFACE('',#908,0.0096);
#19=CYLINDRICAL_SURFACE('',#912,0.0096);
#20=CYLINDRICAL_SURFACE('',#926,0.01);
#21=CYLINDRICAL_SURFACE('',#928,0.01);
#22=CYLINDRICAL_SURFACE('',#930,0.01);
#23=CYLINDRICAL_SURFACE('',#932,0.01);
#24=CYLINDRICAL_SURFACE('',#933,0.0021);
#25=CYLINDRICAL_SURFACE('',#935,0.0021);
#26=CYLINDRICAL_SURFACE('',#937,0.0021);
#27=CYLINDRICAL_SURFACE('',#939,0.0021);
#28=CYLINDRICAL_SURFACE('',#961,0.01);
#29=CYLINDRICAL_SURFACE('',#962,0.01);
#30=CYLINDRICAL_SURFACE('',#965,0.0041);
#31=CYLINDRICAL_SURFACE('',#966,0.0041);
#32=CIRCLE('',#889,0.0041);
#33=CIRCLE('',#891,0.0031);
#34=CIRCLE('',#892,0.0031);
#35=CIRCLE('',#893,0.0031);
#36=CIRCLE('',#894,0.0031);
#37=CIRCLE('',#895,0.01);
#38=CIRCLE('',#896,0.01);
#39=CIRCLE('',#897,0.01);
#40=CIRCLE('',#898,0.01);
#41=CIRCLE('',#901,0.0096);
#42=CIRCLE('',#902,0.0096);
#43=CIRCLE('',#905,0.0096);
#44=CIRCLE('',#906,0.0096);
#45=CIRCLE('',#909,0.0096);
#46=CIRCLE('',#910,0.0096);
#47=CIRCLE('',#913,0.0096);
#48=CIRCLE('',#914,0.0096);
#49=CIRCLE('',#917,0.0021);
#50=CIRCLE('',#918,0.0021);
#51=CIRCLE('',#919,0.0021);
#52=CIRCLE('',#920,0.0021);
#53=CIRCLE('',#921,0.01);
#54=CIRCLE('',#922,0.01);
#55=CIRCLE('',#923,0.01);
#56=CIRCLE('',#924,0.01);
#57=CIRCLE('',#934,0.0021);
#58=CIRCLE('',#936,0.0021);
#59=CIRCLE('',#938,0.0021);
#60=CIRCLE('',#940,0.0021);
#61=CIRCLE('',#946,0.01);
#62=CIRCLE('',#947,0.01);
#63=CIRCLE('',#952,0.0041);
#64=CIRCLE('',#954,0.01);
#65=CIRCLE('',#955,0.01);
#66=CIRCLE('',#959,0.0041);
#67=CIRCLE('',#960,0.0041);
#68=ORIENTED_EDGE('',*,*,#296,.F.);
#69=ORIENTED_EDGE('',*,*,#297,.T.);
#70=ORIENTED_EDGE('',*,*,#298,.F.);
#71=ORIENTED_EDGE('',*,*,#299,.T.);
#72=ORIENTED_EDGE('',*,*,#300,.T.);
#73=ORIENTED_EDGE('',*,*,#301,.F.);
#74=ORIENTED_EDGE('',*,*,#302,.T.);
#75=ORIENTED_EDGE('',*,*,#303,.F.);
#76=ORIENTED_EDGE('',*,*,#304,.T.);
#77=ORIENTED_EDGE('',*,*,#305,.T.);
#78=ORIENTED_EDGE('',*,*,#306,.T.);
#79=ORIENTED_EDGE('',*,*,#307,.F.);
#80=ORIENTED_EDGE('',*,*,#308,.T.);
#81=ORIENTED_EDGE('',*,*,#309,.T.);
#82=ORIENTED_EDGE('',*,*,#310,.T.);
#83=ORIENTED_EDGE('',*,*,#311,.T.);
#84=ORIENTED_EDGE('',*,*,#312,.T.);
#85=ORIENTED_EDGE('',*,*,#313,.T.);
#86=ORIENTED_EDGE('',*,*,#314,.T.);
#87=ORIENTED_EDGE('',*,*,#315,.F.);
#88=ORIENTED_EDGE('',*,*,#316,.T.);
#89=ORIENTED_EDGE('',*,*,#317,.F.);
#90=ORIENTED_EDGE('',*,*,#318,.T.);
#91=ORIENTED_EDGE('',*,*,#319,.T.);
#92=ORIENTED_EDGE('',*,*,#320,.T.);
#93=ORIENTED_EDGE('',*,*,#321,.T.);
#94=ORIENTED_EDGE('',*,*,#322,.F.);
#95=ORIENTED_EDGE('',*,*,#323,.F.);
#96=ORIENTED_EDGE('',*,*,#324,.T.);
#97=ORIENTED_EDGE('',*,*,#325,.F.);
#98=ORIENTED_EDGE('',*,*,#324,.F.);
#99=ORIENTED_EDGE('',*,*,#326,.T.);
#100=ORIENTED_EDGE('',*,*,#327,.T.);
#101=ORIENTED_EDGE('',*,*,#328,.F.);
#102=ORIENTED_EDGE('',*,*,#327,.F.);
#103=ORIENTED_EDGE('',*,*,#329,.T.);
#104=ORIENTED_EDGE('',*,*,#330,.T.);
#105=ORIENTED_EDGE('',*,*,#331,.F.);
#106=ORIENTED_EDGE('',*,*,#330,.F.);
#107=ORIENTED_EDGE('',*,*,#332,.T.);
#108=ORIENTED_EDGE('',*,*,#333,.T.);
#109=ORIENTED_EDGE('',*,*,#334,.F.);
#110=ORIENTED_EDGE('',*,*,#333,.F.);
#111=ORIENTED_EDGE('',*,*,#335,.T.);
#112=ORIENTED_EDGE('',*,*,#336,.T.);
#113=ORIENTED_EDGE('',*,*,#337,.F.);
#114=ORIENTED_EDGE('',*,*,#336,.F.);
#115=ORIENTED_EDGE('',*,*,#338,.T.);
#116=ORIENTED_EDGE('',*,*,#339,.T.);
#117=ORIENTED_EDGE('',*,*,#340,.T.);
#118=ORIENTED_EDGE('',*,*,#339,.F.);
#119=ORIENTED_EDGE('',*,*,#341,.F.);
#120=ORIENTED_EDGE('',*,*,#342,.T.);
#121=ORIENTED_EDGE('',*,*,#343,.F.);
#122=ORIENTED_EDGE('',*,*,#342,.F.);
#123=ORIENTED_EDGE('',*,*,#344,.T.);
#124=ORIENTED_EDGE('',*,*,#322,.T.);
#125=ORIENTED_EDGE('',*,*,#323,.T.);
#126=ORIENTED_EDGE('',*,*,#344,.F.);
#127=ORIENTED_EDGE('',*,*,#341,.T.);
#128=ORIENTED_EDGE('',*,*,#338,.F.);
#129=ORIENTED_EDGE('',*,*,#335,.F.);
#130=ORIENTED_EDGE('',*,*,#332,.F.);
#131=ORIENTED_EDGE('',*,*,#329,.F.);
#132=ORIENTED_EDGE('',*,*,#326,.F.);
#133=ORIENTED_EDGE('',*,*,#345,.T.);
#134=ORIENTED_EDGE('',*,*,#346,.T.);
#135=ORIENTED_EDGE('',*,*,#347,.T.);
#136=ORIENTED_EDGE('',*,*,#348,.T.);
#137=ORIENTED_EDGE('',*,*,#349,.F.);
#138=ORIENTED_EDGE('',*,*,#350,.F.);
#139=ORIENTED_EDGE('',*,*,#351,.F.);
#140=ORIENTED_EDGE('',*,*,#352,.F.);
#141=ORIENTED_EDGE('',*,*,#353,.T.);
#142=ORIENTED_EDGE('',*,*,#354,.F.);
#143=ORIENTED_EDGE('',*,*,#355,.T.);
#144=ORIENTED_EDGE('',*,*,#356,.F.);
#145=ORIENTED_EDGE('',*,*,#321,.F.);
#146=ORIENTED_EDGE('',*,*,#325,.T.);
#147=ORIENTED_EDGE('',*,*,#328,.T.);
#148=ORIENTED_EDGE('',*,*,#331,.T.);
#149=ORIENTED_EDGE('',*,*,#334,.T.);
#150=ORIENTED_EDGE('',*,*,#337,.T.);
#151=ORIENTED_EDGE('',*,*,#340,.F.);
#152=ORIENTED_EDGE('',*,*,#343,.T.);
#153=ORIENTED_EDGE('',*,*,#349,.T.);
#154=ORIENTED_EDGE('',*,*,#357,.F.);
#155=ORIENTED_EDGE('',*,*,#313,.F.);
#156=ORIENTED_EDGE('',*,*,#358,.T.);
#157=ORIENTED_EDGE('',*,*,#356,.T.);
#158=ORIENTED_EDGE('',*,*,#359,.F.);
#159=ORIENTED_EDGE('',*,*,#314,.F.);
#160=ORIENTED_EDGE('',*,*,#357,.T.);
#161=ORIENTED_EDGE('',*,*,#355,.F.);
#162=ORIENTED_EDGE('',*,*,#360,.F.);
#163=ORIENTED_EDGE('',*,*,#315,.T.);
#164=ORIENTED_EDGE('',*,*,#359,.T.);
#165=ORIENTED_EDGE('',*,*,#354,.T.);
#166=ORIENTED_EDGE('',*,*,#361,.F.);
#167=ORIENTED_EDGE('',*,*,#316,.F.);
#168=ORIENTED_EDGE('',*,*,#360,.T.);
#169=ORIENTED_EDGE('',*,*,#353,.F.);
#170=ORIENTED_EDGE('',*,*,#362,.F.);
#171=ORIENTED_EDGE('',*,*,#317,.T.);
#172=ORIENTED_EDGE('',*,*,#361,.T.);
#173=ORIENTED_EDGE('',*,*,#352,.T.);
#174=ORIENTED_EDGE('',*,*,#363,.F.);
#175=ORIENTED_EDGE('',*,*,#318,.F.);
#176=ORIENTED_EDGE('',*,*,#362,.T.);
#177=ORIENTED_EDGE('',*,*,#351,.T.);
#178=ORIENTED_EDGE('',*,*,#364,.F.);
#179=ORIENTED_EDGE('',*,*,#319,.F.);
#180=ORIENTED_EDGE('',*,*,#363,.T.);
#181=ORIENTED_EDGE('',*,*,#350,.T.);
#182=ORIENTED_EDGE('',*,*,#358,.F.);
#183=ORIENTED_EDGE('',*,*,#320,.F.);
#184=ORIENTED_EDGE('',*,*,#364,.T.);
#185=ORIENTED_EDGE('',*,*,#365,.T.);
#186=ORIENTED_EDGE('',*,*,#348,.F.);
#187=ORIENTED_EDGE('',*,*,#366,.T.);
#188=ORIENTED_EDGE('',*,*,#347,.F.);
#189=ORIENTED_EDGE('',*,*,#367,.T.);
#190=ORIENTED_EDGE('',*,*,#346,.F.);
#191=ORIENTED_EDGE('',*,*,#368,.T.);
#192=ORIENTED_EDGE('',*,*,#345,.F.);
#193=ORIENTED_EDGE('',*,*,#311,.F.);
#194=ORIENTED_EDGE('',*,*,#368,.F.);
#195=ORIENTED_EDGE('',*,*,#312,.F.);
#196=ORIENTED_EDGE('',*,*,#367,.F.);
#197=ORIENTED_EDGE('',*,*,#310,.F.);
#198=ORIENTED_EDGE('',*,*,#366,.F.);
#199=ORIENTED_EDGE('',*,*,#309,.F.);
#200=ORIENTED_EDGE('',*,*,#365,.F.);
#201=ORIENTED_EDGE('',*,*,#369,.T.);
#202=ORIENTED_EDGE('',*,*,#370,.F.);
#203=ORIENTED_EDGE('',*,*,#371,.F.);
#204=ORIENTED_EDGE('',*,*,#372,.T.);
#205=ORIENTED_EDGE('',*,*,#373,.F.);
#206=ORIENTED_EDGE('',*,*,#374,.T.);
#207=ORIENTED_EDGE('',*,*,#375,.T.);
#208=ORIENTED_EDGE('',*,*,#376,.T.);
#209=ORIENTED_EDGE('',*,*,#305,.F.);
#210=ORIENTED_EDGE('',*,*,#377,.T.);
#211=ORIENTED_EDGE('',*,*,#378,.T.);
#212=ORIENTED_EDGE('',*,*,#296,.T.);
#213=ORIENTED_EDGE('',*,*,#379,.F.);
#214=ORIENTED_EDGE('',*,*,#302,.F.);
#215=ORIENTED_EDGE('',*,*,#380,.F.);
#216=ORIENTED_EDGE('',*,*,#381,.T.);
#217=ORIENTED_EDGE('',*,*,#382,.T.);
#218=ORIENTED_EDGE('',*,*,#372,.F.);
#219=ORIENTED_EDGE('',*,*,#383,.F.);
#220=ORIENTED_EDGE('',*,*,#303,.T.);
#221=ORIENTED_EDGE('',*,*,#379,.T.);
#222=ORIENTED_EDGE('',*,*,#299,.F.);
#223=ORIENTED_EDGE('',*,*,#384,.F.);
#224=ORIENTED_EDGE('',*,*,#369,.F.);
#225=ORIENTED_EDGE('',*,*,#382,.F.);
#226=ORIENTED_EDGE('',*,*,#385,.F.);
#227=ORIENTED_EDGE('',*,*,#386,.T.);
#228=ORIENTED_EDGE('',*,*,#371,.T.);
#229=ORIENTED_EDGE('',*,*,#387,.T.);
#230=ORIENTED_EDGE('',*,*,#388,.T.);
#231=ORIENTED_EDGE('',*,*,#380,.T.);
#232=ORIENTED_EDGE('',*,*,#389,.T.);
#233=ORIENTED_EDGE('',*,*,#385,.T.);
#234=ORIENTED_EDGE('',*,*,#381,.F.);
#235=ORIENTED_EDGE('',*,*,#388,.F.);
#236=ORIENTED_EDGE('',*,*,#298,.T.);
#237=ORIENTED_EDGE('',*,*,#390,.F.);
#238=ORIENTED_EDGE('',*,*,#304,.F.);
#239=ORIENTED_EDGE('',*,*,#383,.T.);
#240=ORIENTED_EDGE('',*,*,#391,.F.);
#241=ORIENTED_EDGE('',*,*,#392,.T.);
#242=ORIENTED_EDGE('',*,*,#393,.T.);
#243=ORIENTED_EDGE('',*,*,#394,.T.);
#244=ORIENTED_EDGE('',*,*,#307,.T.);
#245=ORIENTED_EDGE('',*,*,#395,.T.);
#246=ORIENTED_EDGE('',*,*,#375,.F.);
#247=ORIENTED_EDGE('',*,*,#396,.T.);
#248=ORIENTED_EDGE('',*,*,#391,.T.);
#249=ORIENTED_EDGE('',*,*,#397,.T.);
#250=ORIENTED_EDGE('',*,*,#393,.F.);
#251=ORIENTED_EDGE('',*,*,#398,.T.);
#252=ORIENTED_EDGE('',*,*,#373,.T.);
#253=ORIENTED_EDGE('',*,*,#399,.T.);
#254=ORIENTED_EDGE('',*,*,#400,.F.);
#255=ORIENTED_EDGE('',*,*,#401,.F.);
#256=ORIENTED_EDGE('',*,*,#402,.T.);
#257=ORIENTED_EDGE('',*,*,#403,.T.);
#258=ORIENTED_EDGE('',*,*,#404,.T.);
#259=ORIENTED_EDGE('',*,*,#405,.T.);
#260=ORIENTED_EDGE('',*,*,#395,.F.);
#261=ORIENTED_EDGE('',*,*,#306,.F.);
#262=ORIENTED_EDGE('',*,*,#376,.F.);
#263=ORIENTED_EDGE('',*,*,#397,.F.);
#264=ORIENTED_EDGE('',*,*,#394,.F.);
#265=ORIENTED_EDGE('',*,*,#399,.F.);
#266=ORIENTED_EDGE('',*,*,#377,.F.);
#267=ORIENTED_EDGE('',*,*,#308,.F.);
#268=ORIENTED_EDGE('',*,*,#378,.F.);
#269=ORIENTED_EDGE('',*,*,#301,.T.);
#270=ORIENTED_EDGE('',*,*,#390,.T.);
#271=ORIENTED_EDGE('',*,*,#297,.F.);
#272=ORIENTED_EDGE('',*,*,#387,.F.);
#273=ORIENTED_EDGE('',*,*,#370,.T.);
#274=ORIENTED_EDGE('',*,*,#384,.T.);
#275=ORIENTED_EDGE('',*,*,#389,.F.);
#276=ORIENTED_EDGE('',*,*,#401,.T.);
#277=ORIENTED_EDGE('',*,*,#386,.F.);
#278=ORIENTED_EDGE('',*,*,#400,.T.);
#279=ORIENTED_EDGE('',*,*,#300,.F.);
#280=ORIENTED_EDGE('',*,*,#398,.F.);
#281=ORIENTED_EDGE('',*,*,#406,.T.);
#282=ORIENTED_EDGE('',*,*,#402,.F.);
#283=ORIENTED_EDGE('',*,*,#407,.T.);
#284=ORIENTED_EDGE('',*,*,#404,.F.);
#285=ORIENTED_EDGE('',*,*,#408,.T.);
#286=ORIENTED_EDGE('',*,*,#396,.F.);
#287=ORIENTED_EDGE('',*,*,#409,.T.);
#288=ORIENTED_EDGE('',*,*,#406,.F.);
#289=ORIENTED_EDGE('',*,*,#392,.F.);
#290=ORIENTED_EDGE('',*,*,#408,.F.);
#291=ORIENTED_EDGE('',*,*,#403,.F.);
#292=ORIENTED_EDGE('',*,*,#407,.F.);
#293=ORIENTED_EDGE('',*,*,#405,.F.);
#294=ORIENTED_EDGE('',*,*,#409,.F.);
#295=ORIENTED_EDGE('',*,*,#374,.F.);
#296=EDGE_CURVE('',#410,#411,#490,.T.);
#297=EDGE_CURVE('',#410,#412,#491,.T.);
#298=EDGE_CURVE('',#413,#412,#492,.T.);
#299=EDGE_CURVE('',#413,#411,#493,.T.);
#300=EDGE_CURVE('',#414,#414,#32,.T.);
#301=EDGE_CURVE('',#415,#416,#494,.T.);
#302=EDGE_CURVE('',#415,#417,#495,.T.);
#303=EDGE_CURVE('',#418,#417,#496,.T.);
#304=EDGE_CURVE('',#418,#416,#497,.T.);
#305=EDGE_CURVE('',#419,#420,#498,.T.);
#306=EDGE_CURVE('',#420,#421,#499,.F.);
#307=EDGE_CURVE('',#422,#421,#500,.T.);
#308=EDGE_CURVE('',#422,#419,#501,.T.);
#309=EDGE_CURVE('',#423,#423,#33,.F.);
#310=EDGE_CURVE('',#424,#424,#34,.F.);
#311=EDGE_CURVE('',#425,#425,#35,.F.);
#312=EDGE_CURVE('',#426,#426,#36,.F.);
#313=EDGE_CURVE('',#427,#428,#502,.T.);
#314=EDGE_CURVE('',#428,#429,#37,.T.);
#315=EDGE_CURVE('',#430,#429,#503,.T.);
#316=EDGE_CURVE('',#430,#431,#38,.T.);
#317=EDGE_CURVE('',#432,#431,#504,.T.);
#318=EDGE_CURVE('',#432,#433,#39,.T.);
#319=EDGE_CURVE('',#433,#434,#505,.T.);
#320=EDGE_CURVE('',#434,#427,#40,.T.);
#321=EDGE_CURVE('',#435,#436,#506,.T.);
#322=EDGE_CURVE('',#437,#436,#507,.T.);
#323=EDGE_CURVE('',#438,#437,#508,.T.);
#324=EDGE_CURVE('',#438,#435,#509,.T.);
#325=EDGE_CURVE('',#435,#439,#41,.T.);
#326=EDGE_CURVE('',#438,#440,#42,.T.);
#327=EDGE_CURVE('',#440,#439,#510,.T.);
#328=EDGE_CURVE('',#439,#441,#511,.T.);
#329=EDGE_CURVE('',#440,#442,#512,.T.);
#330=EDGE_CURVE('',#442,#441,#513,.T.);
#331=EDGE_CURVE('',#441,#443,#43,.T.);
#332=EDGE_CURVE('',#442,#444,#44,.T.);
#333=EDGE_CURVE('',#444,#443,#514,.T.);
#334=EDGE_CURVE('',#443,#445,#515,.T.);
#335=EDGE_CURVE('',#444,#446,#516,.T.);
#336=EDGE_CURVE('',#446,#445,#517,.T.);
#337=EDGE_CURVE('',#445,#447,#45,.T.);
#338=EDGE_CURVE('',#446,#448,#46,.T.);
#339=EDGE_CURVE('',#448,#447,#518,.T.);
#340=EDGE_CURVE('',#449,#447,#519,.T.);
#341=EDGE_CURVE('',#450,#448,#520,.T.);
#342=EDGE_CURVE('',#450,#449,#521,.T.);
#343=EDGE_CURVE('',#449,#436,#47,.T.);
#344=EDGE_CURVE('',#450,#437,#48,.T.);
#345=EDGE_CURVE('',#451,#451,#49,.T.);
#346=EDGE_CURVE('',#452,#452,#50,.T.);
#347=EDGE_CURVE('',#453,#453,#51,.T.);
#348=EDGE_CURVE('',#454,#454,#52,.T.);
#349=EDGE_CURVE('',#455,#456,#522,.T.);
#350=EDGE_CURVE('',#457,#455,#53,.T.);
#351=EDGE_CURVE('',#458,#457,#523,.T.);
#352=EDGE_CURVE('',#459,#458,#54,.T.);
#353=EDGE_CURVE('',#459,#460,#524,.T.);
#354=EDGE_CURVE('',#461,#460,#55,.T.);
#355=EDGE_CURVE('',#461,#462,#525,.T.);
#356=EDGE_CURVE('',#456,#462,#56,.T.);
#357=EDGE_CURVE('',#428,#456,#526,.T.);
#358=EDGE_CURVE('',#427,#455,#527,.T.);
#359=EDGE_CURVE('',#429,#462,#528,.T.);
#360=EDGE_CURVE('',#430,#461,#529,.T.);
#361=EDGE_CURVE('',#431,#460,#530,.T.);
#362=EDGE_CURVE('',#432,#459,#531,.T.);
#363=EDGE_CURVE('',#433,#458,#532,.T.);
#364=EDGE_CURVE('',#434,#457,#533,.T.);
#365=EDGE_CURVE('',#463,#463,#57,.T.);
#366=EDGE_CURVE('',#464,#464,#58,.T.);
#367=EDGE_CURVE('',#465,#465,#59,.T.);
#368=EDGE_CURVE('',#466,#466,#60,.T.);
#369=EDGE_CURVE('',#467,#468,#534,.T.);
#370=EDGE_CURVE('',#469,#468,#535,.T.);
#371=EDGE_CURVE('',#470,#469,#536,.T.);
#372=EDGE_CURVE('',#470,#467,#537,.T.);
#373=EDGE_CURVE('',#471,#472,#538,.T.);
#374=EDGE_CURVE('',#471,#473,#539,.T.);
#375=EDGE_CURVE('',#473,#474,#540,.T.);
#376=EDGE_CURVE('',#474,#420,#61,.F.);
#377=EDGE_CURVE('',#419,#472,#62,.F.);
#378=EDGE_CURVE('',#415,#410,#541,.T.);
#379=EDGE_CURVE('',#417,#411,#542,.T.);
#380=EDGE_CURVE('',#475,#470,#543,.T.);
#381=EDGE_CURVE('',#475,#476,#544,.T.);
#382=EDGE_CURVE('',#476,#467,#545,.T.);
#383=EDGE_CURVE('',#418,#413,#546,.T.);
#384=EDGE_CURVE('',#468,#477,#547,.T.);
#385=EDGE_CURVE('',#477,#476,#548,.T.);
#386=EDGE_CURVE('',#478,#478,#63,.T.);
#387=EDGE_CURVE('',#469,#479,#549,.T.);
#388=EDGE_CURVE('',#479,#475,#550,.T.);
#389=EDGE_CURVE('',#479,#477,#551,.T.);
#390=EDGE_CURVE('',#416,#412,#552,.T.);
#391=EDGE_CURVE('',#480,#481,#553,.T.);
#392=EDGE_CURVE('',#480,#482,#554,.T.);
#393=EDGE_CURVE('',#482,#483,#555,.T.);
#394=EDGE_CURVE('',#483,#422,#64,.T.);
#395=EDGE_CURVE('',#421,#481,#65,.T.);
#396=EDGE_CURVE('',#473,#480,#556,.T.);
#397=EDGE_CURVE('',#481,#474,#557,.T.);
#398=EDGE_CURVE('',#482,#471,#558,.T.);
#399=EDGE_CURVE('',#472,#483,#559,.F.);
#400=EDGE_CURVE('',#484,#484,#66,.T.);
#401=EDGE_CURVE('',#485,#485,#67,.T.);
#402=EDGE_CURVE('',#486,#487,#560,.T.);
#403=EDGE_CURVE('',#487,#488,#561,.T.);
#404=EDGE_CURVE('',#488,#489,#562,.T.);
#405=EDGE_CURVE('',#489,#486,#563,.T.);
#406=EDGE_CURVE('',#482,#487,#564,.F.);
#407=EDGE_CURVE('',#486,#471,#565,.T.);
#408=EDGE_CURVE('',#488,#480,#566,.T.);
#409=EDGE_CURVE('',#473,#489,#567,.F.);
#410=VERTEX_POINT('',#1222);
#411=VERTEX_POINT('',#1223);
#412=VERTEX_POINT('',#1225);
#413=VERTEX_POINT('',#1227);
#414=VERTEX_POINT('',#1231);
#415=VERTEX_POINT('',#1233);
#416=VERTEX_POINT('',#1234);
#417=VERTEX_POINT('',#1236);
#418=VERTEX_POINT('',#1238);
#419=VERTEX_POINT('',#1242);
#420=VERTEX_POINT('',#1243);
#421=VERTEX_POINT('',#1245);
#422=VERTEX_POINT('',#1247);
#423=VERTEX_POINT('',#1250);
#424=VERTEX_POINT('',#1252);
#425=VERTEX_POINT('',#1254);
#426=VERTEX_POINT('',#1256);
#427=VERTEX_POINT('',#1258);
#428=VERTEX_POINT('',#1259);
#429=VERTEX_POINT('',#1261);
#430=VERTEX_POINT('',#1263);
#431=VERTEX_POINT('',#1265);
#432=VERTEX_POINT('',#1267);
#433=VERTEX_POINT('',#1269);
#434=VERTEX_POINT('',#1271);
#435=VERTEX_POINT('',#1275);
#436=VERTEX_POINT('',#1276);
#437=VERTEX_POINT('',#1278);
#438=VERTEX_POINT('',#1280);
#439=VERTEX_POINT('',#1284);
#440=VERTEX_POINT('',#1286);
#441=VERTEX_POINT('',#1290);
#442=VERTEX_POINT('',#1292);
#443=VERTEX_POINT('',#1296);
#444=VERTEX_POINT('',#1298);
#445=VERTEX_POINT('',#1302);
#446=VERTEX_POINT('',#1304);
#447=VERTEX_POINT('',#1308);
#448=VERTEX_POINT('',#1310);
#449=VERTEX_POINT('',#1314);
#450=VERTEX_POINT('',#1316);
#451=VERTEX_POINT('',#1324);
#452=VERTEX_POINT('',#1326);
#453=VERTEX_POINT('',#1328);
#454=VERTEX_POINT('',#1330);
#455=VERTEX_POINT('',#1332);
#456=VERTEX_POINT('',#1333);
#457=VERTEX_POINT('',#1335);
#458=VERTEX_POINT('',#1337);
#459=VERTEX_POINT('',#1339);
#460=VERTEX_POINT('',#1341);
#461=VERTEX_POINT('',#1343);
#462=VERTEX_POINT('',#1345);
#463=VERTEX_POINT('',#1365);
#464=VERTEX_POINT('',#1368);
#465=VERTEX_POINT('',#1371);
#466=VERTEX_POINT('',#1374);
#467=VERTEX_POINT('',#1381);
#468=VERTEX_POINT('',#1382);
#469=VERTEX_POINT('',#1384);
#470=VERTEX_POINT('',#1386);
#471=VERTEX_POINT('',#1389);
#472=VERTEX_POINT('',#1390);
#473=VERTEX_POINT('',#1392);
#474=VERTEX_POINT('',#1394);
#475=VERTEX_POINT('',#1401);
#476=VERTEX_POINT('',#1403);
#477=VERTEX_POINT('',#1409);
#478=VERTEX_POINT('',#1413);
#479=VERTEX_POINT('',#1415);
#480=VERTEX_POINT('',#1421);
#481=VERTEX_POINT('',#1422);
#482=VERTEX_POINT('',#1424);
#483=VERTEX_POINT('',#1426);
#484=VERTEX_POINT('',#1437);
#485=VERTEX_POINT('',#1439);
#486=VERTEX_POINT('',#1441);
#487=VERTEX_POINT('',#1442);
#488=VERTEX_POINT('',#1444);
#489=VERTEX_POINT('',#1446);
#490=LINE('',#1221,#568);
#491=LINE('',#1224,#569);
#492=LINE('',#1226,#570);
#493=LINE('',#1228,#571);
#494=LINE('',#1232,#572);
#495=LINE('',#1235,#573);
#496=LINE('',#1237,#574);
#497=LINE('',#1239,#575);
#498=LINE('',#1241,#576);
#499=LINE('',#1244,#577);
#500=LINE('',#1246,#578);
#501=LINE('',#1248,#579);
#502=LINE('',#1257,#580);
#503=LINE('',#1262,#581);
#504=LINE('',#1266,#582);
#505=LINE('',#1270,#583);
#506=LINE('',#1274,#584);
#507=LINE('',#1277,#585);
#508=LINE('',#1279,#586);
#509=LINE('',#1281,#587);
#510=LINE('',#1287,#588);
#511=LINE('',#1289,#589);
#512=LINE('',#1291,#590);
#513=LINE('',#1293,#591);
#514=LINE('',#1299,#592);
#515=LINE('',#1301,#593);
#516=LINE('',#1303,#594);
#517=LINE('',#1305,#595);
#518=LINE('',#1311,#596);
#519=LINE('',#1313,#597);
#520=LINE('',#1315,#598);
#521=LINE('',#1317,#599);
#522=LINE('',#1331,#600);
#523=LINE('',#1336,#601);
#524=LINE('',#1340,#602);
#525=LINE('',#1344,#603);
#526=LINE('',#1348,#604);
#527=LINE('',#1349,#605);
#528=LINE('',#1351,#606);
#529=LINE('',#1353,#607);
#530=LINE('',#1355,#608);
#531=LINE('',#1357,#609);
#532=LINE('',#1359,#610);
#533=LINE('',#1361,#611);
#534=LINE('',#1380,#612);
#535=LINE('',#1383,#613);
#536=LINE('',#1385,#614);
#537=LINE('',#1387,#615);
#538=LINE('',#1388,#616);
#539=LINE('',#1391,#617);
#540=LINE('',#1393,#618);
#541=LINE('',#1397,#619);
#542=LINE('',#1398,#620);
#543=LINE('',#1400,#621);
#544=LINE('',#1402,#622);
#545=LINE('',#1404,#623);
#546=LINE('',#1406,#624);
#547=LINE('',#1408,#625);
#548=LINE('',#1410,#626);
#549=LINE('',#1414,#627);
#550=LINE('',#1416,#628);
#551=LINE('',#1418,#629);
#552=LINE('',#1419,#630);
#553=LINE('',#1420,#631);
#554=LINE('',#1423,#632);
#555=LINE('',#1425,#633);
#556=LINE('',#1430,#634);
#557=LINE('',#1431,#635);
#558=LINE('',#1433,#636);
#559=LINE('',#1434,#637);
#560=LINE('',#1440,#638);
#561=LINE('',#1443,#639);
#562=LINE('',#1445,#640);
#563=LINE('',#1447,#641);
#564=LINE('',#1455,#642);
#565=LINE('',#1456,#643);
#566=LINE('',#1458,#644);
#567=LINE('',#1459,#645);
#568=VECTOR('',#975,1.);
#569=VECTOR('',#976,1.);
#570=VECTOR('',#977,1.);
#571=VECTOR('',#978,1.);
#572=VECTOR('',#983,1.);
#573=VECTOR('',#984,1.);
#574=VECTOR('',#985,1.);
#575=VECTOR('',#986,1.);
#576=VECTOR('',#989,1.);
#577=VECTOR('',#990,1.);
#578=VECTOR('',#991,1.);
#579=VECTOR('',#992,1.);
#580=VECTOR('',#1001,1.);
#581=VECTOR('',#1004,1.);
#582=VECTOR('',#1007,1.);
#583=VECTOR('',#1010,1.);
#584=VECTOR('',#1015,1.);
#585=VECTOR('',#1016,1.);
#586=VECTOR('',#1017,1.);
#587=VECTOR('',#1018,1.);
#588=VECTOR('',#1025,1.);
#589=VECTOR('',#1028,1.);
#590=VECTOR('',#1029,1.);
#591=VECTOR('',#1030,1.);
#592=VECTOR('',#1037,1.);
#593=VECTOR('',#1040,1.);
#594=VECTOR('',#1041,1.);
#595=VECTOR('',#1042,1.);
#596=VECTOR('',#1049,1.);
#597=VECTOR('',#1052,1.);
#598=VECTOR('',#1053,1.);
#599=VECTOR('',#1054,1.);
#600=VECTOR('',#1073,1.);
#601=VECTOR('',#1076,1.);
#602=VECTOR('',#1079,1.);
#603=VECTOR('',#1082,1.);
#604=VECTOR('',#1087,1.);
#605=VECTOR('',#1088,1.);
#606=VECTOR('',#1091,1.);
#607=VECTOR('',#1094,1.);
#608=VECTOR('',#1097,1.);
#609=VECTOR('',#1100,1.);
#610=VECTOR('',#1103,1.);
#611=VECTOR('',#1106,1.);
#612=VECTOR('',#1135,1.);
#613=VECTOR('',#1136,1.);
#614=VECTOR('',#1137,1.);
#615=VECTOR('',#1138,1.);
#616=VECTOR('',#1139,1.);
#617=VECTOR('',#1140,1.);
#618=VECTOR('',#1141,1.);
#619=VECTOR('',#1146,1.);
#620=VECTOR('',#1147,1.);
#621=VECTOR('',#1150,1.);
#622=VECTOR('',#1151,1.);
#623=VECTOR('',#1152,1.);
#624=VECTOR('',#1155,1.);
#625=VECTOR('',#1158,1.);
#626=VECTOR('',#1159,1.);
#627=VECTOR('',#1164,1.);
#628=VECTOR('',#1165,1.);
#629=VECTOR('',#1168,1.);
#630=VECTOR('',#1169,1.);
#631=VECTOR('',#1170,1.);
#632=VECTOR('',#1171,1.);
#633=VECTOR('',#1172,1.);
#634=VECTOR('',#1179,1.);
#635=VECTOR('',#1180,1.);
#636=VECTOR('',#1183,1.);
#637=VECTOR('',#1184,1.);
#638=VECTOR('',#1191,1.);
#639=VECTOR('',#1192,1.);
#640=VECTOR('',#1193,1.);
#641=VECTOR('',#1194,1.);
#642=VECTOR('',#1209,1.);
#643=VECTOR('',#1210,1.);
#644=VECTOR('',#1213,1.);
#645=VECTOR('',#1214,1.);
#646=EDGE_LOOP('',(#68,#69,#70,#71));
#647=EDGE_LOOP('',(#72));
#648=EDGE_LOOP('',(#73,#74,#75,#76));
#649=EDGE_LOOP('',(#77,#78,#79,#80));
#650=EDGE_LOOP('',(#81));
#651=EDGE_LOOP('',(#82));
#652=EDGE_LOOP('',(#83));
#653=EDGE_LOOP('',(#84));
#654=EDGE_LOOP('',(#85,#86,#87,#88,#89,#90,#91,#92));
#655=EDGE_LOOP('',(#93,#94,#95,#96));
#656=EDGE_LOOP('',(#97,#98,#99,#100));
#657=EDGE_LOOP('',(#101,#102,#103,#104));
#658=EDGE_LOOP('',(#105,#106,#107,#108));
#659=EDGE_LOOP('',(#109,#110,#111,#112));
#660=EDGE_LOOP('',(#113,#114,#115,#116));
#661=EDGE_LOOP('',(#117,#118,#119,#120));
#662=EDGE_LOOP('',(#121,#122,#123,#124));
#663=EDGE_LOOP('',(#125,#126,#127,#128,#129,#130,#131,#132));
#664=EDGE_LOOP('',(#133));
#665=EDGE_LOOP('',(#134));
#666=EDGE_LOOP('',(#135));
#667=EDGE_LOOP('',(#136));
#668=EDGE_LOOP('',(#137,#138,#139,#140,#141,#142,#143,#144));
#669=EDGE_LOOP('',(#145,#146,#147,#148,#149,#150,#151,#152));
#670=EDGE_LOOP('',(#153,#154,#155,#156));
#671=EDGE_LOOP('',(#157,#158,#159,#160));
#672=EDGE_LOOP('',(#161,#162,#163,#164));
#673=EDGE_LOOP('',(#165,#166,#167,#168));
#674=EDGE_LOOP('',(#169,#170,#171,#172));
#675=EDGE_LOOP('',(#173,#174,#175,#176));
#676=EDGE_LOOP('',(#177,#178,#179,#180));
#677=EDGE_LOOP('',(#181,#182,#183,#184));
#678=EDGE_LOOP('',(#185));
#679=EDGE_LOOP('',(#186));
#680=EDGE_LOOP('',(#187));
#681=EDGE_LOOP('',(#188));
#682=EDGE_LOOP('',(#189));
#683=EDGE_LOOP('',(#190));
#684=EDGE_LOOP('',(#191));
#685=EDGE_LOOP('',(#192));
#686=EDGE_LOOP('',(#193));
#687=EDGE_LOOP('',(#194));
#688=EDGE_LOOP('',(#195));
#689=EDGE_LOOP('',(#196));
#690=EDGE_LOOP('',(#197));
#691=EDGE_LOOP('',(#198));
#692=EDGE_LOOP('',(#199));
#693=EDGE_LOOP('',(#200));
#694=EDGE_LOOP('',(#201,#202,#203,#204));
#695=EDGE_LOOP('',(#205,#206,#207,#208,#209,#210));
#696=EDGE_LOOP('',(#211,#212,#213,#214));
#697=EDGE_LOOP('',(#215,#216,#217,#218));
#698=EDGE_LOOP('',(#219,#220,#221,#222));
#699=EDGE_LOOP('',(#223,#224,#225,#226));
#700=EDGE_LOOP('',(#227));
#701=EDGE_LOOP('',(#228,#229,#230,#231));
#702=EDGE_LOOP('',(#232,#233,#234,#235));
#703=EDGE_LOOP('',(#236,#237,#238,#239));
#704=EDGE_LOOP('',(#240,#241,#242,#243,#244,#245));
#705=EDGE_LOOP('',(#246,#247,#248,#249));
#706=EDGE_LOOP('',(#250,#251,#252,#253));
#707=EDGE_LOOP('',(#254));
#708=EDGE_LOOP('',(#255));
#709=EDGE_LOOP('',(#256,#257,#258,#259));
#710=EDGE_LOOP('',(#260,#261,#262,#263));
#711=EDGE_LOOP('',(#264,#265,#266,#267));
#712=EDGE_LOOP('',(#268,#269,#270,#271));
#713=EDGE_LOOP('',(#272,#273,#274,#275));
#714=EDGE_LOOP('',(#276));
#715=EDGE_LOOP('',(#277));
#716=EDGE_LOOP('',(#278));
#717=EDGE_LOOP('',(#279));
#718=EDGE_LOOP('',(#280,#281,#282,#283));
#719=EDGE_LOOP('',(#284,#285,#286,#287));
#720=EDGE_LOOP('',(#288,#289,#290,#291));
#721=EDGE_LOOP('',(#292,#293,#294,#295));
#722=FACE_BOUND('',#646,.T.);
#723=FACE_BOUND('',#647,.T.);
#724=FACE_BOUND('',#648,.T.);
#725=FACE_BOUND('',#649,.T.);
#726=FACE_BOUND('',#650,.T.);
#727=FACE_BOUND('',#651,.T.);
#728=FACE_BOUND('',#652,.T.);
#729=FACE_BOUND('',#653,.T.);
#730=FACE_BOUND('',#654,.T.);
#731=FACE_BOUND('',#655,.T.);
#732=FACE_BOUND('',#656,.T.);
#733=FACE_BOUND('',#657,.T.);
#734=FACE_BOUND('',#658,.T.);
#735=FACE_BOUND('',#659,.T.);
#736=FACE_BOUND('',#660,.T.);
#737=FACE_BOUND('',#661,.T.);
#738=FACE_BOUND('',#662,.T.);
#739=FACE_BOUND('',#663,.T.);
#740=FACE_BOUND('',#664,.T.);
#741=FACE_BOUND('',#665,.T.);
#742=FACE_BOUND('',#666,.T.);
#743=FACE_BOUND('',#667,.T.);
#744=FACE_BOUND('',#668,.T.);
#745=FACE_BOUND('',#669,.T.);
#746=FACE_BOUND('',#670,.T.);
#747=FACE_BOUND('',#671,.T.);
#748=FACE_BOUND('',#672,.T.);
#749=FACE_BOUND('',#673,.T.);
#750=FACE_BOUND('',#674,.T.);
#751=FACE_BOUND('',#675,.T.);
#752=FACE_BOUND('',#676,.T.);
#753=FACE_BOUND('',#677,.T.);
#754=FACE_BOUND('',#678,.T.);
#755=FACE_BOUND('',#679,.T.);
#756=FACE_BOUND('',#680,.T.);
#757=FACE_BOUND('',#681,.T.);
#758=FACE_BOUND('',#682,.T.);
#759=FACE_BOUND('',#683,.T.);
#760=FACE_BOUND('',#684,.T.);
#761=FACE_BOUND('',#685,.T.);
#762=FACE_BOUND('',#686,.T.);
#763=FACE_BOUND('',#687,.T.);
#764=FACE_BOUND('',#688,.T.);
#765=FACE_BOUND('',#689,.T.);
#766=FACE_BOUND('',#690,.T.);
#767=FACE_BOUND('',#691,.T.);
#768=FACE_BOUND('',#692,.T.);
#769=FACE_BOUND('',#693,.T.);
#770=FACE_BOUND('',#694,.T.);
#771=FACE_BOUND('',#695,.T.);
#772=FACE_BOUND('',#696,.T.);
#773=FACE_BOUND('',#697,.T.);
#774=FACE_BOUND('',#698,.T.);
#775=FACE_BOUND('',#699,.T.);
#776=FACE_BOUND('',#700,.T.);
#777=FACE_BOUND('',#701,.T.);
#778=FACE_BOUND('',#702,.T.);
#779=FACE_BOUND('',#703,.T.);
#780=FACE_BOUND('',#704,.T.);
#781=FACE_BOUND('',#705,.T.);
#782=FACE_BOUND('',#706,.T.);
#783=FACE_BOUND('',#707,.T.);
#784=FACE_BOUND('',#708,.T.);
#785=FACE_BOUND('',#709,.T.);
#786=FACE_BOUND('',#710,.T.);
#787=FACE_BOUND('',#711,.T.);
#788=FACE_BOUND('',#712,.T.);
#789=FACE_BOUND('',#713,.T.);
#790=FACE_BOUND('',#714,.T.);
#791=FACE_BOUND('',#715,.T.);
#792=FACE_BOUND('',#716,.T.);
#793=FACE_BOUND('',#717,.T.);
#794=FACE_BOUND('',#718,.T.);
#795=FACE_BOUND('',#719,.T.);
#796=FACE_BOUND('',#720,.T.);
#797=FACE_BOUND('',#721,.T.);
#798=PLANE('',#887);
#799=PLANE('',#888);
#800=PLANE('',#890);
#801=PLANE('',#899);
#802=PLANE('',#903);
#803=PLANE('',#907);
#804=PLANE('',#911);
#805=PLANE('',#915);
#806=PLANE('',#916);
#807=PLANE('',#925);
#808=PLANE('',#927);
#809=PLANE('',#929);
#810=PLANE('',#931);
#811=PLANE('',#945);
#812=PLANE('',#948);
#813=PLANE('',#949);
#814=PLANE('',#950);
#815=PLANE('',#951);
#816=PLANE('',#953);
#817=PLANE('',#956);
#818=PLANE('',#957);
#819=PLANE('',#958);
#820=PLANE('',#963);
#821=PLANE('',#964);
#822=PLANE('',#967);
#823=PLANE('',#968);
#824=PLANE('',#969);
#825=PLANE('',#970);
#826=ADVANCED_FACE('',(#722),#798,.T.);
#827=ADVANCED_FACE('',(#723,#724),#799,.F.);
#828=ADVANCED_FACE('',(#725,#726,#727,#728,#729,#730),#800,.T.);
#829=ADVANCED_FACE('',(#731),#801,.F.);
#830=ADVANCED_FACE('',(#732),#16,.T.);
#831=ADVANCED_FACE('',(#733),#802,.T.);
#832=ADVANCED_FACE('',(#734),#17,.T.);
#833=ADVANCED_FACE('',(#735),#803,.T.);
#834=ADVANCED_FACE('',(#736),#18,.T.);
#835=ADVANCED_FACE('',(#737),#804,.F.);
#836=ADVANCED_FACE('',(#738),#19,.T.);
#837=ADVANCED_FACE('',(#739),#805,.F.);
#838=ADVANCED_FACE('',(#740,#741,#742,#743,#744,#745),#806,.F.);
#839=ADVANCED_FACE('',(#746),#807,.F.);
#840=ADVANCED_FACE('',(#747),#20,.T.);
#841=ADVANCED_FACE('',(#748),#808,.T.);
#842=ADVANCED_FACE('',(#749),#21,.T.);
#843=ADVANCED_FACE('',(#750),#809,.T.);
#844=ADVANCED_FACE('',(#751),#22,.T.);
#845=ADVANCED_FACE('',(#752),#810,.F.);
#846=ADVANCED_FACE('',(#753),#23,.T.);
#847=ADVANCED_FACE('',(#754,#755),#24,.F.);
#848=ADVANCED_FACE('',(#756,#757),#25,.F.);
#849=ADVANCED_FACE('',(#758,#759),#26,.F.);
#850=ADVANCED_FACE('',(#760,#761),#27,.F.);
#851=ADVANCED_FACE('',(#762,#763),#12,.F.);
#852=ADVANCED_FACE('',(#764,#765),#13,.F.);
#853=ADVANCED_FACE('',(#766,#767),#14,.F.);
#854=ADVANCED_FACE('',(#768,#769),#15,.F.);
#855=ADVANCED_FACE('',(#770,#771,#772),#811,.T.);
#856=ADVANCED_FACE('',(#773),#812,.F.);
#857=ADVANCED_FACE('',(#774),#813,.T.);
#858=ADVANCED_FACE('',(#775),#814,.T.);
#859=ADVANCED_FACE('',(#776,#777),#815,.F.);
#860=ADVANCED_FACE('',(#778,#779,#780),#816,.F.);
#861=ADVANCED_FACE('',(#781),#817,.F.);
#862=ADVANCED_FACE('',(#782),#818,.T.);
#863=ADVANCED_FACE('',(#783,#784,#785),#819,.T.);
#864=ADVANCED_FACE('',(#786),#28,.F.);
#865=ADVANCED_FACE('',(#787),#29,.F.);
#866=ADVANCED_FACE('',(#788),#820,.F.);
#867=ADVANCED_FACE('',(#789),#821,.T.);
#868=ADVANCED_FACE('',(#790,#791),#30,.F.);
#869=ADVANCED_FACE('',(#792,#793),#31,.F.);
#870=ADVANCED_FACE('',(#794),#822,.F.);
#871=ADVANCED_FACE('',(#795),#823,.T.);
#872=ADVANCED_FACE('',(#796),#824,.T.);
#873=ADVANCED_FACE('',(#797),#825,.F.);
#874=CLOSED_SHELL('',(#826,#827,#828,#829,#830,#831,#832,#833,#834,#835,
#836,#837,#838,#839,#840,#841,#842,#843,#844,#845,#846,#847,#848,#849,#850,
#851,#852,#853,#854,#855,#856,#857,#858,#859,#860,#861,#862,#863,#864,#865,
#866,#867,#868,#869,#870,#871,#872,#873));
#875=STYLED_ITEM('',(#876),#883);
#876=PRESENTATION_STYLE_ASSIGNMENT((#877));
#877=SURFACE_STYLE_USAGE(.BOTH.,#878);
#878=SURFACE_SIDE_STYLE('',(#879));
#879=SURFACE_STYLE_FILL_AREA(#880);
#880=FILL_AREA_STYLE('',(#881));
#881=FILL_AREA_STYLE_COLOUR('',#882);
#882=COLOUR_RGB('',0.647058823529412,0.647058823529412,0.647058823529412);
#883=MANIFOLD_SOLID_BREP('Mount Plate',#874);
#884=SHAPE_DEFINITION_REPRESENTATION(#1468,#885);
#885=SHAPE_REPRESENTATION('Mount Plate',(#886),#1463);
#886=AXIS2_PLACEMENT_3D('',#1219,#971,#972);
#887=AXIS2_PLACEMENT_3D('',#1220,#973,#974);
#888=AXIS2_PLACEMENT_3D('',#1229,#979,#980);
#889=AXIS2_PLACEMENT_3D('',#1230,#981,#982);
#890=AXIS2_PLACEMENT_3D('',#1240,#987,#988);
#891=AXIS2_PLACEMENT_3D('',#1249,#993,#994);
#892=AXIS2_PLACEMENT_3D('',#1251,#995,#996);
#893=AXIS2_PLACEMENT_3D('',#1253,#997,#998);
#894=AXIS2_PLACEMENT_3D('',#1255,#999,#1000);
#895=AXIS2_PLACEMENT_3D('',#1260,#1002,#1003);
#896=AXIS2_PLACEMENT_3D('',#1264,#1005,#1006);
#897=AXIS2_PLACEMENT_3D('',#1268,#1008,#1009);
#898=AXIS2_PLACEMENT_3D('',#1272,#1011,#1012);
#899=AXIS2_PLACEMENT_3D('',#1273,#1013,#1014);
#900=AXIS2_PLACEMENT_3D('',#1282,#1019,#1020);
#901=AXIS2_PLACEMENT_3D('',#1283,#1021,#1022);
#902=AXIS2_PLACEMENT_3D('',#1285,#1023,#1024);
#903=AXIS2_PLACEMENT_3D('',#1288,#1026,#1027);
#904=AXIS2_PLACEMENT_3D('',#1294,#1031,#1032);
#905=AXIS2_PLACEMENT_3D('',#1295,#1033,#1034);
#906=AXIS2_PLACEMENT_3D('',#1297,#1035,#1036);
#907=AXIS2_PLACEMENT_3D('',#1300,#1038,#1039);
#908=AXIS2_PLACEMENT_3D('',#1306,#1043,#1044);
#909=AXIS2_PLACEMENT_3D('',#1307,#1045,#1046);
#910=AXIS2_PLACEMENT_3D('',#1309,#1047,#1048);
#911=AXIS2_PLACEMENT_3D('',#1312,#1050,#1051);
#912=AXIS2_PLACEMENT_3D('',#1318,#1055,#1056);
#913=AXIS2_PLACEMENT_3D('',#1319,#1057,#1058);
#914=AXIS2_PLACEMENT_3D('',#1320,#1059,#1060);
#915=AXIS2_PLACEMENT_3D('',#1321,#1061,#1062);
#916=AXIS2_PLACEMENT_3D('',#1322,#1063,#1064);
#917=AXIS2_PLACEMENT_3D('',#1323,#1065,#1066);
#918=AXIS2_PLACEMENT_3D('',#1325,#1067,#1068);
#919=AXIS2_PLACEMENT_3D('',#1327,#1069,#1070);
#920=AXIS2_PLACEMENT_3D('',#1329,#1071,#1072);
#921=AXIS2_PLACEMENT_3D('',#1334,#1074,#1075);
#922=AXIS2_PLACEMENT_3D('',#1338,#1077,#1078);
#923=AXIS2_PLACEMENT_3D('',#1342,#1080,#1081);
#924=AXIS2_PLACEMENT_3D('',#1346,#1083,#1084);
#925=AXIS2_PLACEMENT_3D('',#1347,#1085,#1086);
#926=AXIS2_PLACEMENT_3D('',#1350,#1089,#1090);
#927=AXIS2_PLACEMENT_3D('',#1352,#1092,#1093);
#928=AXIS2_PLACEMENT_3D('',#1354,#1095,#1096);
#929=AXIS2_PLACEMENT_3D('',#1356,#1098,#1099);
#930=AXIS2_PLACEMENT_3D('',#1358,#1101,#1102);
#931=AXIS2_PLACEMENT_3D('',#1360,#1104,#1105);
#932=AXIS2_PLACEMENT_3D('',#1362,#1107,#1108);
#933=AXIS2_PLACEMENT_3D('',#1363,#1109,#1110);
#934=AXIS2_PLACEMENT_3D('',#1364,#1111,#1112);
#935=AXIS2_PLACEMENT_3D('',#1366,#1113,#1114);
#936=AXIS2_PLACEMENT_3D('',#1367,#1115,#1116);
#937=AXIS2_PLACEMENT_3D('',#1369,#1117,#1118);
#938=AXIS2_PLACEMENT_3D('',#1370,#1119,#1120);
#939=AXIS2_PLACEMENT_3D('',#1372,#1121,#1122);
#940=AXIS2_PLACEMENT_3D('',#1373,#1123,#1124);
#941=AXIS2_PLACEMENT_3D('',#1375,#1125,#1126);
#942=AXIS2_PLACEMENT_3D('',#1376,#1127,#1128);
#943=AXIS2_PLACEMENT_3D('',#1377,#1129,#1130);
#944=AXIS2_PLACEMENT_3D('',#1378,#1131,#1132);
#945=AXIS2_PLACEMENT_3D('',#1379,#1133,#1134);
#946=AXIS2_PLACEMENT_3D('',#1395,#1142,#1143);
#947=AXIS2_PLACEMENT_3D('',#1396,#1144,#1145);
#948=AXIS2_PLACEMENT_3D('',#1399,#1148,#1149);
#949=AXIS2_PLACEMENT_3D('',#1405,#1153,#1154);
#950=AXIS2_PLACEMENT_3D('',#1407,#1156,#1157);
#951=AXIS2_PLACEMENT_3D('',#1411,#1160,#1161);
#952=AXIS2_PLACEMENT_3D('',#1412,#1162,#1163);
#953=AXIS2_PLACEMENT_3D('',#1417,#1166,#1167);
#954=AXIS2_PLACEMENT_3D('',#1427,#1173,#1174);
#955=AXIS2_PLACEMENT_3D('',#1428,#1175,#1176);
#956=AXIS2_PLACEMENT_3D('',#1429,#1177,#1178);
#957=AXIS2_PLACEMENT_3D('',#1432,#1181,#1182);
#958=AXIS2_PLACEMENT_3D('',#1435,#1185,#1186);
#959=AXIS2_PLACEMENT_3D('',#1436,#1187,#1188);
#960=AXIS2_PLACEMENT_3D('',#1438,#1189,#1190);
#961=AXIS2_PLACEMENT_3D('',#1448,#1195,#1196);
#962=AXIS2_PLACEMENT_3D('',#1449,#1197,#1198);
#963=AXIS2_PLACEMENT_3D('',#1450,#1199,#1200);
#964=AXIS2_PLACEMENT_3D('',#1451,#1201,#1202);
#965=AXIS2_PLACEMENT_3D('',#1452,#1203,#1204);
#966=AXIS2_PLACEMENT_3D('',#1453,#1205,#1206);
#967=AXIS2_PLACEMENT_3D('',#1454,#1207,#1208);
#968=AXIS2_PLACEMENT_3D('',#1457,#1211,#1212);
#969=AXIS2_PLACEMENT_3D('',#1460,#1215,#1216);
#970=AXIS2_PLACEMENT_3D('',#1461,#1217,#1218);
#971=DIRECTION('',(0.,0.,1.));
#972=DIRECTION('',(1.,0.,0.));
#973=DIRECTION('',(-1.85037170770859E-16,1.,0.));
#974=DIRECTION('',(-1.,-1.85037170770859E-16,0.));
#975=DIRECTION('',(1.,1.85037170770859E-16,-1.98254111540206E-16));
#976=DIRECTION('',(0.,0.,1.));
#977=DIRECTION('',(-1.,-1.85037170770859E-16,0.));
#978=DIRECTION('',(0.,0.,-1.));
#979=DIRECTION('',(-1.85037170770859E-16,1.,0.));
#980=DIRECTION('',(-1.,-1.85037170770859E-16,0.));
#981=DIRECTION('',(-1.85037170770859E-16,1.,0.));
#982=DIRECTION('',(-1.,-1.85037170770859E-16,0.));
#983=DIRECTION('',(0.,0.,1.));
#984=DIRECTION('',(1.,1.85037170770859E-16,-1.98254111540206E-16));
#985=DIRECTION('',(0.,0.,-1.));
#986=DIRECTION('',(-1.,-1.85037170770859E-16,0.));
#987=DIRECTION('',(-1.85037170770859E-16,1.,0.));
#988=DIRECTION('',(-1.,-1.85037170770859E-16,0.));
#989=DIRECTION('',(1.,1.85037170770859E-16,-1.98254111540206E-16));
#990=DIRECTION('',(0.,0.,-1.));
#991=DIRECTION('',(1.,1.85037170770859E-16,0.));
#992=DIRECTION('',(0.,0.,-1.));
#993=DIRECTION('',(-1.85037170770859E-16,1.,0.));
#994=DIRECTION('',(-1.,-1.85037170770859E-16,0.));
#995=DIRECTION('',(-1.85037170770859E-16,1.,0.));
#996=DIRECTION('',(-1.,-1.85037170770859E-16,0.));
#997=DIRECTION('',(-1.85037170770859E-16,1.,0.));
#998=DIRECTION('',(-1.,-1.85037170770859E-16,0.));
#999=DIRECTION('',(-1.85037170770859E-16,1.,0.));
#1000=DIRECTION('',(-1.,-1.85037170770859E-16,0.));
#1001=DIRECTION('',(0.,0.,-1.));
#1002=DIRECTION('',(-1.85037170770859E-16,1.,0.));
#1003=DIRECTION('',(-1.,-1.85037170770859E-16,0.));
#1004=DIRECTION('',(1.,1.85037170770859E-16,-1.32169407693471E-16));
#1005=DIRECTION('',(-1.85037170770859E-16,1.,0.));
#1006=DIRECTION('',(-1.,-1.85037170770859E-16,0.));
#1007=DIRECTION('',(0.,0.,-1.));
#1008=DIRECTION('',(-1.85037170770859E-16,1.,0.));
#1009=DIRECTION('',(-1.,-1.85037170770859E-16,0.));
#1010=DIRECTION('',(1.,1.85037170770859E-16,0.));
#1011=DIRECTION('',(-1.85037170770859E-16,1.,0.));
#1012=DIRECTION('',(-1.,-1.85037170770859E-16,0.));
#1013=DIRECTION('',(1.,1.85037170770859E-16,0.));
#1014=DIRECTION('',(-1.85037170770859E-16,1.,0.));
#1015=DIRECTION('',(0.,0.,-1.));
#1016=DIRECTION('',(-1.85037170770859E-16,1.,0.));
#1017=DIRECTION('',(0.,0.,-1.));
#1018=DIRECTION('',(-1.85037170770859E-16,1.,0.));
#1019=DIRECTION('',(-1.85037170770859E-16,1.,0.));
#1020=DIRECTION('',(-1.,-1.85037170770859E-16,0.));
#1021=DIRECTION('',(-1.85037170770859E-16,1.,0.));
#1022=DIRECTION('',(-1.,-1.85037170770859E-16,0.));
#1023=DIRECTION('',(-1.85037170770859E-16,1.,0.));
#1024=DIRECTION('',(-1.,-1.85037170770859E-16,0.));
#1025=DIRECTION('',(-1.85037170770859E-16,1.,0.));
#1026=DIRECTION('',(0.,0.,1.));
#1027=DIRECTION('',(1.,0.,0.));
#1028=DIRECTION('',(1.,1.85037170770859E-16,0.));
#1029=DIRECTION('',(1.,1.85037170770859E-16,0.));
#1030=DIRECTION('',(-1.85037170770859E-16,1.,0.));
#1031=DIRECTION('',(-1.85037170770859E-16,1.,0.));
#1032=DIRECTION('',(-1.,-1.85037170770859E-16,0.));
#1033=DIRECTION('',(-1.85037170770859E-16,1.,0.));
#1034=DIRECTION('',(-1.,-1.85037170770859E-16,0.));
#1035=DIRECTION('',(-1.85037170770859E-16,1.,0.));
#1036=DIRECTION('',(-1.,-1.85037170770859E-16,0.));
#1037=DIRECTION('',(-1.85037170770859E-16,1.,0.));
#1038=DIRECTION('',(1.,1.85037170770859E-16,0.));
#1039=DIRECTION('',(-1.85037170770859E-16,1.,0.));
#1040=DIRECTION('',(0.,0.,-1.));
#1041=DIRECTION('',(0.,0.,-1.));
#1042=DIRECTION('',(-1.85037170770859E-16,1.,0.));
#1043=DIRECTION('',(-1.85037170770859E-16,1.,0.));
#1044=DIRECTION('',(-1.,-1.85037170770859E-16,0.));
#1045=DIRECTION('',(-1.85037170770859E-16,1.,0.));
#1046=DIRECTION('',(-1.,-1.85037170770859E-16,0.));
#1047=DIRECTION('',(-1.85037170770859E-16,1.,0.));
#1048=DIRECTION('',(-1.,-1.85037170770859E-16,0.));
#1049=DIRECTION('',(-1.85037170770859E-16,1.,0.));
#1050=DIRECTION('',(-1.54197642309049E-16,-2.85322954724035E-32,1.));
#1051=DIRECTION('',(1.,0.,1.54197642309049E-16));
#1052=DIRECTION('',(1.,1.85037170770859E-16,1.54197642309049E-16));
#1053=DIRECTION('',(1.,1.85037170770859E-16,1.54197642309049E-16));
#1054=DIRECTION('',(-1.85037170770859E-16,1.,0.));
#1055=DIRECTION('',(-1.85037170770859E-16,1.,0.));
#1056=DIRECTION('',(-1.,-1.85037170770859E-16,0.));
#1057=DIRECTION('',(-1.85037170770859E-16,1.,0.));
#1058=DIRECTION('',(-1.,-1.85037170770859E-16,0.));
#1059=DIRECTION('',(-1.85037170770859E-16,1.,0.));
#1060=DIRECTION('',(-1.,-1.85037170770859E-16,0.));
#1061=DIRECTION('',(-1.85037170770859E-16,1.,0.));
#1062=DIRECTION('',(-1.,-1.85037170770859E-16,0.));
#1063=DIRECTION('',(-1.85037170770859E-16,1.,0.));
#1064=DIRECTION('',(-1.,-1.85037170770859E-16,0.));
#1065=DIRECTION('',(-1.85037170770859E-16,1.,0.));
#1066=DIRECTION('',(-1.,-1.85037170770859E-16,0.));
#1067=DIRECTION('',(-1.85037170770859E-16,1.,0.));
#1068=DIRECTION('',(-1.,-1.85037170770859E-16,0.));
#1069=DIRECTION('',(-1.85037170770859E-16,1.,0.));
#1070=DIRECTION('',(-1.,-1.85037170770859E-16,0.));
#1071=DIRECTION('',(-1.85037170770859E-16,1.,0.));
#1072=DIRECTION('',(-1.,-1.85037170770859E-16,0.));
#1073=DIRECTION('',(0.,0.,-1.));
#1074=DIRECTION('',(-1.85037170770859E-16,1.,0.));
#1075=DIRECTION('',(-1.,-1.85037170770859E-16,0.));
#1076=DIRECTION('',(1.,1.85037170770859E-16,0.));
#1077=DIRECTION('',(-1.85037170770859E-16,1.,0.));
#1078=DIRECTION('',(-1.,-1.85037170770859E-16,0.));
#1079=DIRECTION('',(0.,0.,-1.));
#1080=DIRECTION('',(-1.85037170770859E-16,1.,0.));
#1081=DIRECTION('',(-1.,-1.85037170770859E-16,0.));
#1082=DIRECTION('',(1.,1.85037170770859E-16,-1.32169407693471E-16));
#1083=DIRECTION('',(-1.85037170770859E-16,1.,0.));
#1084=DIRECTION('',(-1.,-1.85037170770859E-16,0.));
#1085=DIRECTION('',(-1.,-1.85037170770859E-16,0.));
#1086=DIRECTION('',(1.85037170770859E-16,-1.,0.));
#1087=DIRECTION('',(1.85037170770859E-16,-1.,0.));
#1088=DIRECTION('',(1.85037170770859E-16,-1.,0.));
#1089=DIRECTION('',(1.85037170770859E-16,-1.,0.));
#1090=DIRECTION('',(1.,1.85037170770859E-16,0.));
#1091=DIRECTION('',(1.85037170770859E-16,-1.,0.));
#1092=DIRECTION('',(-1.32169407693471E-16,-2.44562532620601E-32,-1.));
#1093=DIRECTION('',(-1.,0.,1.32169407693471E-16));
#1094=DIRECTION('',(1.85037170770859E-16,-1.,0.));
#1095=DIRECTION('',(1.85037170770859E-16,-1.,0.));
#1096=DIRECTION('',(1.,1.85037170770859E-16,0.));
#1097=DIRECTION('',(1.85037170770859E-16,-1.,0.));
#1098=DIRECTION('',(-1.,-1.85037170770859E-16,0.));
#1099=DIRECTION('',(1.85037170770859E-16,-1.,0.));
#1100=DIRECTION('',(1.85037170770859E-16,-1.,0.));
#1101=DIRECTION('',(1.85037170770859E-16,-1.,0.));
#1102=DIRECTION('',(1.,1.85037170770859E-16,0.));
#1103=DIRECTION('',(1.85037170770859E-16,-1.,0.));
#1104=DIRECTION('',(0.,0.,-1.));
#1105=DIRECTION('',(-1.,0.,0.));
#1106=DIRECTION('',(1.85037170770859E-16,-1.,0.));
#1107=DIRECTION('',(1.85037170770859E-16,-1.,0.));
#1108=DIRECTION('',(1.,1.85037170770859E-16,0.));
#1109=DIRECTION('',(-1.85037170770859E-16,1.,0.));
#1110=DIRECTION('',(-1.,-1.85037170770859E-16,0.));
#1111=DIRECTION('',(0.,1.,0.));
#1112=DIRECTION('',(0.,0.,1.));
#1113=DIRECTION('',(-1.85037170770859E-16,1.,0.));
#1114=DIRECTION('',(-1.,-1.85037170770859E-16,0.));
#1115=DIRECTION('',(0.,1.,0.));
#1116=DIRECTION('',(0.,0.,1.));
#1117=DIRECTION('',(-1.85037170770859E-16,1.,0.));
#1118=DIRECTION('',(-1.,-1.85037170770859E-16,0.));
#1119=DIRECTION('',(0.,1.,0.));
#1120=DIRECTION('',(0.,0.,1.));
#1121=DIRECTION('',(-1.85037170770859E-16,1.,0.));
#1122=DIRECTION('',(-1.,-1.85037170770859E-16,0.));
#1123=DIRECTION('',(0.,1.,0.));
#1124=DIRECTION('',(0.,0.,1.));
#1125=DIRECTION('',(0.,1.,0.));
#1126=DIRECTION('',(0.,0.,1.));
#1127=DIRECTION('',(0.,1.,0.));
#1128=DIRECTION('',(0.,0.,1.));
#1129=DIRECTION('',(0.,1.,0.));
#1130=DIRECTION('',(0.,0.,1.));
#1131=DIRECTION('',(0.,1.,0.));
#1132=DIRECTION('',(0.,0.,1.));
#1133=DIRECTION('',(-1.98254111540206E-16,-3.66843798930902E-32,-1.));
#1134=DIRECTION('',(-1.,0.,1.98254111540206E-16));
#1135=DIRECTION('',(1.,1.85037170770859E-16,-1.98254111540206E-16));
#1136=DIRECTION('',(0.,-1.,3.66843798930902E-32));
#1137=DIRECTION('',(1.,1.85037170770859E-16,-1.98254111540206E-16));
#1138=DIRECTION('',(1.85037170770859E-16,-1.,-5.47382212626882E-48));
#1139=DIRECTION('',(1.85037170770859E-16,-1.,0.));
#1140=DIRECTION('',(1.,1.85037170770859E-16,-1.98254111540206E-16));
#1141=DIRECTION('',(1.85037170770859E-16,-1.,0.));
#1142=DIRECTION('',(-1.98254111540206E-16,-3.66843798930902E-32,-1.));
#1143=DIRECTION('',(-1.,0.,1.98254111540206E-16));
#1144=DIRECTION('',(-1.98254111540206E-16,-3.66843798930902E-32,-1.));
#1145=DIRECTION('',(-1.,0.,1.98254111540206E-16));
#1146=DIRECTION('',(0.,-1.,3.66843798930902E-32));
#1147=DIRECTION('',(1.85037170770859E-16,-1.,-5.47382212626882E-48));
#1148=DIRECTION('',(-1.,-1.85037170770859E-16,0.));
#1149=DIRECTION('',(1.85037170770859E-16,-1.,0.));
#1150=DIRECTION('',(0.,0.,-1.));
#1151=DIRECTION('',(1.85037170770859E-16,-1.,0.));
#1152=DIRECTION('',(0.,0.,-1.));
#1153=DIRECTION('',(-1.,-1.85037170770859E-16,0.));
#1154=DIRECTION('',(1.85037170770859E-16,-1.,0.));
#1155=DIRECTION('',(1.85037170770859E-16,-1.,0.));
#1156=DIRECTION('',(-1.85037170770859E-16,1.,0.));
#1157=DIRECTION('',(-1.,-1.85037170770859E-16,0.));
#1158=DIRECTION('',(0.,0.,1.));
#1159=DIRECTION('',(-1.,-1.85037170770859E-16,0.));
#1160=DIRECTION('',(-1.85037170770859E-16,1.,0.));
#1161=DIRECTION('',(-1.,-1.85037170770859E-16,0.));
#1162=DIRECTION('',(-1.85037170770859E-16,1.,0.));
#1163=DIRECTION('',(-1.,-1.85037170770859E-16,0.));
#1164=DIRECTION('',(0.,0.,1.));
#1165=DIRECTION('',(-1.,-1.85037170770859E-16,0.));
#1166=DIRECTION('',(0.,0.,-1.));
#1167=DIRECTION('',(-1.,0.,0.));
#1168=DIRECTION('',(0.,-1.,0.));
#1169=DIRECTION('',(0.,-1.,0.));
#1170=DIRECTION('',(1.85037170770859E-16,-1.,0.));
#1171=DIRECTION('',(-1.,-1.85037170770859E-16,0.));
#1172=DIRECTION('',(1.85037170770859E-16,-1.,0.));
#1173=DIRECTION('',(0.,0.,-1.));
#1174=DIRECTION('',(-1.,0.,0.));
#1175=DIRECTION('',(0.,0.,-1.));
#1176=DIRECTION('',(-1.,0.,0.));
#1177=DIRECTION('',(-1.,-1.85037170770859E-16,0.));
#1178=DIRECTION('',(1.85037170770859E-16,-1.,0.));
#1179=DIRECTION('',(0.,0.,1.));
#1180=DIRECTION('',(0.,0.,-1.));
#1181=DIRECTION('',(-1.,-1.85037170770859E-16,0.));
#1182=DIRECTION('',(1.85037170770859E-16,-1.,0.));
#1183=DIRECTION('',(0.,0.,-1.));
#1184=DIRECTION('',(0.,0.,-1.));
#1185=DIRECTION('',(-1.85037170770859E-16,1.,0.));
#1186=DIRECTION('',(-1.,-1.85037170770859E-16,0.));
#1187=DIRECTION('',(-1.85037170770859E-16,1.,0.));
#1188=DIRECTION('',(-1.,-1.85037170770859E-16,0.));
#1189=DIRECTION('',(-1.85037170770859E-16,1.,0.));
#1190=DIRECTION('',(-1.,-1.85037170770859E-16,0.));
#1191=DIRECTION('',(0.,0.,1.));
#1192=DIRECTION('',(1.,1.85037170770859E-16,0.));
#1193=DIRECTION('',(0.,0.,-1.));
#1194=DIRECTION('',(-1.,-1.85037170770859E-16,1.98254111540206E-16));
#1195=DIRECTION('',(0.,0.,-1.));
#1196=DIRECTION('',(-1.,0.,0.));
#1197=DIRECTION('',(0.,0.,1.));
#1198=DIRECTION('',(1.,0.,0.));
#1199=DIRECTION('',(-1.,0.,0.));
#1200=DIRECTION('',(0.,0.,1.));
#1201=DIRECTION('',(-1.,0.,0.));
#1202=DIRECTION('',(0.,0.,1.));
#1203=DIRECTION('',(-1.85037170770859E-16,1.,0.));
#1204=DIRECTION('',(-1.,-1.85037170770859E-16,0.));
#1205=DIRECTION('',(-1.85037170770859E-16,1.,0.));
#1206=DIRECTION('',(-1.,-1.85037170770859E-16,0.));
#1207=DIRECTION('',(0.707106781186546,-0.707106781186549,0.));
#1208=DIRECTION('',(0.,0.,-1.));
#1209=DIRECTION('',(-0.577350269189627,-0.577350269189625,0.577350269189625));
#1210=DIRECTION('',(-0.577350269189627,-0.577350269189625,-0.577350269189625));
#1211=DIRECTION('',(0.707106781186549,0.707106781186546,0.));
#1212=DIRECTION('',(0.,0.,1.));
#1213=DIRECTION('',(0.577350269189624,-0.577350269189626,0.577350269189627));
#1214=DIRECTION('',(0.577350269189624,-0.577350269189626,-0.577350269189627));
#1215=DIRECTION('',(-1.30841038223648E-16,0.707106781186548,0.707106781186548));
#1216=DIRECTION('',(-1.,-1.85037170770859E-16,0.));
#1217=DIRECTION('',(2.71027864891842E-16,-0.707106781186548,0.707106781186548));
#1218=DIRECTION('',(1.,1.85037170770859E-16,-1.98254111540206E-16));
#1219=CARTESIAN_POINT('',(0.,0.,0.));
#1220=CARTESIAN_POINT('',(-1.47104550762833E-17,0.0795,0.0734));
#1221=CARTESIAN_POINT('',(-1.43403807347416E-17,0.0795,0.0559));
#1222=CARTESIAN_POINT('',(0.00200000000000004,0.0795,0.0559));
#1223=CARTESIAN_POINT('',(0.0325,0.0795,0.0559));
#1224=CARTESIAN_POINT('',(0.00200000000000004,0.0795,0.055898));
#1225=CARTESIAN_POINT('',(0.00200000000000004,0.0795,0.0869));
#1226=CARTESIAN_POINT('',(-1.47104550762833E-17,0.0795,0.0869));
#1227=CARTESIAN_POINT('',(0.0325,0.0795,0.0869));
#1228=CARTESIAN_POINT('',(0.0325,0.0795,0.0734));
#1229=CARTESIAN_POINT('',(-2.02615701994091E-17,0.1095,0.0734));
#1230=CARTESIAN_POINT('',(0.015,0.1095,0.0714));
#1231=CARTESIAN_POINT('',(0.0109,0.1095,0.0714));
#1232=CARTESIAN_POINT('',(0.00200000000000004,0.1095,0.055898));
#1233=CARTESIAN_POINT('',(0.00200000000000004,0.1095,0.0559));
#1234=CARTESIAN_POINT('',(0.00200000000000004,0.1095,0.0869));
#1235=CARTESIAN_POINT('',(-1.98914958578674E-17,0.1095,0.0559));
#1236=CARTESIAN_POINT('',(0.0325,0.1095,0.0559));
#1237=CARTESIAN_POINT('',(0.0325,0.1095,0.0734));
#1238=CARTESIAN_POINT('',(0.0325,0.1095,0.0869));
#1239=CARTESIAN_POINT('',(-2.02615701994091E-17,0.1095,0.0869));
#1240=CARTESIAN_POINT('',(-1.42478621493562E-17,0.077,0.0734));
#1241=CARTESIAN_POINT('',(-1.38777878078145E-17,0.077,0.0559));
#1242=CARTESIAN_POINT('',(-0.055,0.077,0.0559));
#1243=CARTESIAN_POINT('',(0.055,0.077,0.0559));
#1244=CARTESIAN_POINT('',(0.055,0.077,0.0734));
#1245=CARTESIAN_POINT('',(0.055,0.077,0.0869));
#1246=CARTESIAN_POINT('',(-1.38777878078145E-17,0.077,0.0869));
#1247=CARTESIAN_POINT('',(-0.055,0.077,0.0869));
#1248=CARTESIAN_POINT('',(-0.055,0.077,0.0559));
#1249=CARTESIAN_POINT('',(0.0565,0.077,0.0949));
#1250=CARTESIAN_POINT('',(0.0534,0.077,0.0949));
#1251=CARTESIAN_POINT('',(-0.0565,0.077,0.0949));
#1252=CARTESIAN_POINT('',(-0.0596,0.077,0.0949));
#1253=CARTESIAN_POINT('',(0.0565,0.077,0.0519));
#1254=CARTESIAN_POINT('',(0.0534,0.077,0.0519));
#1255=CARTESIAN_POINT('',(-0.0565,0.077,0.0519));
#1256=CARTESIAN_POINT('',(-0.0596,0.077,0.0519));
#1257=CARTESIAN_POINT('',(0.0625,0.077,0.0734));
#1258=CARTESIAN_POINT('',(0.0625,0.077,0.0909));
#1259=CARTESIAN_POINT('',(0.0625,0.077,0.0559));
#1260=CARTESIAN_POINT('',(0.0525,0.077,0.0559));
#1261=CARTESIAN_POINT('',(0.0525,0.077,0.0459));
#1262=CARTESIAN_POINT('',(-7.30896824544895E-18,0.077,0.0459));
#1263=CARTESIAN_POINT('',(-0.0525,0.077,0.0459));
#1264=CARTESIAN_POINT('',(-0.0525,0.077,0.0559));
#1265=CARTESIAN_POINT('',(-0.0625,0.077,0.0559));
#1266=CARTESIAN_POINT('',(-0.0625,0.077,0.0734));
#1267=CARTESIAN_POINT('',(-0.0625,0.077,0.0909));
#1268=CARTESIAN_POINT('',(-0.0525,0.077,0.0909));
#1269=CARTESIAN_POINT('',(-0.0525,0.077,0.1009));
#1270=CARTESIAN_POINT('',(-7.30896824544895E-18,0.077,0.1009));
#1271=CARTESIAN_POINT('',(0.0525,0.077,0.1009));
#1272=CARTESIAN_POINT('',(0.0525,0.077,0.0909));
#1273=CARTESIAN_POINT('',(-0.0546,0.065,0.0684));
#1274=CARTESIAN_POINT('',(-0.0546,0.075,0.0684));
#1275=CARTESIAN_POINT('',(-0.0546,0.075,0.0834));
#1276=CARTESIAN_POINT('',(-0.0546,0.075,0.0634));
#1277=CARTESIAN_POINT('',(-0.0546,0.065,0.0634));
#1278=CARTESIAN_POINT('',(-0.0546,0.065,0.0634));
#1279=CARTESIAN_POINT('',(-0.0546,0.065,0.0684));
#1280=CARTESIAN_POINT('',(-0.0546,0.065,0.0834));
#1281=CARTESIAN_POINT('',(-0.0546,0.065,0.0834));
#1282=CARTESIAN_POINT('',(-0.045,0.065,0.0834));
#1283=CARTESIAN_POINT('',(-0.045,0.075,0.0834));
#1284=CARTESIAN_POINT('',(-0.045,0.075,0.093));
#1285=CARTESIAN_POINT('',(-0.045,0.065,0.0834));
#1286=CARTESIAN_POINT('',(-0.045,0.065,0.093));
#1287=CARTESIAN_POINT('',(-0.045,0.065,0.093));
#1288=CARTESIAN_POINT('',(0.0225,0.065,0.093));
#1289=CARTESIAN_POINT('',(0.0225,0.075,0.093));
#1290=CARTESIAN_POINT('',(0.045,0.075,0.093));
#1291=CARTESIAN_POINT('',(0.0225,0.065,0.093));
#1292=CARTESIAN_POINT('',(0.045,0.065,0.093));
#1293=CARTESIAN_POINT('',(0.045,0.065,0.093));
#1294=CARTESIAN_POINT('',(0.045,0.065,0.0834));
#1295=CARTESIAN_POINT('',(0.045,0.075,0.0834));
#1296=CARTESIAN_POINT('',(0.0546,0.075,0.0834));
#1297=CARTESIAN_POINT('',(0.045,0.065,0.0834));
#1298=CARTESIAN_POINT('',(0.0546,0.065,0.0834));
#1299=CARTESIAN_POINT('',(0.0546,0.065,0.0834));
#1300=CARTESIAN_POINT('',(0.0546,0.065,0.0734));
#1301=CARTESIAN_POINT('',(0.0546,0.075,0.0734));
#1302=CARTESIAN_POINT('',(0.0546,0.075,0.0634));
#1303=CARTESIAN_POINT('',(0.0546,0.065,0.0734));
#1304=CARTESIAN_POINT('',(0.0546,0.065,0.0634));
#1305=CARTESIAN_POINT('',(0.0546,0.065,0.0634));
#1306=CARTESIAN_POINT('',(0.045,0.065,0.0634));
#1307=CARTESIAN_POINT('',(0.045,0.075,0.0634));
#1308=CARTESIAN_POINT('',(0.045,0.075,0.0538));
#1309=CARTESIAN_POINT('',(0.045,0.065,0.0634));
#1310=CARTESIAN_POINT('',(0.045,0.065,0.0538));
#1311=CARTESIAN_POINT('',(0.045,0.065,0.0538));
#1312=CARTESIAN_POINT('',(-1.20274161001059E-17,0.065,0.0538));
#1313=CARTESIAN_POINT('',(-1.38777878078145E-17,0.075,0.0538));
#1314=CARTESIAN_POINT('',(-0.045,0.075,0.0538));
#1315=CARTESIAN_POINT('',(-1.20274161001059E-17,0.065,0.0538));
#1316=CARTESIAN_POINT('',(-0.045,0.065,0.0538));
#1317=CARTESIAN_POINT('',(-0.045,0.065,0.0538));
#1318=CARTESIAN_POINT('',(-0.045,0.065,0.0634));
#1319=CARTESIAN_POINT('',(-0.045,0.075,0.0634));
#1320=CARTESIAN_POINT('',(-0.045,0.065,0.0634));
#1321=CARTESIAN_POINT('',(1.5728159515523E-17,0.065,0.0734));
#1322=CARTESIAN_POINT('',(-1.38777878078145E-17,0.075,0.0734));
#1323=CARTESIAN_POINT('',(0.0565,0.075,0.0519));
#1324=CARTESIAN_POINT('',(0.0544,0.075,0.0519));
#1325=CARTESIAN_POINT('',(-0.0565,0.075,0.0519));
#1326=CARTESIAN_POINT('',(-0.0586,0.075,0.0519));
#1327=CARTESIAN_POINT('',(-0.0565,0.075,0.0949));
#1328=CARTESIAN_POINT('',(-0.0586,0.075,0.0949));
#1329=CARTESIAN_POINT('',(0.0565,0.075,0.0949));
#1330=CARTESIAN_POINT('',(0.0544,0.075,0.0949));
#1331=CARTESIAN_POINT('',(0.0625,0.075,0.0734));
#1332=CARTESIAN_POINT('',(0.0625,0.075,0.0909));
#1333=CARTESIAN_POINT('',(0.0625,0.075,0.0559));
#1334=CARTESIAN_POINT('',(0.0525,0.075,0.0909));
#1335=CARTESIAN_POINT('',(0.0525,0.075,0.1009));
#1336=CARTESIAN_POINT('',(-6.93889390390723E-18,0.075,0.1009));
#1337=CARTESIAN_POINT('',(-0.0525,0.075,0.1009));
#1338=CARTESIAN_POINT('',(-0.0525,0.075,0.0909));
#1339=CARTESIAN_POINT('',(-0.0625,0.075,0.0909));
#1340=CARTESIAN_POINT('',(-0.0625,0.075,0.0734));
#1341=CARTESIAN_POINT('',(-0.0625,0.075,0.0559));
#1342=CARTESIAN_POINT('',(-0.0525,0.075,0.0559));
#1343=CARTESIAN_POINT('',(-0.0525,0.075,0.0459));
#1344=CARTESIAN_POINT('',(-6.93889390390723E-18,0.075,0.0459));
#1345=CARTESIAN_POINT('',(0.0525,0.075,0.0459));
#1346=CARTESIAN_POINT('',(0.0525,0.075,0.0559));
#1347=CARTESIAN_POINT('',(0.0625,0.077,0.0734));
#1348=CARTESIAN_POINT('',(0.0625,0.077,0.0559));
#1349=CARTESIAN_POINT('',(0.0625,0.077,0.0909));
#1350=CARTESIAN_POINT('',(0.0525,0.077,0.0559));
#1351=CARTESIAN_POINT('',(0.0525,0.077,0.0459));
#1352=CARTESIAN_POINT('',(-7.30896824544895E-18,0.077,0.0459));
#1353=CARTESIAN_POINT('',(-0.0525,0.077,0.0459));
#1354=CARTESIAN_POINT('',(-0.0525,0.077,0.0559));
#1355=CARTESIAN_POINT('',(-0.0625,0.077,0.0559));
#1356=CARTESIAN_POINT('',(-0.0625,0.077,0.0734));
#1357=CARTESIAN_POINT('',(-0.0625,0.077,0.0909));
#1358=CARTESIAN_POINT('',(-0.0525,0.077,0.0909));
#1359=CARTESIAN_POINT('',(-0.0525,0.077,0.1009));
#1360=CARTESIAN_POINT('',(-7.30896824544895E-18,0.077,0.1009));
#1361=CARTESIAN_POINT('',(0.0525,0.077,0.1009));
#1362=CARTESIAN_POINT('',(0.0525,0.077,0.0909));
#1363=CARTESIAN_POINT('',(0.0565,0.0521,0.0949));
#1364=CARTESIAN_POINT('',(0.0565,0.076,0.0949));
#1365=CARTESIAN_POINT('',(0.0565,0.076,0.097));
#1366=CARTESIAN_POINT('',(-0.0565,0.0521,0.0949));
#1367=CARTESIAN_POINT('',(-0.0565,0.076,0.0949));
#1368=CARTESIAN_POINT('',(-0.0565,0.076,0.097));
#1369=CARTESIAN_POINT('',(-0.0565,0.0521,0.0519));
#1370=CARTESIAN_POINT('',(-0.0565,0.076,0.0519));
#1371=CARTESIAN_POINT('',(-0.0565,0.076,0.054));
#1372=CARTESIAN_POINT('',(0.0565,0.0521,0.0519));
#1373=CARTESIAN_POINT('',(0.0565,0.076,0.0519));
#1374=CARTESIAN_POINT('',(0.0565,0.076,0.054));
#1375=CARTESIAN_POINT('',(0.0565,0.076,0.0519));
#1376=CARTESIAN_POINT('',(-0.0565,0.076,0.0519));
#1377=CARTESIAN_POINT('',(-0.0565,0.076,0.0949));
#1378=CARTESIAN_POINT('',(0.0565,0.076,0.0949));
#1379=CARTESIAN_POINT('',(-1.85037170770859E-17,0.102,0.0559));
#1380=CARTESIAN_POINT('',(-1.43403807347416E-17,0.0795,0.0559));
#1381=CARTESIAN_POINT('',(-0.0325,0.0795,0.0559));
#1382=CARTESIAN_POINT('',(-0.00199999999999996,0.0795,0.0559));
#1383=CARTESIAN_POINT('',(-0.00199999999999996,0.0945,0.0559));
#1384=CARTESIAN_POINT('',(-0.00199999999999996,0.1095,0.0559));
#1385=CARTESIAN_POINT('',(-1.98914958578674E-17,0.1095,0.0559));
#1386=CARTESIAN_POINT('',(-0.0325,0.1095,0.0559));
#1387=CARTESIAN_POINT('',(-0.0325,0.102,0.0559));
#1388=CARTESIAN_POINT('',(-0.045,0.102,0.0559));
#1389=CARTESIAN_POINT('',(-0.045,0.113,0.0559));
#1390=CARTESIAN_POINT('',(-0.045,0.087,0.0559));
#1391=CARTESIAN_POINT('',(-2.05391259555654E-17,0.113,0.0559));
#1392=CARTESIAN_POINT('',(0.045,0.113,0.0559));
#1393=CARTESIAN_POINT('',(0.045,0.102,0.0559));
#1394=CARTESIAN_POINT('',(0.045,0.087,0.0559));
#1395=CARTESIAN_POINT('',(0.055,0.087,0.0559));
#1396=CARTESIAN_POINT('',(-0.055,0.087,0.0559));
#1397=CARTESIAN_POINT('',(0.00200000000000004,0.0945,0.0559));
#1398=CARTESIAN_POINT('',(0.0325,0.102,0.0559));
#1399=CARTESIAN_POINT('',(-0.0325,0.102,0.0734));
#1400=CARTESIAN_POINT('',(-0.0325,0.1095,0.0734));
#1401=CARTESIAN_POINT('',(-0.0325,0.1095,0.0869));
#1402=CARTESIAN_POINT('',(-0.0325,0.102,0.0869));
#1403=CARTESIAN_POINT('',(-0.0325,0.0795,0.0869));
#1404=CARTESIAN_POINT('',(-0.0325,0.0795,0.0734));
#1405=CARTESIAN_POINT('',(0.0325,0.102,0.0734));
#1406=CARTESIAN_POINT('',(0.0325,0.102,0.0869));
#1407=CARTESIAN_POINT('',(-1.47104550762833E-17,0.0795,0.0734));
#1408=CARTESIAN_POINT('',(-0.00199999999999996,0.0795,0.055898));
#1409=CARTESIAN_POINT('',(-0.00199999999999996,0.0795,0.0869));
#1410=CARTESIAN_POINT('',(-1.47104550762833E-17,0.0795,0.0869));
#1411=CARTESIAN_POINT('',(-2.02615701994091E-17,0.1095,0.0734));
#1412=CARTESIAN_POINT('',(-0.015,0.1095,0.0714));
#1413=CARTESIAN_POINT('',(-0.0191,0.1095,0.0714));
#1414=CARTESIAN_POINT('',(-0.00199999999999996,0.1095,0.055898));
#1415=CARTESIAN_POINT('',(-0.00199999999999996,0.1095,0.0869));
#1416=CARTESIAN_POINT('',(-2.02615701994091E-17,0.1095,0.0869));
#1417=CARTESIAN_POINT('',(-1.85037170770859E-17,0.102,0.0869));
#1418=CARTESIAN_POINT('',(-0.00199999999999996,0.0945,0.0869));
#1419=CARTESIAN_POINT('',(0.00200000000000004,0.0945,0.0869));
#1420=CARTESIAN_POINT('',(0.045,0.102,0.0869));
#1421=CARTESIAN_POINT('',(0.045,0.113,0.0869));
#1422=CARTESIAN_POINT('',(0.045,0.087,0.0869));
#1423=CARTESIAN_POINT('',(-0.041,0.113,0.0869));
#1424=CARTESIAN_POINT('',(-0.045,0.113,0.0869));
#1425=CARTESIAN_POINT('',(-0.045,0.102,0.0869));
#1426=CARTESIAN_POINT('',(-0.045,0.087,0.0869));
#1427=CARTESIAN_POINT('',(-0.055,0.087,0.0869));
#1428=CARTESIAN_POINT('',(0.055,0.087,0.0869));
#1429=CARTESIAN_POINT('',(0.045,0.102,0.0734));
#1430=CARTESIAN_POINT('',(0.045,0.113,0.0869));
#1431=CARTESIAN_POINT('',(0.045,0.087,0.0734));
#1432=CARTESIAN_POINT('',(-0.045,0.102,0.0734));
#1433=CARTESIAN_POINT('',(-0.045,0.113,0.0734));
#1434=CARTESIAN_POINT('',(-0.045,0.087,0.0869));
#1435=CARTESIAN_POINT('',(-2.16493489801905E-17,0.117,0.0734));
#1436=CARTESIAN_POINT('',(0.015,0.117,0.0714));
#1437=CARTESIAN_POINT('',(0.0109,0.117,0.0714));
#1438=CARTESIAN_POINT('',(-0.015,0.117,0.0714));
#1439=CARTESIAN_POINT('',(-0.0191,0.117,0.0714));
#1440=CARTESIAN_POINT('',(-0.041,0.117,0.0734));
#1441=CARTESIAN_POINT('',(-0.041,0.117,0.0599));
#1442=CARTESIAN_POINT('',(-0.041,0.117,0.0829));
#1443=CARTESIAN_POINT('',(0.041,0.117,0.0829));
#1444=CARTESIAN_POINT('',(0.041,0.117,0.0829));
#1445=CARTESIAN_POINT('',(0.041,0.117,0.0559));
#1446=CARTESIAN_POINT('',(0.041,0.117,0.0599));
#1447=CARTESIAN_POINT('',(-2.43257794859833E-17,0.117,0.0599));
#1448=CARTESIAN_POINT('',(0.055,0.087,0.0734));
#1449=CARTESIAN_POINT('',(-0.055,0.087,0.0734));
#1450=CARTESIAN_POINT('',(0.00200000000000004,0.0945,0.055898));
#1451=CARTESIAN_POINT('',(-0.00199999999999996,0.0945,0.055898));
#1452=CARTESIAN_POINT('',(-0.015,0.092,0.0714));
#1453=CARTESIAN_POINT('',(0.015,0.092,0.0714));
#1454=CARTESIAN_POINT('',(-0.045,0.113,0.0734));
#1455=CARTESIAN_POINT('',(-0.0405,0.1175,0.0824));
#1456=CARTESIAN_POINT('',(-0.0391666666666667,0.118833333333333,0.0617333333333333));
#1457=CARTESIAN_POINT('',(0.041,0.117,0.0734));
#1458=CARTESIAN_POINT('',(0.0378333333333334,0.120166666666667,0.0797333333333333));
#1459=CARTESIAN_POINT('',(0.0365,0.1215,0.0644));
#1460=CARTESIAN_POINT('',(-2.16493489801905E-17,0.117,0.0829));
#1461=CARTESIAN_POINT('',(-2.05391259555654E-17,0.113,0.0559));
#1462=MECHANICAL_DESIGN_GEOMETRIC_PRESENTATION_REPRESENTATION('',(#875),
#1463);
#1463=(
GEOMETRIC_REPRESENTATION_CONTEXT(3)
GLOBAL_UNCERTAINTY_ASSIGNED_CONTEXT((#1464))
GLOBAL_UNIT_ASSIGNED_CONTEXT((#1467,#1466,#1465))
REPRESENTATION_CONTEXT('Mount Plate','TOP_LEVEL_ASSEMBLY_PART')
);
#1464=UNCERTAINTY_MEASURE_WITH_UNIT(LENGTH_MEASURE(1.E-8),#1467,
'DISTANCE_ACCURACY_VALUE','Maximum Tolerance applied to model');
#1465=(
NAMED_UNIT(*)
SI_UNIT($,.STERADIAN.)
SOLID_ANGLE_UNIT()
);
#1466=(
NAMED_UNIT(*)
PLANE_ANGLE_UNIT()
SI_UNIT($,.RADIAN.)
);
#1467=(
LENGTH_UNIT()
NAMED_UNIT(*)
SI_UNIT($,.METRE.)
);
#1468=PRODUCT_DEFINITION_SHAPE('','',#1469);
#1469=PRODUCT_DEFINITION('','',#1471,#1470);
#1470=PRODUCT_DEFINITION_CONTEXT('',#1477,'design');
#1471=PRODUCT_DEFINITION_FORMATION_WITH_SPECIFIED_SOURCE('','',#1473,
 .NOT_KNOWN.);
#1472=PRODUCT_RELATED_PRODUCT_CATEGORY('','',(#1473));
#1473=PRODUCT('Mount Plate','Mount Plate','Mount Plate',(#1475));
#1474=PRODUCT_CATEGORY('','');
#1475=PRODUCT_CONTEXT('',#1477,'mechanical');
#1476=APPLICATION_PROTOCOL_DEFINITION('international standard',
'ap242_managed_model_based_3d_engineering',2011,#1477);
#1477=APPLICATION_CONTEXT('managed model based 3d engineering');
ENDSEC;
END-ISO-10303-21;
