Data from Parasolid IGES Translator 28.0.241, Copyright(c) 2006 Siemens S      1
PLM Software. All Rights Reserved.                                      S      2
1H,,1H;,6HNoname,29H686b723e7a9bce062bccdd9c.iges,27HBy Siemens PLM IncoG      1
rporated,27HXPlus GENERIC/IGES 28.0.241,32,38, 6,308,15,6HNoname,1.000, G      2
6,1HM,1,1.000,15H20250707.070743,1.0e-08,0.00,6HNoname,6HNoname,11,0,15HG      3
20250707.070743;                                                        G      4
     314       1       0       1       0       0       0       000010001D      1
     314       1       0       2       0       0       0               0D      2
     110       3       0       1       0       0       0       000010001D      3
     110       1       0       1       0       0       0               0D      4
     110       4       0       1       0       0       0       000010001D      5
     110       1       0       1       0       0       0               0D      6
     120       5       0       1       0       0       0       000010001D      7
     120       1       0       1       0       0       0               0D      8
     126       6       0       1       0       0       0       000010501D      9
     126       1       0       4       0       0       0               0D     10
     126      10       0       1       0       0       0       000010501D     11
     126       1       0       2       0       0       0               0D     12
     126      12       0       1       0       0       0       000010501D     13
     126       1       0       3       0       0       0               0D     14
     126      15       0       1       0       0       0       000010501D     15
     126       1       0       2       0       0       0               0D     16
     102      17       0       1       0       0       0       000010501D     17
     102       1       0       1       0       0       0               0D     18
     124      18       0       1       0       0       0       000010001D     19
     124       1       0       1       0       0       0               0D     20
     100      19       0       1       0       0      19       000010001D     21
     100       1       0       1       0       0       0               0D     22
     110      20       0       1       0       0       0       000010001D     23
     110       1       0       1       0       0       0               0D     24
     124      21       0       1       0       0       0       000010001D     25
     124       1       0       1       0       0       0               0D     26
     100      22       0       1       0       0      25       000010001D     27
     100       1       0       1       0       0       0               0D     28
     110      23       0       1       0       0       0       000010001D     29
     110       1       0       1       0       0       0               0D     30
     102      24       0       1       0       0       0       000010001D     31
     102       1       0       1       0       0       0               0D     32
     142      25       0       1       0       0       0       000010001D     33
     142       1       0       1       0       0       0               0D     34
     144      26       0       1       0       0       0       000000001D     35
     144       1      -1       1       0       0       0               0D     36
     314      27       0       1       0       0       0       000010001D     37
     314       1       0       2       0       0       0               0D     38
     110      29       0       1       0       0       0       000010001D     39
     110       1       0       1       0       0       0               0D     40
     122      30       0       1       0       0       0       000010001D     41
     122       1       0       1       0       0       0               0D     42
     126      31       0       1       0       0       0       000010501D     43
     126       1       0      69       0       0       0               0D     44
     102     100       0       1       0       0       0       000010501D     45
     102       1       0       1       0       0       0               0D     46
     124     101       0       1       0       0       0       000010001D     47
     124       1       0       1       0       0       0               0D     48
     100     102       0       1       0       0      47       000010001D     49
     100       1       0       1       0       0       0               0D     50
     102     103       0       1       0       0       0       000010001D     51
     102       1       0       1       0       0       0               0D     52
     142     104       0       1       0       0       0       000010001D     53
     142       1       0       1       0       0       0               0D     54
     144     105       0       1       0       0       0       000000001D     55
     144       1     -37       1       0       0       0               0D     56
     314     106       0       1       0       0       0       000010001D     57
     314       1       0       2       0       0       0               0D     58
     110     108       0       1       0       0       0       000010001D     59
     110       1       0       1       0       0       0               0D     60
     122     109       0       1       0       0       0       000010001D     61
     122       1       0       1       0       0       0               0D     62
     126     110       0       1       0       0       0       000010501D     63
     126       1       0      69       0       0       0               0D     64
     102     179       0       1       0       0       0       000010501D     65
     102       1       0       1       0       0       0               0D     66
     124     180       0       1       0       0       0       000010001D     67
     124       1       0       1       0       0       0               0D     68
     100     181       0       1       0       0      67       000010001D     69
     100       1       0       1       0       0       0               0D     70
     102     182       0       1       0       0       0       000010001D     71
     102       1       0       1       0       0       0               0D     72
     142     183       0       1       0       0       0       000010001D     73
     142       1       0       1       0       0       0               0D     74
     144     184       0       1       0       0       0       000000001D     75
     144       1     -57       1       0       0       0               0D     76
314,23.13725501298904,38.03921639919281,70.58823704719543,10HMix       1P      1
edColor;                                                               1P      2
110,0.,-0.003,0.,0.,0.997,0.;                                          3P      3
110,0.,0.,0.05735,0.,-0.003,0.05735;                                   5P      4
120,3,5,0.,6.28318530717959;                                           7P      5
126,1,1,1,0,1,0,-9.42477796076938,-9.42477796076938,                   9P      6
-3.14159265358979,-3.14159265358979,1.,1.,1.,0.,0.,1.,                 9P      7
6.28318530717959,0.,-9.42477796076938,-3.14159265358979,0.,0.,         9P      8
1.;                                                                    9P      9
126,1,1,1,0,1,0,0.,0.,0.003,0.003,1.,1.,1.,6.28318530717959,0.,       11P     10
0.,6.28318530717959,0.,0.,0.003,0.,0.,1.;                             11P     11
126,1,1,1,0,1,0,3.14159265358979,3.14159265358979,                    13P     12
9.42477796076938,9.42477796076938,1.,1.,0.,6.28318530717959,0.,       13P     13
0.,0.,0.,3.14159265358979,9.42477796076938,0.,0.,1.;                  13P     14
126,1,1,1,0,1,0,-0.003,-0.003,0.,0.,1.,1.,0.,0.,0.,1.,0.,0.,          15P     15
-0.003,0.,0.,0.,1.;                                                   15P     16
102,4,9,11,13,15;                                                     17P     17
124,0.,-1.,0.,0.,0.,0.,1.,-0.003,-1.,0.,0.,0.;                        19P     18
100,0.,0.,0.,-0.05735,-0.,-0.05735,-0.;                               21P     19
110,0.,-0.003,0.05735,0.,0.,0.05735;                                  23P     20
124,0.,1.,0.,0.,0.,0.,-1.,0.,-1.,0.,0.,0.;                            25P     21
100,0.,0.,0.,-0.05735,0.,-0.05735,0.;                                 27P     22
110,0.,0.,0.05735,0.,-0.003,0.05735;                                  29P     23
102,4,21,23,27,29;                                                    31P     24
142,1,7,17,31,2;                                                      33P     25
144,7,1,0,33;                                                         35P     26
314,23.13725501298904,38.03921639919281,70.58823704719543,10HMix      37P     27
edColor;                                                              37P     28
110,-0.0580382,-0.003,-0.0580382,0.0580382,-0.003,-0.0580382;         39P     29
122,39,-0.0580382,-0.003,0.0580382;                                   41P     30
126,64,2,1,1,1,1,3.14159265358979,3.14159265358979,                   43P     31
3.14159265358979,3.33794219443916,3.33794219443916,                   43P     32
3.53429173528852,3.53429173528852,3.73064127613788,                   43P     33
3.73064127613788,3.92699081698724,3.92699081698724,                   43P     34
4.1233403578366,4.1233403578366,4.31968989868597,                     43P     35
4.31968989868597,4.51603943953533,4.51603943953533,                   43P     36
4.71238898038469,4.71238898038469,4.90873852123405,                   43P     37
4.90873852123405,5.10508806208341,5.10508806208341,                   43P     38
5.30143760293278,5.30143760293278,5.49778714378214,                   43P     39
5.49778714378214,5.6941366846315,5.6941366846315,                     43P     40
5.89048622548086,5.89048622548086,6.08683576633022,                   43P     41
6.08683576633022,6.28318530717959,6.28318530717959,                   43P     42
6.47953484802895,6.47953484802895,6.67588438887831,                   43P     43
6.67588438887831,6.87223392972767,6.87223392972767,                   43P     44
7.06858347057703,7.06858347057703,7.2649330114264,                    43P     45
7.2649330114264,7.46128255227576,7.46128255227576,                    43P     46
7.65763209312512,7.65763209312512,7.85398163397448,                   43P     47
7.85398163397448,8.05033117482385,8.05033117482385,                   43P     48
8.24668071567321,8.24668071567321,8.44303025652257,                   43P     49
8.44303025652257,8.63937979737193,8.63937979737193,                   43P     50
8.83572933822129,8.83572933822129,9.03207887907065,                   43P     51
9.03207887907065,9.22842841992002,9.22842841992002,                   43P     52
9.42477796076938,9.42477796076938,9.42477796076938,1.,1.,1.,1.,       43P     53
1.,1.,1.,1.,1.,1.,1.,1.,1.,1.,1.,1.,1.,1.,1.,1.,1.,1.,1.,1.,1.,       43P     54
1.,1.,1.,1.,1.,1.,1.,1.,1.,1.,1.,1.,1.,1.,1.,1.,1.,1.,1.,1.,1.,       43P     55
1.,1.,1.,1.,1.,1.,1.,1.,1.,1.,1.,1.,1.,1.,1.,1.,1.,1.,1.,0.5,         43P     56
0.99407114624506,0.,0.45133823944804,0.99407114624506,0.,             43P     57
0.40361150098017,0.98457770770911,0.,0.35588476251231,                43P     58
0.97508426917315,0.,0.31092715792239,0.9564622196202,0.,              43P     59
0.26596955333247,0.93784017006725,0.,0.22550877815237,                43P     60
0.91080514441825,0.,0.18504800297227,0.88377011876926,0.,             43P     61
0.15063894210151,0.84936105789849,0.,0.11622988123074,                43P     62
0.81495199702773,0.,0.08919485558175,0.77449122184763,0.,             43P     63
0.06215982993275,0.73403044666753,0.,0.0435377803798,                 43P     64
0.68907284207761,0.,0.02491573082685,0.64411523748769,0.,             43P     65
0.01542229229089,0.59638849901983,0.,0.00592885375494,                43P     66
0.54866176055196,0.,0.00592885375494,0.5,0.,0.00592885375494,         43P     67
0.45133823944804,0.,0.01542229229089,0.40361150098017,0.,             43P     68
0.02491573082685,0.35588476251231,0.,0.0435377803798,                 43P     69
0.31092715792239,0.,0.06215982993275,0.26596955333247,0.,             43P     70
0.08919485558175,0.22550877815237,0.,0.11622988123074,                43P     71
0.18504800297227,0.,0.15063894210151,0.15063894210151,0.,             43P     72
0.18504800297227,0.11622988123074,0.,0.22550877815237,                43P     73
0.08919485558175,0.,0.26596955333247,0.06215982993275,0.,             43P     74
0.31092715792239,0.0435377803798,0.,0.35588476251231,                 43P     75
0.02491573082685,0.,0.40361150098017,0.01542229229089,0.,             43P     76
0.45133823944804,0.00592885375494,0.,0.5,0.00592885375494,0.,         43P     77
0.54866176055196,0.00592885375494,0.,0.59638849901983,                43P     78
0.01542229229089,0.,0.64411523748769,0.02491573082685,0.,             43P     79
0.68907284207761,0.0435377803798,0.,0.73403044666753,                 43P     80
0.06215982993275,0.,0.77449122184763,0.08919485558175,0.,             43P     81
0.81495199702773,0.11622988123074,0.,0.84936105789849,                43P     82
0.15063894210151,0.,0.88377011876926,0.18504800297227,0.,             43P     83
0.91080514441825,0.22550877815237,0.,0.93784017006725,                43P     84
0.26596955333247,0.,0.9564622196202,0.31092715792239,0.,              43P     85
0.97508426917315,0.35588476251231,0.,0.98457770770911,                43P     86
0.40361150098017,0.,0.99407114624506,0.45133823944804,0.,             43P     87
0.99407114624506,0.5,0.,0.99407114624506,0.54866176055196,0.,         43P     88
0.98457770770911,0.59638849901983,0.,0.97508426917315,                43P     89
0.64411523748769,0.,0.9564622196202,0.68907284207761,0.,              43P     90
0.93784017006725,0.73403044666753,0.,0.91080514441825,                43P     91
0.77449122184763,0.,0.88377011876926,0.81495199702773,0.,             43P     92
0.84936105789849,0.84936105789849,0.,0.81495199702773,                43P     93
0.88377011876926,0.,0.77449122184763,0.91080514441825,0.,             43P     94
0.73403044666753,0.93784017006725,0.,0.68907284207761,                43P     95
0.9564622196202,0.,0.64411523748769,0.97508426917315,0.,              43P     96
0.59638849901983,0.98457770770911,0.,0.54866176055196,                43P     97
0.99407114624506,0.,0.5,0.99407114624506,0.,3.14159265358979,         43P     98
9.42477796076938,0.,0.,1.;                                            43P     99
102,1,43;                                                             45P    100
124,0.,1.,0.,0.,0.,0.,-1.,-0.003,-1.,0.,0.,0.;                        47P    101
100,0.,0.,0.,-0.05735,0.,-0.05735,0.;                                 49P    102
102,1,49;                                                             51P    103
142,1,41,45,51,2;                                                     53P    104
144,41,1,0,53;                                                        55P    105
314,23.13725501298904,38.03921639919281,70.58823704719543,10HMix      57P    106
edColor;                                                              57P    107
110,0.0580382,0.,-0.0580382,-0.0580382,0.,-0.0580382;                 59P    108
122,59,0.0580382,0.,0.0580382;                                        61P    109
126,64,2,1,1,1,1,-9.42477796076938,-9.42477796076938,                 63P    110
-9.42477796076938,-9.22842841992002,-9.22842841992002,                63P    111
-9.03207887907065,-9.03207887907065,-8.83572933822129,                63P    112
-8.83572933822129,-8.63937979737193,-8.63937979737193,                63P    113
-8.44303025652257,-8.44303025652257,-8.24668071567321,                63P    114
-8.24668071567321,-8.05033117482385,-8.05033117482385,                63P    115
-7.85398163397448,-7.85398163397448,-7.65763209312512,                63P    116
-7.65763209312512,-7.46128255227576,-7.46128255227576,                63P    117
-7.2649330114264,-7.2649330114264,-7.06858347057703,                  63P    118
-7.06858347057703,-6.87223392972767,-6.87223392972767,                63P    119
-6.67588438887831,-6.67588438887831,-6.47953484802895,                63P    120
-6.47953484802895,-6.28318530717959,-6.28318530717959,                63P    121
-6.08683576633022,-6.08683576633022,-5.89048622548086,                63P    122
-5.89048622548086,-5.6941366846315,-5.6941366846315,                  63P    123
-5.49778714378214,-5.49778714378214,-5.30143760293278,                63P    124
-5.30143760293278,-5.10508806208341,-5.10508806208341,                63P    125
-4.90873852123405,-4.90873852123405,-4.71238898038469,                63P    126
-4.71238898038469,-4.51603943953533,-4.51603943953533,                63P    127
-4.31968989868597,-4.31968989868597,-4.1233403578366,                 63P    128
-4.1233403578366,-3.92699081698724,-3.92699081698724,                 63P    129
-3.73064127613788,-3.73064127613788,-3.53429173528852,                63P    130
-3.53429173528852,-3.33794219443916,-3.33794219443916,                63P    131
-3.14159265358979,-3.14159265358979,-3.14159265358979,1.,1.,1.,       63P    132
1.,1.,1.,1.,1.,1.,1.,1.,1.,1.,1.,1.,1.,1.,1.,1.,1.,1.,1.,1.,1.,       63P    133
1.,1.,1.,1.,1.,1.,1.,1.,1.,1.,1.,1.,1.,1.,1.,1.,1.,1.,1.,1.,1.,       63P    134
1.,1.,1.,1.,1.,1.,1.,1.,1.,1.,1.,1.,1.,1.,1.,1.,1.,1.,1.,1.,0.5,      63P    135
0.99407114624506,0.,0.45133823944804,0.99407114624506,0.,             63P    136
0.40361150098017,0.98457770770911,0.,0.35588476251231,                63P    137
0.97508426917315,0.,0.31092715792239,0.9564622196202,0.,              63P    138
0.26596955333247,0.93784017006725,0.,0.22550877815237,                63P    139
0.91080514441825,0.,0.18504800297227,0.88377011876926,0.,             63P    140
0.15063894210151,0.84936105789849,0.,0.11622988123074,                63P    141
0.81495199702773,0.,0.08919485558175,0.77449122184763,0.,             63P    142
0.06215982993275,0.73403044666753,0.,0.0435377803798,                 63P    143
0.68907284207761,0.,0.02491573082685,0.64411523748769,0.,             63P    144
0.01542229229089,0.59638849901983,0.,0.00592885375494,                63P    145
0.54866176055196,0.,0.00592885375494,0.5,0.,0.00592885375494,         63P    146
0.45133823944804,0.,0.01542229229089,0.40361150098017,0.,             63P    147
0.02491573082685,0.35588476251231,0.,0.0435377803798,                 63P    148
0.31092715792239,0.,0.06215982993275,0.26596955333247,0.,             63P    149
0.08919485558175,0.22550877815237,0.,0.11622988123074,                63P    150
0.18504800297227,0.,0.15063894210151,0.15063894210151,0.,             63P    151
0.18504800297227,0.11622988123074,0.,0.22550877815237,                63P    152
0.08919485558175,0.,0.26596955333247,0.06215982993275,0.,             63P    153
0.31092715792239,0.0435377803798,0.,0.35588476251231,                 63P    154
0.02491573082685,0.,0.40361150098017,0.01542229229089,0.,             63P    155
0.45133823944804,0.00592885375494,0.,0.5,0.00592885375494,0.,         63P    156
0.54866176055196,0.00592885375494,0.,0.59638849901983,                63P    157
0.01542229229089,0.,0.64411523748769,0.02491573082685,0.,             63P    158
0.68907284207761,0.0435377803798,0.,0.73403044666753,                 63P    159
0.06215982993275,0.,0.77449122184763,0.08919485558175,0.,             63P    160
0.81495199702773,0.11622988123074,0.,0.84936105789849,                63P    161
0.15063894210151,0.,0.88377011876926,0.18504800297227,0.,             63P    162
0.91080514441825,0.22550877815237,0.,0.93784017006725,                63P    163
0.26596955333247,0.,0.9564622196202,0.31092715792239,0.,              63P    164
0.97508426917315,0.35588476251231,0.,0.98457770770911,                63P    165
0.40361150098017,0.,0.99407114624506,0.45133823944804,0.,             63P    166
0.99407114624506,0.5,0.,0.99407114624506,0.54866176055196,0.,         63P    167
0.98457770770911,0.59638849901983,0.,0.97508426917315,                63P    168
0.64411523748769,0.,0.9564622196202,0.68907284207761,0.,              63P    169
0.93784017006725,0.73403044666753,0.,0.91080514441825,                63P    170
0.77449122184763,0.,0.88377011876926,0.81495199702773,0.,             63P    171
0.84936105789849,0.84936105789849,0.,0.81495199702773,                63P    172
0.88377011876926,0.,0.77449122184763,0.91080514441825,0.,             63P    173
0.73403044666753,0.93784017006725,0.,0.68907284207761,                63P    174
0.9564622196202,0.,0.64411523748769,0.97508426917315,0.,              63P    175
0.59638849901983,0.98457770770911,0.,0.54866176055196,                63P    176
0.99407114624506,0.,0.5,0.99407114624506,0.,-9.42477796076938,        63P    177
-3.14159265358979,0.,0.,1.;                                           63P    178
102,1,63;                                                             65P    179
124,0.,-1.,0.,0.,0.,0.,1.,0.,-1.,0.,0.,0.;                            67P    180
100,0.,0.,0.,-0.05735,-0.,-0.05735,-0.;                               69P    181
102,1,69;                                                             71P    182
142,1,61,65,71,2;                                                     73P    183
144,61,1,0,73;                                                        75P    184
S      2G      4D     76P    184                                        T      1
